<svg width="23" height="23" viewBox="0 0 23 23" fill="none" xmlns="http://www.w3.org/2000/svg">
<g clip-path="url(#clip0_1409_3089)">
<path d="M20.2751 5.75428C19.9954 5.75404 19.7174 5.79682 19.4507 5.88113C19.476 5.68017 19.4888 5.47778 19.489 5.27523C19.4393 2.31247 16.9971 -0.0490005 14.0343 0.000772568C11.8723 0.0370844 9.94339 1.36769 9.1416 3.37591C7.59102 2.41441 5.55459 2.89202 4.59314 4.4426C4.28013 4.94737 4.10901 5.52721 4.0978 6.12104C3.68036 5.88003 3.20668 5.75347 2.72466 5.75428C1.24306 5.75428 0.0419922 6.95535 0.0419922 8.43695C0.0419922 9.91855 1.24306 11.1196 2.72466 11.1196C2.9363 11.1196 3.1079 10.948 3.1079 10.7364C3.1079 10.5247 2.9363 10.3531 2.72466 10.3531C1.66649 10.3359 0.822649 9.46422 0.839846 8.40605C0.857044 7.34788 1.72877 6.50404 2.78694 6.52124C3.43106 6.53173 4.02681 6.86515 4.37259 7.40867C4.48851 7.58578 4.72603 7.63536 4.90313 7.51948C5.05619 7.41931 5.11712 7.22496 5.04862 7.05533C4.92795 6.76426 4.86495 6.45254 4.86313 6.13747C4.87851 4.74862 6.01514 3.6343 7.404 3.64642C8.02283 3.64887 8.61982 3.87541 9.0845 4.28413C9.24402 4.42325 9.48613 4.40667 9.6252 4.24715C9.6629 4.20394 9.6904 4.15278 9.70573 4.09749C10.407 1.65742 12.9535 0.247818 15.3935 0.949048C17.3309 1.5058 18.6795 3.25978 18.7199 5.27519C18.7182 5.67692 18.6622 6.07659 18.5532 6.46322C18.4965 6.66716 18.6158 6.87842 18.8198 6.93509C18.9301 6.96575 19.0484 6.94548 19.1422 6.8798C19.4737 6.64603 19.8694 6.52061 20.2751 6.52071C21.3333 6.52071 22.1913 7.37864 22.1913 8.4369C22.1913 9.49517 21.3333 10.3531 20.2751 10.3531C20.0634 10.3531 19.8918 10.5247 19.8918 10.7363C19.8918 10.948 20.0634 11.1196 20.2751 11.1196C21.7567 11.1196 22.9577 9.9185 22.9577 8.4369C22.9577 6.95535 21.7567 5.75428 20.2751 5.75428Z" fill="#FFC107"/>
<path d="M18.0143 14.5684H4.98419C4.34921 14.5684 3.83447 15.0831 3.83447 15.7181V17.251C3.83447 17.886 4.34921 18.4007 4.98419 18.4007H18.0143C18.6493 18.4007 19.164 17.886 19.164 17.251V15.7181C19.164 15.0831 18.6493 14.5684 18.0143 14.5684ZM18.3975 17.251C18.3975 17.4627 18.2259 17.6343 18.0143 17.6343H4.98419C4.77254 17.6343 4.60095 17.4627 4.60095 17.251V15.7181C4.60095 15.5064 4.77254 15.3348 4.98419 15.3348H18.0143C18.2259 15.3348 18.3975 15.5064 18.3975 15.7181V17.251Z" fill="#FFC107"/>
<path d="M16.951 15.7422C16.5426 15.7447 16.2129 16.0765 16.2129 16.4849C16.2148 16.8961 16.549 17.2282 16.9602 17.2276C17.3704 17.225 17.7009 16.8905 17.6983 16.4803C17.6958 16.0701 17.3612 15.7397 16.951 15.7422ZM16.9602 16.5091C16.9487 16.5091 16.941 16.4964 16.941 16.4849L16.9602 16.4612V16.5091Z" fill="#FFC107"/>
<path d="M12.9553 16.1016H5.67377C5.46212 16.1016 5.29053 16.2732 5.29053 16.4848C5.29053 16.6964 5.46212 16.868 5.67377 16.868H12.9553C13.1669 16.868 13.3385 16.6964 13.3385 16.4848C13.3385 16.2732 13.167 16.1016 12.9553 16.1016Z" fill="#FFC107"/>
<path d="M15.3216 16.1016H14.3022C14.0905 16.1016 13.9189 16.2732 13.9189 16.4848C13.9189 16.6964 14.0905 16.868 14.3022 16.868H15.3216C15.5332 16.868 15.7048 16.6964 15.7048 16.4848C15.7048 16.2732 15.5333 16.1016 15.3216 16.1016Z" fill="#FFC107"/>
<path d="M18.0143 19.168H4.98419C4.34921 19.168 3.83447 19.6827 3.83447 20.3177V21.8506C3.83447 22.4856 4.34921 23.0004 4.98419 23.0004H18.0143C18.6493 23.0004 19.164 22.4856 19.164 21.8506V20.3177C19.164 19.6827 18.6493 19.168 18.0143 19.168ZM18.3975 21.8506C18.3975 22.0623 18.2259 22.2339 18.0143 22.2339H4.98419C4.77254 22.2339 4.60095 22.0623 4.60095 21.8506V20.3177C4.60095 20.106 4.77254 19.9344 4.98419 19.9344H18.0143C18.2259 19.9344 18.3975 20.106 18.3975 20.3177V21.8506Z" fill="#FFC107"/>
<path d="M16.951 20.3408C16.5426 20.3434 16.2129 20.6751 16.2129 21.0835C16.2148 21.4947 16.549 21.8268 16.9602 21.8262C17.3704 21.8237 17.7009 21.4891 17.6983 21.0789C17.6958 20.6687 17.3612 20.3383 16.951 20.3408ZM16.9602 21.1077C16.9487 21.1077 16.941 21.095 16.941 21.0836L16.9602 21.0598V21.1077Z" fill="#FFC107"/>
<path d="M12.9553 20.7002H5.67377C5.46212 20.7002 5.29053 20.8718 5.29053 21.0834C5.29053 21.2951 5.46212 21.4667 5.67377 21.4667H12.9553C13.1669 21.4667 13.3385 21.2951 13.3385 21.0834C13.3385 20.8718 13.167 20.7002 12.9553 20.7002Z" fill="#FFC107"/>
<path d="M15.3216 20.7002H14.3022C14.0905 20.7002 13.9189 20.8718 13.9189 21.0834C13.9189 21.2951 14.0905 21.4667 14.3022 21.4667H15.3216C15.5332 21.4667 15.7048 21.2951 15.7048 21.0834C15.7048 20.8718 15.5333 20.7002 15.3216 20.7002Z" fill="#FFC107"/>
<path d="M18.0143 9.96973H4.98419C4.34921 9.96973 3.83447 10.4845 3.83447 11.1194V12.6524C3.83447 13.2874 4.34921 13.8021 4.98419 13.8021H18.0143C18.6493 13.8021 19.164 13.2874 19.164 12.6524V11.1194C19.164 10.4845 18.6493 9.96973 18.0143 9.96973ZM18.3975 12.6524C18.3975 12.864 18.2259 13.0356 18.0143 13.0356H4.98419C4.77254 13.0356 4.60095 12.864 4.60095 12.6524V11.1194C4.60095 10.9078 4.77254 10.7362 4.98419 10.7362H18.0143C18.2259 10.7362 18.3975 10.9078 18.3975 11.1194V12.6524Z" fill="#FFC107"/>
<path d="M17.5778 11.7816C17.504 11.3745 17.1141 11.1043 16.7069 11.1782C16.514 11.2132 16.3425 11.3224 16.2292 11.4823C16.1154 11.6429 16.071 11.8424 16.1058 12.0361C16.1703 12.3929 16.4807 12.6524 16.8432 12.6527C16.885 12.6527 16.9268 12.6492 16.9681 12.6424C17.1649 12.6099 17.3403 12.4993 17.4544 12.3358C17.5686 12.1752 17.6131 11.9754 17.5778 11.7816ZM16.8236 11.9165L16.8409 11.8863L16.8428 11.9342C16.8255 11.9342 16.8244 11.9246 16.8236 11.9165Z" fill="#FFC107"/>
<path d="M12.8786 11.5029H5.59711C5.38546 11.5029 5.21387 11.6745 5.21387 11.8862C5.21387 12.0978 5.38546 12.2694 5.59711 12.2694H12.8786C13.0903 12.2694 13.2619 12.0978 13.2619 11.8862C13.2619 11.6745 13.0903 11.5029 12.8786 11.5029Z" fill="#FFC107"/>
<path d="M15.077 11.5029H14.0576C13.8459 11.5029 13.6743 11.6745 13.6743 11.8862C13.6743 12.0978 13.8459 12.2694 14.0576 12.2694H15.077C15.2886 12.2694 15.4602 12.0978 15.4602 11.8862C15.4602 11.6745 15.2887 11.5029 15.077 11.5029Z" fill="#FFC107"/>
<path d="M9.85368 6.2502L8.70396 5.10049C8.55431 4.95088 8.31172 4.95088 8.16206 5.10049L7.01235 6.2502C6.86533 6.40244 6.86954 6.64508 7.02179 6.7921C7.17029 6.93553 7.40574 6.93553 7.55425 6.7921L8.04977 6.29657V8.82058C8.04977 9.03222 8.22137 9.20382 8.43301 9.20382C8.64466 9.20382 8.81625 9.03222 8.81625 8.82058V6.29657L9.31178 6.7921C9.46402 6.93912 9.70666 6.9349 9.85368 6.78266C9.9971 6.63416 9.9971 6.39871 9.85368 6.2502Z" fill="#FFC107"/>
<path d="M15.9761 7.4C15.8276 7.25657 15.5922 7.25657 15.4436 7.4L14.9481 7.89553V5.37152C14.9481 5.15988 14.7765 4.98828 14.5649 4.98828C14.3532 4.98828 14.1816 5.15988 14.1816 5.37152V7.89553L13.6861 7.4C13.5338 7.25293 13.2913 7.25715 13.1442 7.40939C13.0008 7.55789 13.0008 7.79335 13.1442 7.9419L14.2939 9.09161C14.4436 9.24122 14.6862 9.24122 14.8358 9.09161L15.9855 7.9419C16.1326 7.78966 16.1284 7.54702 15.9761 7.4Z" fill="#FFC107"/>
</g>
<defs>
<clipPath id="clip0_1409_3089">
<rect width="23" height="23" fill="white"/>
</clipPath>
</defs>
</svg>
