<svg width="47" height="47" viewBox="0 0 47 47" fill="none" xmlns="http://www.w3.org/2000/svg">
<g clip-path="url(#clip0_1319_21409)">
<path d="M43.2097 4.54839H25.7605L25.8621 4.34447L22.9451 1.42744L21.0848 2.35758C20.7869 2.21355 20.4761 2.08544 20.1562 1.97552L19.4982 0H15.3735L14.714 1.97552C14.3941 2.08544 14.0833 2.21279 13.7854 2.35758L11.9251 1.42744L9.00808 4.34447L9.93823 6.20476C9.79419 6.50268 9.66608 6.81348 9.55616 7.13339L7.58065 7.79215V11.9168L9.55616 12.5755C9.66608 12.8954 9.79344 13.2062 9.93823 13.5042L9.00808 15.3645L11.9251 18.2815L13.7854 17.3513C14.0833 17.4954 14.3941 17.6235 14.714 17.7334L15.3728 19.7097H18.1935V21.9604L13.6785 23.0891L16.3636 25.7742L12.129 30.0087L8.33871 26.2184L0.222113 34.335L1.29402 35.4069L8.33871 28.3622L12.129 32.1525L17.4355 26.8461L18.1935 27.6042V30.3226H15.1613V33.3548H7.58065V36.3871H0V47H7.58065H9.09677H15.1613H16.6774H24.2581V43.9677H43.2097C45.2997 43.9677 47 42.2674 47 40.1774V8.33871C47 6.24873 45.2997 4.54839 43.2097 4.54839ZM45.3444 7.58065H19.8492C20.163 6.70053 20.9969 6.06452 21.9839 6.06452H43.2097C44.1967 6.06452 45.0305 6.70053 45.3444 7.58065ZM17.4355 7.58065C16.1816 7.58065 15.1613 8.601 15.1613 9.85484C15.1613 11.1087 16.1816 12.129 17.4355 12.129C17.7023 12.129 17.9555 12.0745 18.1935 11.9895V13.561C17.9449 13.6118 17.6932 13.6452 17.4355 13.6452C15.3455 13.6452 13.6452 11.9448 13.6452 9.85484C13.6452 7.76485 15.3455 6.06452 17.4355 6.06452C17.9032 6.06452 18.3573 6.15927 18.7864 6.32302C18.5188 6.74677 18.3368 7.22511 18.2542 7.73908C17.9995 7.64053 17.7251 7.58065 17.4355 7.58065ZM18.1935 9.85484C18.1935 10.2733 17.8539 10.6129 17.4355 10.6129C17.017 10.6129 16.6774 10.2733 16.6774 9.85484C16.6774 9.43639 17.017 9.09677 17.4355 9.09677C17.8539 9.09677 18.1935 9.43639 18.1935 9.85484ZM16.4659 18.1935L15.9057 16.5114L15.5244 16.4007C15.0385 16.259 14.5791 16.0695 14.1569 15.8375L13.8081 15.6457L12.2245 16.4371L10.8532 15.0658L11.6446 13.4822L11.4528 13.1335C11.2201 12.7112 11.0306 12.2518 10.8896 11.7659L10.7789 11.3846L9.09677 10.8244V8.88452L10.7789 8.32431L10.8896 7.943C11.0314 7.45708 11.2209 6.99769 11.4528 6.57545L11.6446 6.22674L10.8532 4.64315L12.2245 3.27181L13.8081 4.06323L14.1569 3.87144C14.5791 3.63871 15.0385 3.44919 15.5244 3.30819L15.9057 3.19752L16.4659 1.51613H18.4058L18.966 3.19827L19.3473 3.30895C19.8332 3.45071 20.2926 3.64023 20.7149 3.87219L21.0636 4.06398L22.6472 3.27256L23.9222 4.54839H21.9839C21.2175 4.54839 20.5064 4.78035 19.909 5.17303C19.1487 4.76974 18.3065 4.54839 17.4355 4.54839C14.5101 4.54839 12.129 6.92947 12.129 9.85484C12.129 12.7802 14.5101 15.1613 17.4355 15.1613C17.6917 15.1613 17.9434 15.1332 18.1935 15.0969V18.1935H16.4659ZM20.1842 23.0255L19.2988 26.5656L16.6441 23.9109L20.1842 23.0255ZM19.7097 29.1203L20.1205 29.5312L21.2258 25.1094V28.0484C21.2258 29.3022 22.2462 30.3226 23.5 30.3226H19.7097V29.1203ZM22.7419 28.0484V23.5C22.7419 23.0815 23.0815 22.7419 23.5 22.7419H41.6935C42.112 22.7419 42.4516 23.0815 42.4516 23.5V28.0484C42.4516 28.4668 42.112 28.8065 41.6935 28.8065H23.5C23.0815 28.8065 22.7419 28.4668 22.7419 28.0484ZM24.2581 33.3548H41.6935C42.112 33.3548 42.4516 33.6945 42.4516 34.1129V38.6613C42.4516 39.0797 42.112 39.4194 41.6935 39.4194H24.2581V33.3548ZM7.58065 45.4839H1.51613V37.9032H7.58065V45.4839ZM15.1613 45.4839H9.09677V36.3871V34.871H15.1613V45.4839ZM22.7419 45.4839H16.6774V33.3548V31.8387H22.7419V45.4839ZM43.2097 42.4516H24.2581V40.9355H41.6935C42.9474 40.9355 43.9677 39.9151 43.9677 38.6613V34.1129C43.9677 32.8591 42.9474 31.8387 41.6935 31.8387H24.2581V30.3226H41.6935C42.9474 30.3226 43.9677 29.3022 43.9677 28.0484V23.5C43.9677 22.2462 42.9474 21.2258 41.6935 21.2258H23.5C22.9534 21.2258 22.4584 21.4275 22.0657 21.7496L22.2674 20.9423L19.7097 21.5813V9.09677H45.4839V40.1774C45.4839 41.4313 44.4635 42.4516 43.2097 42.4516Z" fill="white"/>
<path d="M41.6936 10.6133H23.5C22.2462 10.6133 21.2258 11.6336 21.2258 12.8875V17.4359C21.2258 18.6897 22.2462 19.7101 23.5 19.7101H41.6936C42.9474 19.7101 43.9678 18.6897 43.9678 17.4359V12.8875C43.9678 11.6336 42.9474 10.6133 41.6936 10.6133ZM42.4516 17.4359C42.4516 17.8543 42.112 18.1939 41.6936 18.1939H23.5C23.0816 18.1939 22.742 17.8543 22.742 17.4359V12.8875C22.742 12.469 23.0816 12.1294 23.5 12.1294H41.6936C42.112 12.1294 42.4516 12.469 42.4516 12.8875V17.4359Z" fill="#FFC107"/>
<path d="M39.4193 13.6455H40.9354V16.6778H39.4193V13.6455Z" fill="#FFC107"/>
<path d="M36.3871 13.6455H37.9032V16.6778H36.3871V13.6455Z" fill="#FFC107"/>
<path d="M24.2581 24.2578H25.7742V27.2901H24.2581V24.2578Z" fill="#FFC107"/>
<path d="M27.2903 24.2578H28.8064V27.2901H27.2903V24.2578Z" fill="#FFC107"/>
<path d="M39.4193 34.8711H40.9354V37.9034H39.4193V34.8711Z" fill="#FFC107"/>
<path d="M36.3871 34.8711H37.9032V37.9034H36.3871V34.8711Z" fill="#FFC107"/>
</g>
<defs>
<clipPath id="clip0_1319_21409">
<rect width="47" height="47" fill="white"/>
</clipPath>
</defs>
</svg>
