<svg width="56" height="56" viewBox="0 0 56 56" fill="none" xmlns="http://www.w3.org/2000/svg">
<g clip-path="url(#clip0_1319_21380)">
<path d="M42.2538 16.2439C42.1268 15.8826 41.9087 15.5602 41.6205 15.308C41.3322 15.0559 40.9838 14.8824 40.6088 14.8046C40.1209 14.7446 39.6258 14.7918 39.1581 14.9429C38.6903 15.094 38.2612 15.3454 37.9007 15.6796C37.6075 15.9683 37.4325 16.1477 36.8594 23.9396C36.5925 27.5708 36.3388 31.6964 36.3388 32.4314C36.3388 33.0002 36.1288 34.9077 35.9013 36.8546C35.8532 36.7408 35.805 36.6227 35.7569 36.4871C35.07 34.6014 33.4819 32.9871 31.2769 31.9589C29.8069 31.2677 28.3719 31.3202 27.44 32.1077C27.1016 32.3861 26.8506 32.7563 26.7171 33.1737C26.5837 33.5912 26.5734 34.0383 26.6875 34.4614C26.9107 35.2708 27.4838 36.0714 28.1488 37.0033C28.7599 37.7916 29.296 38.6352 29.75 39.5233C30.1465 40.4459 30.4698 41.3982 30.7169 42.3714C31.0025 43.5139 31.3981 44.6259 31.8982 45.6921C32.1344 46.1514 32.3882 46.6414 32.6507 47.1402C33.4646 48.6071 34.195 50.1189 34.8382 51.6683C35.5994 53.7202 38.7363 55.6321 39.0907 55.8421C39.288 55.9313 39.5115 55.9441 39.7178 55.878C39.9241 55.812 40.0986 55.6718 40.2075 55.4845C40.3163 55.2972 40.3519 55.0762 40.3072 54.8643C40.2625 54.6523 40.1408 54.4645 39.9657 54.3371C38.8282 53.6589 36.8682 52.1496 36.4657 51.0558C35.806 49.4367 35.0522 47.8576 34.2082 46.3264C33.95 45.8321 33.6963 45.3508 33.4644 44.8958C33.006 43.9326 32.6412 42.9276 32.375 41.8946C32.1032 40.8327 31.7477 39.794 31.3119 38.7883C30.818 37.8006 30.2321 36.8617 29.5619 35.9839C29.0703 35.3819 28.6667 34.7132 28.3632 33.9977C28.3328 33.8965 28.3337 33.7885 28.3657 33.6878C28.3977 33.5871 28.4593 33.4984 28.5425 33.4333C28.8444 33.1752 29.5225 33.0702 30.5069 33.5296C32.9088 34.6583 33.7794 36.2333 34.0857 37.0733C34.3783 37.9695 34.879 38.7836 35.5469 39.4489C35.4682 40.0614 35.3982 40.6039 35.3457 41.0064C35.3291 41.1225 35.3361 41.2407 35.3661 41.354C35.3961 41.4673 35.4486 41.5734 35.5204 41.666C35.5922 41.7586 35.6819 41.8359 35.7842 41.8932C35.8864 41.9505 35.9992 41.9867 36.1157 41.9996H36.2338C36.4474 42.0014 36.6543 41.925 36.8155 41.7847C36.9767 41.6445 37.081 41.4501 37.1088 41.2383C37.2094 40.4771 38.1019 33.7614 38.1019 32.4227C38.1019 30.7952 38.9463 18.6808 39.2875 16.8083C39.5781 16.606 39.9269 16.5046 40.2807 16.5196C40.3463 16.5196 40.4994 16.5677 40.6438 16.9089C40.9107 17.6396 40.95 22.1327 40.8538 27.6321V27.7283C40.8538 27.7283 40.8538 27.7283 40.8538 27.7589C40.8013 30.7121 40.7094 33.9496 40.5957 37.0427C40.5913 37.1576 40.6097 37.2722 40.6497 37.38C40.6897 37.4878 40.7505 37.5867 40.8287 37.671C40.9069 37.7553 41.001 37.8234 41.1055 37.8713C41.21 37.9193 41.3229 37.9462 41.4378 37.9505C41.5528 37.9548 41.6674 37.9364 41.7752 37.8964C41.883 37.8565 41.9819 37.7956 42.0662 37.7174C42.1505 37.6392 42.2185 37.5452 42.2665 37.4407C42.3144 37.3361 42.3413 37.2232 42.3457 37.1083C42.4157 35.1877 42.5469 31.3639 42.6125 27.4833C42.6174 27.3627 42.6504 27.2449 42.7089 27.1393C42.7674 27.0337 42.8497 26.9433 42.9494 26.8752C43.2403 26.7329 43.5571 26.6514 43.8806 26.6356C44.204 26.6198 44.5273 26.6701 44.8307 26.7833C45.5 27.0721 45.5 27.9733 45.5 27.9996C45.5 28.0652 45.6357 34.6627 45.6094 36.1502C45.6094 36.3822 45.7016 36.6048 45.8657 36.7689C46.0298 36.933 46.2523 37.0252 46.4844 37.0252C46.7165 37.0252 46.939 36.933 47.1031 36.7689C47.2672 36.6048 47.3594 36.3822 47.3594 36.1502C47.3813 34.9339 47.3025 30.5983 47.2675 28.7564C47.6234 28.7395 47.979 28.7965 48.3118 28.9238C48.6446 29.051 48.9474 29.2458 49.2013 29.4958C49.5075 29.8502 49.84 31.2458 49.9625 32.2958V32.3264C49.9625 32.3264 49.9625 32.3483 49.9625 32.3614C50.2103 33.8745 50.2206 35.417 49.9932 36.9333C49.973 37.0465 49.9753 37.1625 50.0001 37.2748C50.0248 37.3871 50.0714 37.4934 50.1372 37.5877C50.203 37.6819 50.2868 37.7623 50.3837 37.8242C50.4806 37.8861 50.5887 37.9282 50.7019 37.9483C50.7529 37.9528 50.8041 37.9528 50.855 37.9483C51.0629 37.9515 51.265 37.8806 51.4254 37.7484C51.5857 37.6161 51.6937 37.4311 51.73 37.2264C51.9471 35.859 51.9824 34.4688 51.835 33.0921C52.1081 33.1471 52.3709 33.2445 52.6138 33.3808C53.3094 33.7746 53.7775 34.5008 53.7732 36.7714C53.7732 37.5983 53.8607 38.8277 53.9613 40.2714C54.145 42.8964 54.3988 46.1689 54.1275 48.1464C53.7513 51.0864 52.1938 54.7089 52.1807 54.7658C52.1289 54.8722 52.0992 54.988 52.0934 55.1062C52.0876 55.2244 52.1059 55.3425 52.1471 55.4535C52.1883 55.5644 52.2516 55.6658 52.3331 55.7516C52.4146 55.8374 52.5127 55.9057 52.6214 55.9525C52.7301 55.9993 52.8471 56.0236 52.9654 56.0239C53.0838 56.0241 53.2009 56.0004 53.3098 55.954C53.4187 55.9077 53.5171 55.8398 53.599 55.7544C53.6809 55.669 53.7446 55.5678 53.7863 55.4571C53.8563 55.2996 55.4532 51.5589 55.86 48.3696C56.1313 46.2433 55.895 42.8746 55.7025 40.1708C55.6063 38.7796 55.5188 37.5808 55.5188 36.8152C55.5188 34.9558 55.2782 32.9214 53.4713 31.8977C52.8927 31.5713 52.2484 31.3785 51.5857 31.3333C51.4325 30.4277 51.1088 29.0583 50.5182 28.3802C50.0791 27.9223 49.5456 27.5655 48.9549 27.3343C48.3641 27.1031 47.7301 27.0032 47.0969 27.0414C46.9854 26.6324 46.7842 26.2534 46.508 25.9318C46.2318 25.6102 45.8875 25.3541 45.5 25.1821C44.5823 24.8461 43.5789 24.8246 42.6475 25.1208C42.6738 20.8902 42.6038 17.0621 42.2538 16.2439Z" fill="#FFC107"/>
<path d="M32.2 19.9977C32.2 17.8622 31.5667 15.7746 30.3803 13.9989C29.1938 12.2233 27.5075 10.8393 25.5345 10.0221C23.5615 9.20487 21.3905 8.99105 19.296 9.40767C17.2015 9.82429 15.2776 10.8527 13.7675 12.3627C12.2574 13.8728 11.2291 15.7967 10.8125 17.8912C10.3958 19.9857 10.6097 22.1567 11.4269 24.1297C12.2441 26.1027 13.6281 27.789 15.4037 28.9755C17.1794 30.1619 19.2669 30.7952 21.4025 30.7952C24.2651 30.7917 27.0095 29.653 29.0336 27.6288C31.0578 25.6047 32.1965 22.8603 32.2 19.9977ZM21.4025 29.0452C19.6131 29.0452 17.8638 28.5146 16.376 27.5204C14.8881 26.5263 13.7285 25.1132 13.0437 23.46C12.3589 21.8068 12.1797 19.9877 12.5288 18.2326C12.8779 16.4776 13.7396 14.8655 15.0049 13.6002C16.2703 12.3348 17.8824 11.4731 19.6374 11.124C21.3924 10.7749 23.2116 10.9541 24.8648 11.6389C26.518 12.3237 27.9311 13.4833 28.9252 14.9712C29.9194 16.459 30.45 18.2083 30.45 19.9977C30.4477 22.3965 29.4937 24.6965 27.7975 26.3927C26.1012 28.0889 23.8013 29.0429 21.4025 29.0452Z" fill="white"/>
<path d="M0.844433 23.9268L5.45131 25.375C6.1635 27.4836 7.28446 29.4312 8.75006 31.1062L7.71756 35.8268C7.68153 35.9867 7.69114 36.1535 7.74528 36.3082C7.79943 36.4629 7.89593 36.5993 8.02381 36.7018C9.7142 38.0572 11.601 39.1474 13.6194 39.935C13.7719 39.9945 13.938 40.01 14.0988 39.9799C14.2597 39.9497 14.4089 39.875 14.5294 39.7643L18.0951 36.5006C19.1826 36.7183 20.289 36.8282 21.3982 36.8287C22.528 36.855 23.6567 36.7404 24.7582 36.4875C24.9844 36.4358 25.1809 36.2964 25.3044 36.0999C25.4279 35.9034 25.4683 35.6659 25.4166 35.4396C25.365 35.2134 25.2256 35.0169 25.0291 34.8934C24.8326 34.7699 24.5951 34.7296 24.3688 34.7812C23.3953 35.0063 22.397 35.1062 21.3982 35.0787C20.2646 35.0782 19.1346 34.9506 18.0294 34.6981C17.892 34.6667 17.749 34.6691 17.6127 34.7049C17.4763 34.7407 17.3506 34.8089 17.2463 34.9037L13.7463 38.1018C12.2478 37.469 10.834 36.6519 9.53756 35.6693L10.5701 31.0625C10.6003 30.9243 10.5965 30.7809 10.5592 30.6445C10.5219 30.5081 10.452 30.3828 10.3557 30.2793C8.81191 28.6064 7.66496 26.6071 7.00006 24.43C6.95844 24.2945 6.88454 24.1711 6.7847 24.0705C6.68487 23.9699 6.56209 23.8951 6.42693 23.8525L1.89881 22.4262C1.69968 20.8121 1.69968 19.1797 1.89881 17.5656L6.40943 16.1393C6.54782 16.0992 6.67415 16.0254 6.77718 15.9247C6.88022 15.8239 6.95678 15.6993 7.00006 15.5618C7.67249 13.3894 8.82536 11.3961 10.3732 9.72996C10.4695 9.62646 10.5394 9.50115 10.5767 9.36477C10.614 9.22838 10.6178 9.08498 10.5876 8.94684L9.54631 4.32684C10.8428 3.34446 12.2566 2.52734 13.7551 1.89434L17.2551 5.08809C17.3594 5.18291 17.4851 5.25113 17.6214 5.28693C17.7578 5.32273 17.9007 5.32506 18.0382 5.29371C20.2539 4.78643 22.5556 4.78643 24.7713 5.29371C24.9088 5.32506 25.0517 5.32273 25.1881 5.28693C25.3244 5.25113 25.4501 5.18291 25.5544 5.08809L29.0544 1.89434C30.5483 2.52827 31.9577 3.34536 33.2501 4.32684L32.2351 8.95121C32.2049 9.08935 32.2086 9.23276 32.2459 9.36914C32.2832 9.50553 32.3531 9.63084 32.4494 9.73433C33.7797 11.1592 34.8199 12.8295 35.5119 14.6518C35.5527 14.7593 35.6143 14.8576 35.6931 14.9413C35.7719 15.0249 35.8664 15.0922 35.9712 15.1394C36.076 15.1865 36.1891 15.2125 36.304 15.2159C36.4188 15.2194 36.5332 15.2001 36.6407 15.1593C36.7481 15.1185 36.8465 15.057 36.9301 14.9782C37.0138 14.8994 37.0811 14.8049 37.1282 14.7001C37.1753 14.5953 37.2014 14.4822 37.2048 14.3673C37.2082 14.2524 37.189 14.138 37.1482 14.0306C36.4326 12.1441 35.3817 10.4025 34.0463 8.88996L35.0832 4.16496C35.1192 4.00507 35.1096 3.83827 35.0555 3.68357C35.0013 3.52887 34.9048 3.39249 34.7769 3.28996C33.0862 1.93628 31.1994 0.847582 29.1813 0.0612102C29.0288 0.00169952 28.8628 -0.0138589 28.7019 0.0163024C28.541 0.0464638 28.3919 0.121136 28.2713 0.231835L24.7057 3.49996C22.5253 3.06273 20.2798 3.06273 18.0994 3.49996L14.5294 0.22746C14.4084 0.117494 14.259 0.0436315 14.0982 0.0142469C13.9374 -0.0151377 13.7715 0.00113165 13.6194 0.0612102C11.6026 0.849328 9.71731 1.93949 8.02818 3.29434C7.90031 3.39686 7.8038 3.53325 7.74966 3.68794C7.69551 3.84264 7.68591 4.00944 7.72193 4.16934L8.75006 8.88558C7.28076 10.5569 6.15535 12.5015 5.43818 14.6081L0.844433 16.065C0.68789 16.114 0.548277 16.206 0.441524 16.3305C0.334771 16.4551 0.265177 16.6071 0.240683 16.7693C-0.0828318 18.9097 -0.0828318 21.0865 0.240683 23.2268C0.265936 23.3882 0.335872 23.5394 0.442574 23.6631C0.549277 23.7868 0.688483 23.8782 0.844433 23.9268Z" fill="white"/>
<path d="M33.7531 31.4253C34.4679 30.7252 35.0101 29.8685 35.3369 28.9228C35.3973 28.7036 35.3699 28.4694 35.2607 28.27C35.1514 28.0706 34.9688 27.9215 34.7515 27.8544C34.5343 27.7873 34.2994 27.8074 34.0967 27.9105C33.894 28.0135 33.7394 28.1914 33.6656 28.4065C33.4098 29.1063 32.9967 29.738 32.4581 30.2528C32.3474 30.3788 32.2752 30.5341 32.2502 30.7C32.2252 30.8659 32.2485 31.0355 32.3172 31.1886C32.3859 31.3417 32.4972 31.4717 32.6377 31.5634C32.7783 31.655 32.9422 31.7042 33.11 31.7053C33.2307 31.7055 33.3502 31.6807 33.4609 31.6326C33.5715 31.5844 33.6711 31.5138 33.7531 31.4253Z" fill="white"/>
</g>
<defs>
<clipPath id="clip0_1319_21380">
<rect width="56" height="56" fill="white"/>
</clipPath>
</defs>
</svg>
