<svg width="56" height="56" viewBox="0 0 56 56" fill="none" xmlns="http://www.w3.org/2000/svg">
<g clip-path="url(#clip0_1319_21391)">
<path d="M54.9922 46.6162C54.6051 46.4051 54.1201 46.5482 53.9092 46.9356C53.6178 47.4709 53.0586 47.8034 52.4499 47.8034C51.916 47.8034 51.4112 47.5437 51.0997 47.1087C50.9026 46.8333 50.583 46.6688 50.2447 46.6688C49.9065 46.6688 49.5869 46.8333 49.3901 47.1085C49.0782 47.5437 48.5735 47.8034 48.0396 47.8034C47.5056 47.8034 47.0009 47.5437 46.6893 47.1085C46.4922 46.8333 46.1726 46.6689 45.8345 46.6689C45.4963 46.6689 45.1767 46.8333 44.9797 47.1085C44.6679 47.5437 44.1631 47.8034 43.6293 47.8034C43.2076 47.8034 42.8165 47.6476 42.514 47.3707L45.815 44.0697C46.5037 43.3811 46.8615 42.4286 46.7969 41.4568C46.7322 40.485 46.2513 39.5887 45.4774 38.9973C45.1119 38.6262 44.4971 38.5426 44.1591 38.995C43.8913 39.3454 43.9584 39.8465 44.3089 40.1141C44.8058 40.4414 45.1729 40.9564 45.2035 41.5629C45.2895 42.313 44.7617 42.9206 44.2402 43.3861L34.2411 35.7449L35.0872 34.8988C35.6791 34.3069 36.627 34.2437 37.2923 34.752L41.5373 37.9959C41.8877 38.2637 42.3889 38.1966 42.6564 37.8463C42.9242 37.4959 42.8571 36.9948 42.5068 36.7271L38.2618 33.4833C36.9636 32.4911 35.1132 32.6143 33.9579 33.7696L30.9402 36.7873C30.4384 37.2893 29.6561 37.3528 29.0798 36.9378L26.9587 35.4107C22.7273 32.3644 19.0374 28.6744 15.9914 24.4433L14.4643 22.3221C14.0496 21.746 14.1128 20.9637 14.6148 20.4616L17.6325 17.444C18.7878 16.2886 18.911 14.4383 17.9188 13.1401L12.4047 5.9244C11.8133 5.15057 10.917 4.66965 9.94517 4.60501C8.97195 4.54091 8.02104 4.89824 7.33231 5.58687L2.32884 10.5903C0.414995 12.5043 -0.389021 15.227 0.178526 17.8736C0.922932 21.3457 2.16324 24.6864 3.86512 27.8029C4.07632 28.19 4.56151 28.3324 4.94848 28.1211C5.33545 27.9098 5.47785 27.4246 5.26654 27.0376C3.63849 24.0561 2.45199 20.8603 1.73974 17.5388C1.28639 15.4243 1.92864 13.2489 3.45792 11.7195L6.87632 8.30101L14.5176 18.3002L13.4852 19.3326C12.427 20.3909 12.2934 22.0406 13.1679 23.2552L14.695 25.3764C17.8418 29.7475 21.6539 33.5596 26.0254 36.7068L28.1466 38.2339C29.3552 39.1052 31.0071 38.9785 32.0692 37.9166L33.1016 36.8842L43.1008 44.5253L39.6822 47.9439C38.153 49.4733 35.9771 50.115 33.8629 49.662C29.1478 48.6511 24.7642 46.7216 20.8339 43.9272L19.2076 42.7709C15.1058 39.8545 11.5473 36.296 8.63092 32.1942C8.3402 31.7824 7.3567 30.4104 7.0907 30.0169C6.84176 29.6528 6.34498 29.5592 5.98098 29.8081C5.61687 30.0569 5.52346 30.5537 5.77218 30.9178C6.04387 31.3198 7.03371 32.7006 7.32946 33.1194C10.3495 37.3671 14.0346 41.0523 18.2823 44.0722L19.9086 45.2285C24.017 48.1496 28.5993 50.1666 33.5282 51.2233C34.0871 51.3431 34.6492 51.4018 35.2064 51.4018C37.2883 51.4018 39.3015 50.5828 40.8113 49.0729L41.3831 48.5011C41.9838 49.0716 42.7894 49.4002 43.6289 49.4002C44.4513 49.4002 45.2382 49.0864 45.8342 48.539C46.4299 49.0864 47.217 49.4002 48.0394 49.4002C48.8617 49.4002 49.6486 49.0864 50.2446 48.539C50.8404 49.0864 51.6274 49.4002 52.4498 49.4002C53.6438 49.4002 54.7402 48.7483 55.3115 47.6991C55.5225 47.3119 55.3795 46.8269 54.9922 46.6162ZM8.01568 7.16176L8.46128 6.71616C9.18293 5.96016 10.52 6.04788 11.1357 6.89401L16.6499 14.1097C17.1581 14.7748 17.095 15.7228 16.5031 16.3148L15.6569 17.1609L8.01568 7.16176Z" fill="#FFC107"/>
<path d="M48.4947 7.98828H34.3884C33.9474 7.98828 33.5899 8.34572 33.5899 8.78672C33.5899 9.22772 33.9474 9.58516 34.3884 9.58516H48.4947C51.7526 9.58516 54.4031 12.2358 54.4031 15.4936V21.9609C54.4031 25.2189 51.7525 27.8694 48.4947 27.8694H34.2546C33.6147 27.8694 33.0133 28.1185 32.5608 28.5709L28.8037 32.3282V29.513C28.8037 28.652 28.2118 27.9107 27.3643 27.7107C24.6884 27.0788 22.8197 24.7145 22.8197 21.9609V15.4936C22.8197 12.2356 25.4702 9.58516 28.7281 9.58516H30.6158C31.0568 9.58516 31.4142 9.22772 31.4142 8.78672C31.4142 8.34572 31.0568 7.98828 30.6158 7.98828H28.7281C24.5897 7.98828 21.2228 11.3552 21.2228 15.4936V21.9609C21.2228 25.4584 23.5974 28.4619 26.9973 29.2647C27.1206 29.2939 27.2068 29.3959 27.2068 29.513V33.2277C27.2068 33.7245 27.5035 34.1686 27.9626 34.3588C28.4166 34.5478 28.9442 34.4468 29.2967 34.0935L33.69 29.7002C33.8407 29.5494 34.0413 29.4663 34.2545 29.4663H48.4947C52.6331 29.4663 56 26.0994 56 21.9609V15.4936C56 11.3552 52.6331 7.98828 48.4947 7.98828Z" fill="white"/>
<path d="M40.1965 23.0413C40.514 23.0413 40.8142 22.8507 40.9387 22.5378L43.9398 14.9922C44.1028 14.5825 43.9028 14.1182 43.493 13.9552C43.0837 13.7922 42.6191 13.9922 42.456 14.402L39.4549 21.9477C39.2392 22.4575 39.6468 23.0514 40.1965 23.0413Z" fill="white"/>
<path d="M47.2359 23.1202C47.6299 23.2962 48.1104 23.1183 48.2882 22.7106L51.6051 15.165C51.8448 14.6601 51.4327 14.0289 50.8741 14.0452H46.7231C46.2821 14.0452 45.9247 14.4027 45.9247 14.8437C45.9247 15.2847 46.2821 15.6421 46.7231 15.6421H49.651L46.8262 22.0679C46.6487 22.4715 46.8322 22.9427 47.2359 23.1202Z" fill="white"/>
<path d="M32.2319 20.8141H35.2016C35.1978 21.3175 35.194 21.801 35.1902 22.2357C35.1865 22.6766 35.5408 23.0372 35.9817 23.0411H35.9887C36.4266 23.0411 36.7832 22.6881 36.7871 22.2495C36.7894 21.9837 36.7937 21.4609 36.7985 20.8141C37.2934 20.8763 37.7734 20.5361 37.7687 20.0156C37.7731 19.5007 37.3009 19.1571 36.8092 19.2172C36.8199 17.3937 36.8257 15.4238 36.8032 15.1539C36.7548 14.5733 36.4075 14.1004 35.9184 13.9489C35.4338 13.7988 34.9171 13.9882 34.5358 14.4559C34.1095 14.9789 32.1295 18.5484 31.5328 19.63C31.2324 20.1368 31.6429 20.8321 32.2319 20.8141ZM35.222 16.3511C35.2225 17.0943 35.2183 18.1362 35.2119 19.2172H33.5885C34.2011 18.1204 34.8006 17.0667 35.222 16.3511Z" fill="white"/>
<path d="M28.6802 18.21C27.4843 19.9186 26.7706 20.8531 26.3871 21.3552C25.9128 21.9762 25.7163 22.2334 25.8538 22.6797C25.9341 22.9405 26.1319 23.1406 26.3959 23.2284C26.5024 23.264 26.6113 23.3004 28.0728 23.3004C28.647 23.3004 29.4302 23.2948 30.5037 23.2813C30.9446 23.2758 31.2975 22.9139 31.292 22.4729C31.2865 22.0354 30.93 21.6845 30.4938 21.6845C30.4905 21.6845 30.487 21.6845 30.4836 21.6846C29.6768 21.6947 28.8187 21.7011 28.1284 21.7019C28.5515 21.1382 29.1551 20.3164 29.9885 19.1257C30.5723 18.257 30.9129 17.6026 30.9724 16.7379C30.9724 15.233 29.748 14.0088 28.2431 14.0088C26.942 14.0088 25.8158 14.9343 25.5651 16.2097C25.48 16.6424 25.7618 17.0621 26.1945 17.1472C26.627 17.2317 27.0469 16.9504 27.132 16.5177C27.2359 15.9894 27.703 15.6058 28.243 15.6058C28.8527 15.6058 29.3513 16.09 29.3745 16.6938C29.3147 17.2113 29.0742 17.6208 28.6802 18.21Z" fill="white"/>
</g>
<defs>
<clipPath id="clip0_1319_21391">
<rect width="56" height="56" fill="white"/>
</clipPath>
</defs>
</svg>
