<svg width="73" height="73" viewBox="0 0 73 73" fill="none" xmlns="http://www.w3.org/2000/svg">
<g clip-path="url(#clip0_1301_20296)">
<path d="M49.8804 15.8166C49.2258 15.8166 48.5481 15.8397 47.8498 15.8727L42.4161 2.97604C41.6573 1.17114 39.8893 -0.00199277 37.9315 3.3223e-06H13.1614C11.2038 -0.00227793 9.43593 1.17043 8.67671 2.97475L0.516532 22.3441C-0.895847 25.7553 0.703309 29.6677 4.1008 31.1127C5.73746 31.7995 7.57985 31.8079 9.22264 31.1362C10.8654 30.4645 12.1741 29.1676 12.8608 27.5308L15.1834 21.9998C16.4571 23.06 18.1862 23.3912 19.7616 22.8768C21.3369 22.3624 22.5373 21.0743 22.9396 19.4668H28.1519C28.4072 20.4416 28.9602 21.3126 29.7335 21.9585C27.9322 23.4534 26.8523 25.6442 26.7636 27.9834V60.8334C26.7636 67.6552 36.9179 73 49.8802 73C62.8426 73 72.9968 67.6552 72.9968 60.8334V27.9834C72.9971 21.1614 62.8427 15.8166 49.8804 15.8166ZM10.6161 26.5891C10.0258 27.9925 8.7316 28.9743 7.22113 29.1648C5.71065 29.3553 4.2133 28.7254 3.2931 27.5126C2.3729 26.2997 2.16972 24.6881 2.76 23.2847L10.9203 3.92133C11.2983 3.01824 12.1824 2.43125 13.1614 2.43338H37.9315C38.9104 2.43125 39.7947 3.01824 40.1725 3.92133L45.9639 17.6697L45.9712 17.6855L48.3315 23.2822C49.2312 25.4553 48.2145 27.9477 46.0516 28.8715C43.8818 29.7763 41.389 28.7557 40.4768 26.589L37.5178 19.5396C37.6413 19.1206 37.7072 18.6867 37.7137 18.25C37.7167 15.8024 35.898 13.7348 33.4699 13.4259C31.0418 13.1169 28.7633 14.6629 28.1532 17.0334H22.9398C22.2473 14.4464 19.5888 12.9106 17.0018 13.603C14.4149 14.2953 12.8791 16.954 13.5714 19.5409L10.6161 26.5891ZM32.8471 20.6834C31.5032 20.6834 30.4137 19.5939 30.4137 18.25C30.4137 16.9061 31.5032 15.8166 32.8471 15.8166C34.1911 15.8166 35.2805 16.9061 35.2805 18.25C35.2804 19.5939 34.1909 20.6834 32.8471 20.6834ZM18.2471 20.6834C17.2539 20.6815 16.3617 20.0761 15.9927 19.1541C15.5953 18.161 15.893 17.0251 16.7262 16.3544C17.5595 15.6837 18.7329 15.636 19.618 16.2364C20.5031 16.8368 20.8924 17.9447 20.5774 18.9669C20.262 19.9889 19.3166 20.6854 18.2471 20.6834ZM70.5637 49.8834C70.5202 51.1771 70.0083 52.4112 69.1233 53.3557C65.9587 57.1018 58.2256 59.6168 49.8805 59.6168C41.5354 59.6168 33.8022 57.102 30.6353 53.3533C29.7516 52.409 29.2406 51.176 29.1973 49.8834V44.4352C31.0375 46.2613 33.2463 47.6737 35.676 48.5779C40.2086 50.31 45.0289 51.1659 49.8806 51.1001C54.7316 51.166 59.5509 50.3106 64.0828 48.5792C66.5137 47.6753 68.7235 46.2625 70.564 44.4352V49.8834H70.5637ZM49.8804 70.5666C38.6687 70.5666 29.197 66.1099 29.197 60.8332V55.3752C33.0356 59.4437 41.0425 62.0499 49.8804 62.0499C58.7182 62.0499 66.7275 59.4425 70.5637 55.3765V60.8332C70.5637 66.1101 61.092 70.5666 49.8804 70.5666ZM70.5637 38.9334C70.52 40.2283 70.0073 41.4631 69.1207 42.4082C67.4782 44.1683 65.4388 45.5102 63.1725 46.3222C58.9267 47.9254 54.4185 48.7205 49.8804 48.6668C45.3414 48.7205 40.8323 47.9249 36.5858 46.3211C34.3182 45.5082 32.2779 44.165 30.635 42.4035C29.7513 41.4592 29.2403 40.2261 29.197 38.9335V33.4768C32.9516 37.4638 40.7006 40.1502 49.8804 40.1502C59.0601 40.1502 66.8091 37.4637 70.5637 33.4768V38.9334ZM49.8804 37.7166C38.6687 37.7166 29.197 33.2599 29.197 27.9832C29.3867 25.9672 30.4902 24.1495 32.1913 23.0509C33.5266 23.2859 34.8963 22.8983 35.9106 21.9985L38.2344 27.5296C39.1613 29.734 41.1939 31.2765 43.5666 31.5759C45.9392 31.8753 48.2913 30.8864 49.7369 28.9814C51.1825 27.0764 51.502 24.545 50.5751 22.3406L48.8596 18.2684C49.204 18.2587 49.547 18.2501 49.8804 18.2501C61.092 18.2501 70.5637 22.7069 70.5637 27.9835C70.5637 33.2602 61.092 37.7166 49.8804 37.7166Z" fill="white"/>
<path d="M32.8471 63.2662C33.519 63.2662 34.0637 62.7215 34.0637 62.0496C34.0637 61.3777 33.519 60.833 32.8471 60.833C32.1752 60.833 31.6305 61.3777 31.6305 62.0496C31.6305 62.7215 32.1752 63.2662 32.8471 63.2662Z" fill="white"/>
<path d="M36.4971 65.6998C37.1691 65.6998 37.7138 65.1551 37.7138 64.4832C37.7138 63.8113 37.1691 63.2666 36.4971 63.2666C35.8252 63.2666 35.2805 63.8113 35.2805 64.4832C35.2805 65.1551 35.8252 65.6998 36.4971 65.6998Z" fill="white"/>
<path d="M32.8471 52.317C33.519 52.317 34.0637 51.7723 34.0637 51.1004C34.0637 50.4285 33.519 49.8838 32.8471 49.8838C32.1752 49.8838 31.6305 50.4285 31.6305 51.1004C31.6305 51.7723 32.1752 52.317 32.8471 52.317Z" fill="white"/>
<path d="M36.4971 54.7496C37.1691 54.7496 37.7138 54.2049 37.7138 53.533C37.7138 52.8611 37.1691 52.3164 36.4971 52.3164C35.8252 52.3164 35.2805 52.8611 35.2805 53.533C35.2805 54.2049 35.8252 54.7496 36.4971 54.7496Z" fill="white"/>
<path d="M32.8471 41.3668C33.519 41.3668 34.0637 40.8221 34.0637 40.1502C34.0637 39.4783 33.519 38.9336 32.8471 38.9336C32.1752 38.9336 31.6305 39.4783 31.6305 40.1502C31.6305 40.8221 32.1752 41.3668 32.8471 41.3668Z" fill="white"/>
<path d="M36.4971 43.8004C37.1691 43.8004 37.7138 43.2557 37.7138 42.5838C37.7138 41.9119 37.1691 41.3672 36.4971 41.3672C35.8252 41.3672 35.2805 41.9119 35.2805 42.5838C35.2805 43.2557 35.8252 43.8004 36.4971 43.8004Z" fill="white"/>
<path d="M14.5971 9.73366V10.9503C14.5971 11.6223 15.1419 12.1669 15.8137 12.1669C16.4857 12.1669 17.0304 11.6223 17.0304 10.9503V9.73366H18.247C18.9189 9.73366 19.4636 9.18887 19.4636 8.51705C19.4636 7.84522 18.9188 7.30043 18.247 7.30043H17.0304V6.08381C17.0304 5.41184 16.4856 4.86719 15.8137 4.86719C15.1418 4.86719 14.5971 5.41198 14.5971 6.08381V7.30028H13.3805C12.7085 7.30028 12.1639 7.84507 12.1639 8.5169C12.1639 9.18873 12.7087 9.73352 13.3805 9.73352L14.5971 9.73366Z" fill="white"/>
<path d="M32.8471 9.73366H34.0637V10.9503C34.0637 11.6223 34.6085 12.1669 35.2804 12.1669C35.9523 12.1669 36.497 11.6223 36.497 10.9503V9.73366H37.7136C38.3856 9.73366 38.9302 9.18887 38.9302 8.51705C38.9302 7.84522 38.3856 7.30043 37.7136 7.30043H36.497V6.08381C36.497 5.41184 35.9522 4.86719 35.2804 4.86719C34.6084 4.86719 34.0637 5.41198 34.0637 6.08381V7.30028H32.8471C32.1751 7.30028 31.6305 7.84507 31.6305 8.5169C31.6305 9.18873 32.1751 9.73366 32.8471 9.73366Z" fill="white"/>
<path d="M23.1137 7.30043H27.9803C28.6523 7.30043 29.197 6.75563 29.197 6.08381C29.197 5.41198 28.6522 4.86719 27.9803 4.86719H23.1137C22.4417 4.86719 21.8971 5.41198 21.8971 6.08381C21.8971 6.75563 22.4417 7.30043 23.1137 7.30043Z" fill="white"/>
<path d="M23.1137 12.1666H27.9803C28.6523 12.1666 29.197 11.622 29.197 10.95C29.197 10.278 28.6522 9.7334 27.9803 9.7334H23.1137C22.4417 9.7334 21.8971 10.2782 21.8971 10.95C21.8971 11.622 22.4417 12.1666 23.1137 12.1666Z" fill="white"/>
</g>
<defs>
<clipPath id="clip0_1301_20296">
<rect width="73" height="73" fill="white"/>
</clipPath>
</defs>
</svg>
