<svg width="75" height="75" viewBox="0 0 75 75" fill="none" xmlns="http://www.w3.org/2000/svg">
<path d="M58.4912 41.7056C57.9106 41.7052 57.3429 41.877 56.8599 42.1993C56.377 42.5216 56.0005 42.9799 55.7781 43.5162C55.5557 44.0525 55.4974 44.6428 55.6106 45.2122C55.7237 45.7817 56.0032 46.3048 56.4138 46.7154C56.8243 47.1259 57.3474 47.4055 57.9169 47.5187C58.4864 47.6318 59.0766 47.5736 59.6129 47.3512C60.1493 47.1288 60.6076 46.7524 60.9299 46.2694C61.2522 45.7865 61.424 45.2188 61.4236 44.6382C61.4222 43.8609 61.1128 43.1159 60.5632 42.5662C60.0135 42.0165 59.2685 41.7071 58.4912 41.7056ZM58.4912 45.2311C58.3743 45.2315 58.2599 45.1973 58.1625 45.1327C58.065 45.0681 57.989 44.9761 57.9438 44.8682C57.8987 44.7604 57.8866 44.6416 57.909 44.5269C57.9314 44.4122 57.9873 44.3067 58.0697 44.2238C58.152 44.1408 58.2571 44.0842 58.3717 44.061C58.4863 44.0378 58.6051 44.0491 58.7133 44.0935C58.8214 44.1378 58.914 44.2133 58.9792 44.3102C59.0445 44.4072 59.0795 44.5214 59.0799 44.6382C59.0797 44.7947 59.0177 44.9448 58.9075 45.0558C58.7972 45.1668 58.6476 45.2298 58.4912 45.2311ZM53.7906 46.4019C53.2102 46.4015 52.6427 46.5732 52.1598 46.8953C51.677 47.2174 51.3005 47.6755 51.078 48.2116C50.8554 48.7477 50.7969 49.3377 50.9097 49.9071C51.0226 50.4764 51.3017 50.9995 51.7118 51.4103C52.122 51.821 52.6447 52.1008 53.2139 52.2145C53.7831 52.3281 54.3732 52.2704 54.9096 52.0486C55.446 51.8269 55.9046 51.451 56.2274 50.9686C56.5502 50.4862 56.7227 49.9189 56.7231 49.3385C56.7227 48.5605 56.4138 47.8144 55.8641 47.2639C55.3144 46.7134 54.5688 46.4034 53.7908 46.4019H53.7906ZM53.7906 49.9274C53.6736 49.9278 53.559 49.8934 53.4615 49.8287C53.364 49.7639 53.2879 49.6717 53.2429 49.5636C53.1979 49.4556 53.186 49.3366 53.2087 49.2217C53.2315 49.1069 53.2878 49.0014 53.3705 48.9186C53.4533 48.8359 53.5588 48.7795 53.6736 48.7568C53.7884 48.734 53.9074 48.7459 54.0155 48.7909C54.1235 48.8359 54.2158 48.9119 54.2806 49.0094C54.3454 49.1069 54.3797 49.2214 54.3793 49.3385C54.3792 49.4946 54.3171 49.6442 54.2068 49.7546C54.0965 49.865 53.9468 49.9271 53.7908 49.9274H53.7906ZM52.0268 44.6382C52.026 44.0584 51.8533 43.4919 51.5306 43.0102C51.2079 42.5285 50.7496 42.1532 50.2137 41.9319C49.6778 41.7106 49.0883 41.6531 48.5197 41.7667C47.9512 41.8803 47.429 42.1599 47.0193 42.5702C46.6096 42.9805 46.3307 43.503 46.2179 44.0718C46.1051 44.6405 46.1634 45.2299 46.3855 45.7655C46.6075 46.3011 46.9834 46.7588 47.4656 47.0809C47.9477 47.4029 48.5145 47.5748 49.0943 47.5748C49.8725 47.574 50.6186 47.2642 51.1685 46.7135C51.7184 46.1629 52.027 45.4164 52.0268 44.6382ZM49.0943 45.2311C48.9774 45.2315 48.8631 45.1973 48.7656 45.1327C48.6682 45.0681 48.5921 44.9761 48.547 44.8682C48.5019 44.7604 48.4898 44.6416 48.5122 44.5269C48.5346 44.4122 48.5905 44.3067 48.6728 44.2238C48.7552 44.1408 48.8603 44.0842 48.9749 44.061C49.0894 44.0378 49.2083 44.0491 49.3164 44.0935C49.4246 44.1378 49.5171 44.2133 49.5824 44.3102C49.6476 44.4072 49.6827 44.5214 49.6831 44.6382C49.6834 44.7948 49.6216 44.9452 49.5113 45.0563C49.401 45.1674 49.2511 45.2303 49.0945 45.2311H49.0943ZM53.7906 42.8744C54.3706 42.8745 54.9377 42.7025 55.4199 42.3803C55.9022 42.058 56.2781 41.6 56.5001 41.0642C56.7221 40.5283 56.7802 39.9387 56.6671 39.3698C56.5539 38.8009 56.2746 38.2783 55.8645 37.8682C55.4544 37.458 54.9318 37.1787 54.3629 37.0656C53.7941 36.9524 53.2044 37.0105 52.6685 37.2324C52.1327 37.4544 51.6746 37.8302 51.3524 38.3125C51.0301 38.7948 50.8581 39.3618 50.8581 39.9418C50.859 40.7193 51.1683 41.4647 51.718 42.0145C52.2678 42.5643 53.0133 42.8736 53.7908 42.8744H53.7906ZM53.7906 39.3531C53.9071 39.3531 54.021 39.3876 54.1178 39.4523C54.2147 39.517 54.2902 39.6089 54.3348 39.7165C54.3794 39.8241 54.391 39.9426 54.3683 40.0568C54.3456 40.171 54.2895 40.276 54.2072 40.3583C54.1248 40.4407 54.0199 40.4968 53.9056 40.5195C53.7914 40.5422 53.673 40.5306 53.5653 40.486C53.4577 40.4414 53.3658 40.3659 53.3011 40.269C53.2364 40.1722 53.2019 40.0583 53.2019 39.9418C53.2021 39.7857 53.2642 39.636 53.3746 39.5257C53.485 39.4153 53.6347 39.3532 53.7908 39.3531H53.7906ZM73.0889 61.2887C72.9682 56.7529 71.304 51.6061 69.8358 47.065C69.3524 45.5694 68.8955 44.157 68.5119 42.8258C65.2672 32.0552 63.145 29.3809 58.3751 28.797C59.3026 25.1719 59.2702 21.3678 58.2811 17.759C57.292 14.1502 55.3804 10.8612 52.7343 8.21549C50.0121 5.49365 46.6105 3.55075 42.8831 2.58884C39.1557 1.62692 35.2386 1.68111 31.5393 2.74576C27.8399 3.81041 24.4933 5.84665 21.8474 8.64275C19.2015 11.4389 17.353 14.8927 16.4941 18.6452C15.7309 21.9913 15.7751 25.4709 16.623 28.7965C11.8539 29.3798 9.7309 32.0546 6.48232 42.8393C6.10292 44.1557 5.64736 45.5668 5.16396 47.0608C3.69589 51.6018 2.03198 56.75 1.91113 61.2866C1.76464 66.7798 3.97538 70.5091 8.4811 72.3705C10.6423 73.2374 13.0369 73.3297 15.2583 72.6317C17.6923 71.8896 19.9208 70.2932 21.7037 68.0144L27.0979 61.1091C28.2843 61.6698 29.6365 61.7707 30.893 61.3921C32.1495 61.0136 33.2209 60.1826 33.9001 59.0598H41.0998C41.7792 60.1825 42.8506 61.0136 44.107 61.3923C45.3634 61.7711 46.7157 61.6707 47.9024 61.1106L53.2997 68.0151C55.0797 70.2937 57.3071 71.8902 59.741 72.6324C60.7355 72.9371 61.7698 73.0927 62.81 73.0941C64.0811 73.0985 65.3407 72.853 66.5172 72.3715C71.0236 70.51 73.235 66.7818 73.0889 61.2887ZM19.0136 28.6559C18.6424 27.3403 18.4116 25.989 18.3251 24.6247H26.2746C26.3144 26.094 26.433 27.5602 26.6301 29.0169C25.7241 28.7526 24.7832 28.6278 23.8397 28.6465C22.0605 28.6465 19.8867 28.6482 19.0136 28.6559ZM56.6791 22.2809H48.725C48.6552 19.4359 48.2736 16.6071 47.5873 13.8452H54.1318C55.6282 16.4195 56.5005 19.3086 56.6789 22.2809H56.6791ZM46.3872 22.2809H38.6733V13.8452H45.1693C45.9097 16.5985 46.3185 19.4305 46.3869 22.2809H46.3872ZM38.6733 11.5014V4.43355C40.4614 4.9902 42.1976 6.79078 43.5679 9.56329C43.8711 10.1771 44.1496 10.8258 44.4058 11.5014H38.6733ZM36.3295 4.43238V11.5014H30.5928C30.8488 10.8258 31.1273 10.1771 31.4304 9.56344C32.8019 6.78873 34.5396 4.98727 36.3292 4.43238H36.3295ZM36.3295 13.8452V22.2809H28.6133C28.6816 19.4306 29.09 16.5986 29.8299 13.8452H36.3295ZM26.2754 22.2809H18.3193C18.4977 19.3086 19.37 16.4195 20.8664 13.8452H27.4119C26.7261 16.6072 26.3449 19.4359 26.2751 22.2809H26.2754ZM29.2507 30.5349C28.8849 28.5844 28.6724 26.6083 28.6149 24.6247H36.3295V32.1884H31.0205C30.8267 32.0057 30.6423 31.8286 30.4617 31.6555C30.042 31.2529 29.6491 30.8765 29.2504 30.5349H29.2507ZM31.7305 34.5321H43.2714V36.7071C43.2708 37.2849 43.041 37.8387 42.6325 38.2473C42.2239 38.6558 41.6701 38.8856 41.0923 38.8862H33.9052C33.328 38.885 32.7749 38.6549 32.3671 38.2464C31.9594 37.8379 31.7303 37.2843 31.7302 36.7071L31.7305 34.5321ZM44.5413 31.6549C44.3605 31.8283 44.1751 32.0056 43.9819 32.1885H38.673V24.6247H46.3854C46.3278 26.6097 46.1144 28.5872 45.7472 30.5388C45.3503 30.8785 44.9591 31.254 44.5413 31.6549ZM48.7253 24.6248H56.6727C56.5862 25.9891 56.3555 27.3404 55.9842 28.6561C55.1159 28.6484 52.9394 28.6467 51.1576 28.6467C50.2146 28.6281 49.2743 28.7534 48.3691 29.0182C48.5666 27.5611 48.6855 26.0945 48.7253 24.6247V24.6248ZM52.5292 11.5014H46.894C46.5503 10.4837 46.1408 9.48946 45.6682 8.52486C45.1001 7.35015 44.3999 6.24407 43.5811 5.22809C46.4074 6.17104 48.9742 7.76154 51.0767 9.87267C51.5908 10.3881 52.0757 10.9319 52.5292 11.5014ZM31.4163 5.22809C30.5975 6.24415 29.8973 7.35027 29.3292 8.52501C28.8566 9.48953 28.4473 10.4838 28.1039 11.5014H22.4682C22.9217 10.9319 23.4067 10.3881 23.9208 9.87267C26.0233 7.76158 28.59 6.17109 31.4163 5.22809ZM29.3626 59.2742C28.7754 59.2751 28.2011 59.1017 27.7125 58.7761C27.2238 58.4505 26.8427 57.9872 26.6174 57.4449C26.3921 56.9027 26.3327 56.3058 26.4468 55.7297C26.5608 55.1537 26.8432 54.6244 27.2581 54.2089C27.673 53.7934 28.2019 53.5103 28.7777 53.3954C29.3536 53.2806 29.9506 53.3391 30.4932 53.5636C31.0358 53.7881 31.4996 54.1686 31.8259 54.6568C32.1522 55.1449 32.3264 55.7189 32.3264 56.3062C32.3255 57.0923 32.0131 57.8461 31.4576 58.4024C30.9021 58.9587 30.1488 59.2722 29.3626 59.2742ZM42.6717 56.3062C42.6721 55.7197 42.8464 55.1465 43.1724 54.6591C43.4985 54.1717 43.9618 53.7918 44.5036 53.5676C45.0455 53.3433 45.6417 53.2848 46.2169 53.3993C46.792 53.5138 47.3203 53.7962 47.735 54.2109C48.1497 54.6256 48.4322 55.1539 48.5467 55.7291C48.6612 56.3042 48.6026 56.9004 48.3784 57.4423C48.1541 57.9842 47.7743 58.4474 47.2868 58.7735C46.7994 59.0996 46.2262 59.2738 45.6398 59.2742C44.8529 59.2733 44.0985 58.9603 43.542 58.4039C42.9856 57.8475 42.6726 57.0931 42.6717 56.3062ZM65.6214 70.205C62.115 71.6552 58.0031 70.2291 55.1459 66.5722L49.7475 59.6658C50.2864 59.0072 50.659 58.2288 50.8341 57.3961C51.0093 56.5634 50.9817 55.7008 50.7537 54.881C50.5258 54.0612 50.1041 53.3082 49.5243 52.6854C48.9445 52.0626 48.2234 51.5883 47.422 51.3024C46.6205 51.0165 45.7621 50.9275 44.919 51.0427C44.0759 51.158 43.2729 51.4742 42.5776 51.9647C41.8823 52.4552 41.315 53.1056 40.9236 53.8611C40.5322 54.6167 40.3281 55.4552 40.3286 56.3062C40.3286 56.4444 40.3356 56.581 40.346 56.7163H34.6527C34.6631 56.5808 34.6702 56.4443 34.6702 56.3062C34.6707 55.4552 34.4667 54.6165 34.0754 53.8609C33.684 53.1052 33.1168 52.4547 32.4214 51.9641C31.7261 51.4735 30.923 51.1572 30.0799 51.0419C29.2367 50.9266 28.3782 51.0156 27.5767 51.3015C26.7752 51.5874 26.0541 52.0617 25.4742 52.6846C24.8943 53.3074 24.4726 54.0605 24.2447 54.8804C24.0167 55.7003 23.9892 56.5629 24.1643 57.3957C24.3395 58.2285 24.7123 59.0069 25.2512 59.6655L19.8563 66.5714C16.9959 70.2286 12.8824 71.6544 9.37612 70.2042C1.8329 67.0895 3.90331 58.5809 7.39404 47.7828C7.88285 46.2705 8.34457 44.842 8.73041 43.5028C12.284 31.7063 13.9768 31.1103 18.7873 31.0032C19.2142 30.9954 21.0086 30.991 23.8398 30.991C26.3827 30.991 27.1524 31.7296 28.8392 33.3477C29.015 33.5167 29.1966 33.6901 29.3865 33.8696V36.7071C29.3874 37.9057 29.8636 39.0549 30.7108 39.9028C31.5579 40.7507 32.7067 41.228 33.9052 41.23H41.0929C42.2919 41.2285 43.4414 40.7515 44.2892 39.9036C45.137 39.0557 45.6138 37.9062 45.6152 36.7071V33.8689C45.8056 33.6891 45.9868 33.5154 46.1632 33.3461C47.8494 31.7286 48.6188 30.9903 51.1583 30.9903C53.9897 30.9903 55.784 30.9947 56.2066 31.0025C61.0215 31.1091 62.7142 31.7056 66.2639 43.4885C66.654 44.8426 67.1165 46.2717 67.6059 47.7862C71.0966 58.5828 73.1671 67.0895 65.6214 70.205ZM24.1429 41.7056H23.2595V40.8222C23.2595 40.0444 22.9505 39.2986 22.4006 38.7486C21.8506 38.1987 21.1047 37.8897 20.327 37.8897C19.5493 37.8897 18.8034 38.1987 18.2534 38.7486C17.7035 39.2986 17.3945 40.0444 17.3945 40.8222V41.7056H16.5109C15.7368 41.7111 14.9962 42.0225 14.4507 42.5718C13.9052 43.1212 13.599 43.864 13.599 44.6382C13.599 45.4124 13.9052 46.1551 14.4507 46.7045C14.9962 47.2539 15.7368 47.5652 16.5109 47.5707H17.3945V48.4583C17.3945 49.236 17.7035 49.9819 18.2534 50.5318C18.8034 51.0818 19.5493 51.3907 20.327 51.3907C21.1047 51.3907 21.8506 51.0818 22.4006 50.5318C22.9505 49.9819 23.2595 49.236 23.2595 48.4583V47.5707H24.1429C24.5298 47.5734 24.9133 47.4996 25.2715 47.3535C25.6297 47.2073 25.9555 46.9917 26.23 46.7192C26.5045 46.4466 26.7224 46.1224 26.871 45.7652C27.0197 45.4081 27.0963 45.025 27.0963 44.6382C27.0963 44.2513 27.0197 43.8683 26.871 43.5111C26.7224 43.154 26.5045 42.8298 26.23 42.5572C25.9555 42.2846 25.6297 42.069 25.2715 41.9229C24.9133 41.7767 24.5298 41.7029 24.1429 41.7056ZM24.1429 45.227H22.0876C21.7768 45.227 21.4787 45.3504 21.2589 45.5702C21.0392 45.79 20.9157 46.088 20.9157 46.3988V48.4583C20.9157 48.6144 20.8537 48.7641 20.7433 48.8745C20.6329 48.985 20.4831 49.047 20.327 49.047C20.1709 49.047 20.0211 48.985 19.9107 48.8745C19.8003 48.7641 19.7383 48.6144 19.7383 48.4583V46.3988C19.7383 46.088 19.6148 45.79 19.395 45.5702C19.1753 45.3504 18.8772 45.227 18.5664 45.227H16.5109C16.4334 45.2278 16.3565 45.2131 16.2847 45.1838C16.2129 45.1545 16.1477 45.1112 16.0929 45.0564C16.038 45.0015 15.9947 44.9363 15.9654 44.8645C15.9362 44.7927 15.9215 44.7158 15.9224 44.6382C15.9225 44.4822 15.9845 44.3325 16.0949 44.2221C16.2052 44.1117 16.3548 44.0496 16.5109 44.0494H18.5664C18.8772 44.0494 19.1753 43.9259 19.395 43.7061C19.6148 43.4864 19.7383 43.1883 19.7383 42.8775V40.8222C19.7383 40.666 19.8003 40.5163 19.9107 40.4059C20.0211 40.2955 20.1709 40.2335 20.327 40.2335C20.4831 40.2335 20.6329 40.2955 20.7433 40.4059C20.8537 40.5163 20.9157 40.666 20.9157 40.8222V42.8775C20.9157 43.1883 21.0392 43.4864 21.2589 43.7061C21.4787 43.9259 21.7768 44.0494 22.0876 44.0494H24.1429C24.2975 44.0518 24.4449 44.1149 24.5533 44.2251C24.6617 44.3352 24.7225 44.4836 24.7225 44.6382C24.7225 44.7927 24.6617 44.9411 24.5533 45.0513C24.4449 45.1614 24.2975 45.2245 24.1429 45.227Z" fill="white"/>
</svg>
