<svg width="28" height="28" viewBox="0 0 28 28" fill="none" xmlns="http://www.w3.org/2000/svg">
<g clip-path="url(#clip0_1307_20502)">
<path d="M0.0150318 17.5229C0.0847836 15.9187 0.363783 14.14 0.782286 12.466C1.20079 10.8618 1.72392 9.36214 2.35167 8.21126C4.79293 3.92161 7.44345 4.58423 10.6171 5.42124C11.6285 5.66537 12.7096 5.94437 13.8256 6.04899H14.1744C15.2904 5.94437 16.3715 5.66537 17.3829 5.42124C20.5565 4.61911 23.207 3.92161 25.6483 8.24613C26.2761 9.39701 26.8341 10.8966 27.2177 12.5009C27.6362 14.1749 27.9152 15.9536 27.985 17.5578C28.0547 19.3365 27.8803 20.6268 27.4967 21.5336C27.1131 22.3706 26.5551 22.8937 25.8227 23.103C25.1601 23.2773 24.3928 23.2076 23.5907 22.8588C22.2305 22.3008 20.6612 21.1151 19.1266 19.6852C18.0455 18.6389 16.0228 18.1158 14 18.1158C11.9772 18.1158 9.95447 18.6389 8.87333 19.6852C7.33883 21.1151 5.76944 22.3008 4.40931 22.8588C3.60718 23.1727 2.83992 23.2773 2.17729 23.103C1.47979 22.8937 0.886913 22.4055 0.503286 21.4987C0.119659 20.6268 -0.054718 19.3365 0.0150318 17.5229ZM1.68904 21.0105C1.89829 21.4987 2.17729 21.7777 2.52605 21.8823C2.90967 21.987 3.39793 21.9172 3.95593 21.708C5.17656 21.2197 6.60645 20.1386 8.00145 18.8133C9.32671 17.4881 11.6634 16.8254 14 16.8254C16.3366 16.8254 18.6733 17.4881 20.0334 18.7436C21.4633 20.0688 22.8932 21.1848 24.0789 21.6382C24.6369 21.8475 25.1252 21.9521 25.5088 21.8126C25.8576 21.708 26.1366 21.429 26.3458 20.9407C26.6248 20.2781 26.7643 19.197 26.6946 17.5927C26.6248 16.0931 26.3807 14.3842 25.9622 12.7799C25.5786 11.2803 25.0903 9.88527 24.4974 8.83901C22.5793 5.38636 20.3473 5.94437 17.6968 6.64187C16.6156 6.92087 15.4996 7.19988 14.279 7.3045C14.2441 7.3045 14.2441 7.3045 14.2092 7.3045H13.8256C13.7907 7.3045 13.7907 7.3045 13.7559 7.3045C12.5004 7.19988 11.3843 6.92087 10.3032 6.64187C7.6527 5.97924 5.42069 5.38636 3.50255 8.83901C2.90968 9.88527 2.42142 11.2454 2.03779 12.7799C1.65417 14.3842 1.37516 16.0582 1.30541 17.5927C1.23566 19.197 1.37516 20.2781 1.68904 21.0105Z" fill="white"/>
<path d="M17.2085 10.7225C17.5573 10.4086 17.9758 10.1645 18.464 10.1296C18.4989 9.67626 18.7082 9.22288 19.022 8.909L19.0569 8.87413C19.4405 8.4905 19.9288 8.28125 20.4868 8.28125C21.0448 8.28125 21.5679 8.52538 21.9167 8.87413C22.2306 9.18801 22.4747 9.64138 22.5096 10.1296C22.9978 10.1645 23.4163 10.3738 23.7651 10.6876L23.7999 10.7225C24.1836 11.1061 24.3928 11.5944 24.3928 12.1524C24.3928 12.7104 24.1487 13.2335 23.7999 13.5823C23.4512 13.931 23.0327 14.1403 22.5096 14.1752C22.4747 14.6634 22.2654 15.1168 21.9167 15.4307C21.5331 15.8143 21.0448 16.0235 20.4868 16.0235C19.9288 16.0235 19.4057 15.7794 19.0569 15.4307C18.743 15.0819 18.4989 14.6634 18.464 14.1752C17.9758 14.1403 17.5224 13.931 17.2085 13.5823C16.8249 13.1987 16.6156 12.7104 16.6156 12.1524C16.6156 11.5944 16.8598 11.0713 17.2085 10.7225ZM18.0804 12.6755C18.2199 12.815 18.3943 12.8848 18.6035 12.8848H19.0918C19.4405 12.8848 19.7544 13.1638 19.7544 13.5474V14.0008C19.7544 14.21 19.8242 14.3844 19.9637 14.5239C20.1032 14.6634 20.2775 14.7332 20.4868 14.7332C20.696 14.7332 20.8704 14.6634 21.0099 14.5239C21.1494 14.3844 21.2192 14.21 21.2192 14.0008V13.5125C21.2192 13.1638 21.4982 12.8499 21.8818 12.8499H22.3701C22.5793 12.8499 22.7537 12.7802 22.8932 12.6407C22.9978 12.536 23.1024 12.3616 23.1024 12.1524C23.1024 11.9431 23.0327 11.7688 22.8932 11.6293C22.8932 11.6293 22.8932 11.6293 22.8583 11.5944C22.7188 11.4898 22.5444 11.42 22.3701 11.42H21.8818C21.5331 11.42 21.2192 11.141 21.2192 10.7574V10.2691C21.2192 10.0599 21.1494 9.88551 21.0099 9.74601C20.8704 9.60651 20.696 9.53676 20.4868 9.53676C20.2775 9.53676 20.1032 9.60651 19.9637 9.74601C19.9637 9.74601 19.9637 9.74601 19.9288 9.78088C19.8242 9.92038 19.7544 10.0948 19.7544 10.2691V10.7574C19.7544 11.1061 19.4754 11.42 19.0918 11.42H18.6035C18.3943 11.42 18.2199 11.4898 18.0804 11.6293C17.9409 11.7688 17.8712 11.9431 17.8712 12.1524C17.8712 12.3616 17.9409 12.536 18.0804 12.6755Z" fill="white"/>
<path d="M7.93171 10.8973C7.25757 10.8973 6.71108 10.3508 6.71108 9.67669C6.71108 9.00255 7.25757 8.45605 7.93171 8.45605C8.60585 8.45605 9.15234 9.00255 9.15234 9.67669C9.15234 10.3508 8.60585 10.8973 7.93171 10.8973Z" fill="white"/>
<path d="M7.93171 15.8495C7.25757 15.8495 6.71108 15.303 6.71108 14.6288C6.71108 13.9547 7.25757 13.4082 7.93171 13.4082C8.60585 13.4082 9.15234 13.9547 9.15234 14.6288C9.15234 15.303 8.60585 15.8495 7.93171 15.8495Z" fill="white"/>
<path d="M10.4078 13.3729C9.73365 13.3729 9.18715 12.8264 9.18715 12.1523C9.18715 11.4781 9.73365 10.9316 10.4078 10.9316C11.0819 10.9316 11.6284 11.4781 11.6284 12.1523C11.6284 12.8264 11.0819 13.3729 10.4078 13.3729Z" fill="white"/>
<path d="M5.45551 13.3729C4.78138 13.3729 4.23488 12.8264 4.23488 12.1523C4.23488 11.4781 4.78138 10.9316 5.45551 10.9316C6.12965 10.9316 6.67615 11.4781 6.67615 12.1523C6.67615 12.8264 6.12965 13.3729 5.45551 13.3729Z" fill="white"/>
</g>
<defs>
<clipPath id="clip0_1307_20502">
<rect width="28" height="28" fill="white" transform="matrix(-1 0 0 1 28 0)"/>
</clipPath>
</defs>
</svg>
