<svg width="69" height="69" viewBox="0 0 69 69" fill="none" xmlns="http://www.w3.org/2000/svg">
<g clip-path="url(#clip0_1293_18392)">
<path d="M60.4193 22.3144C60.1953 22.2343 60.0354 22.0373 59.9907 21.8036C58.087 11.8417 49.3292 4.3125 38.8125 4.3125C31.5805 4.3125 25.1805 7.87314 21.2689 13.3367C21.0889 13.5881 20.7598 13.6756 20.4729 13.56C19.4771 13.1585 18.3894 12.9375 17.25 12.9375C12.4865 12.9375 8.62497 16.7991 8.62497 21.5625C8.62497 21.6439 8.62618 21.7252 8.62833 21.806C8.63629 22.0905 8.47093 22.3509 8.20611 22.4551C3.43002 24.3326 0.0407994 28.9687 0.000234957 34.4014C-0.053267 41.571 5.91348 47.4375 13.0834 47.4375H55.9198C63.0584 47.4375 68.9583 41.7152 68.9997 34.5767C69.0324 28.9269 65.4438 24.1111 60.4193 22.3144Z" fill="#F2FBFF"/>
<path d="M59.9908 21.8034C58.5142 14.0764 52.914 7.81307 45.5678 5.3916C49.4648 8.10578 52.4234 12.0737 53.8596 16.7108C54.3553 18.3114 55.4567 19.6479 56.9122 20.4785C60.8362 22.7177 63.4746 26.9517 63.4466 31.7996C63.4052 38.9383 57.5053 44.6604 50.3666 44.6604H7.55726C6.50205 44.6604 5.56893 44.5328 4.57935 44.2921C6.84691 46.2517 9.70529 47.4371 12.9375 47.4371H55.9198C63.0585 47.4371 68.9584 41.7148 68.9997 34.5763C69.0325 28.9267 65.4437 24.1108 60.4192 22.3141C60.1954 22.2339 60.0354 22.037 59.9908 21.8034Z" fill="#DFF6FD"/>
<path d="M50.6719 24.7969H18.3281C11.7784 24.7969 6.46875 30.1065 6.46875 36.6562V57.482C6.46875 61.4615 9.69477 64.6875 13.6741 64.6875C17.0294 64.6875 19.9406 62.3716 20.695 59.1023L22.3931 51.7441C22.8293 49.8543 24.5121 48.5156 26.4515 48.5156H42.5485C44.4879 48.5156 46.1707 49.8543 46.6068 51.7441L48.3049 59.1023C49.0593 62.3716 51.9705 64.6875 55.3257 64.6875C59.3052 64.6875 62.5312 61.4615 62.5312 57.482V36.6562C62.5312 30.1065 57.2216 24.7969 50.6719 24.7969Z" fill="#FFC344"/>
<path d="M36.0247 37.3465C35.7583 37.3465 35.4917 37.2447 35.2885 37.0415C34.8537 36.6069 34.1463 36.6069 33.7116 37.0415C33.305 37.4481 32.6457 37.4481 32.239 37.0415C31.8323 36.6349 31.8323 35.9757 32.239 35.5689C33.4857 34.3221 35.5143 34.3221 36.7609 35.5689C37.1677 35.9755 37.1677 36.6348 36.7609 37.0415C36.5577 37.2447 36.2911 37.3465 36.0247 37.3465Z" fill="#FEB237"/>
<path d="M38.8125 34.5579C38.5461 34.5579 38.2795 34.4562 38.0763 34.253C36.1043 32.2811 32.8958 32.2811 30.9239 34.253C30.5173 34.6595 29.858 34.6595 29.4513 34.253C29.0446 33.8464 29.0446 33.1871 29.4513 32.7804C32.2351 29.9964 36.765 29.9964 39.5489 32.7804C39.9556 33.187 39.9556 33.8462 39.5489 34.253C39.3455 34.4562 39.0789 34.5579 38.8125 34.5579Z" fill="#FEB237"/>
<path d="M53.0107 25.0273C55.4451 27.1992 56.978 30.3603 56.978 33.8794V54.7053C56.978 58.6848 53.7519 61.9108 49.7724 61.9108C49.7284 61.9108 49.6844 61.9103 49.6405 61.9095C50.9731 63.6191 53.047 64.6874 55.3257 64.6874C59.3052 64.6874 62.5312 61.4614 62.5312 57.4819V36.6561C62.5312 30.907 58.4403 26.1134 53.0107 25.0273Z" fill="#FEB237"/>
<path d="M36.9951 45.7393H20.8982C18.9588 45.7393 17.276 47.0779 16.8399 48.9677L15.1418 56.3259C14.3874 59.5952 11.4762 61.9111 8.12092 61.9111C8.07699 61.9111 8.03306 61.9107 7.98926 61.9099C9.30767 63.6007 11.3639 64.6878 13.6741 64.6878C17.0293 64.6878 19.9405 62.3719 20.695 59.1026L22.393 51.7444C22.8292 49.8546 24.5121 48.516 26.4515 48.516H40.9221C40.3406 46.8682 38.7761 45.7393 36.9951 45.7393Z" fill="#FEB237"/>
<path d="M50.6719 34.5C51.8627 34.5 52.8281 33.5346 52.8281 32.3438C52.8281 31.1529 51.8627 30.1875 50.6719 30.1875C49.481 30.1875 48.5156 31.1529 48.5156 32.3438C48.5156 33.5346 49.481 34.5 50.6719 34.5Z" fill="#01C0FA"/>
<path d="M50.6719 45.2812C51.8627 45.2812 52.8281 44.3159 52.8281 43.125C52.8281 41.9341 51.8627 40.9688 50.6719 40.9688C49.481 40.9688 48.5156 41.9341 48.5156 43.125C48.5156 44.3159 49.481 45.2812 50.6719 45.2812Z" fill="#E53950"/>
<path d="M56.0625 39.8906C57.2534 39.8906 58.2188 38.9252 58.2188 37.7344C58.2188 36.5435 57.2534 35.5781 56.0625 35.5781C54.8716 35.5781 53.9062 36.5435 53.9062 37.7344C53.9062 38.9252 54.8716 39.8906 56.0625 39.8906Z" fill="#80D261"/>
<path d="M58.2187 37.7341C58.2187 36.8706 57.711 36.1256 56.9779 35.7812V39.6869C57.711 39.3427 58.2187 38.5977 58.2187 37.7341Z" fill="#68CA44"/>
<path d="M45.2812 39.8906C46.4721 39.8906 47.4375 38.9252 47.4375 37.7344C47.4375 36.5435 46.4721 35.5781 45.2812 35.5781C44.0904 35.5781 43.125 36.5435 43.125 37.7344C43.125 38.9252 44.0904 39.8906 45.2812 39.8906Z" fill="#FD6930"/>
<path d="M23.7188 35.5781H21.5256C20.9505 35.5781 20.4844 35.112 20.4844 34.5369V32.3438C20.4844 31.1528 19.519 30.1875 18.3281 30.1875C17.1372 30.1875 16.1719 31.1528 16.1719 32.3438V34.5369C16.1719 35.112 15.7057 35.5781 15.1307 35.5781H12.9375C11.7466 35.5781 10.7812 36.5435 10.7812 37.7344C10.7812 38.9253 11.7466 39.8906 12.9375 39.8906H15.1307C15.7057 39.8906 16.1719 40.3568 16.1719 40.9318V43.125C16.1719 44.3159 17.1372 45.2812 18.3281 45.2812C19.519 45.2812 20.4844 44.3159 20.4844 43.125V40.9318C20.4844 40.3568 20.9505 39.8906 21.5256 39.8906H23.7188C24.9097 39.8906 25.875 38.9253 25.875 37.7344C25.875 36.5435 24.9095 35.5781 23.7188 35.5781Z" fill="#0055A3"/>
<path d="M28.0312 53.9062C30.413 53.9062 32.3438 51.9755 32.3438 49.5938C32.3438 47.212 30.413 45.2812 28.0312 45.2812C25.6495 45.2812 23.7188 47.212 23.7188 49.5938C23.7188 51.9755 25.6495 53.9062 28.0312 53.9062Z" fill="#0055A3"/>
<path d="M40.9688 53.9062C43.3505 53.9062 45.2812 51.9755 45.2812 49.5938C45.2812 47.212 43.3505 45.2812 40.9688 45.2812C38.587 45.2812 36.6562 47.212 36.6562 49.5938C36.6562 51.9755 38.587 53.9062 40.9688 53.9062Z" fill="#0055A3"/>
<path d="M32.3438 41.9795H30.1875C29.6293 41.9795 29.1768 41.5269 29.1768 40.9688C29.1768 40.4106 29.6293 39.958 30.1875 39.958H32.3438C32.9019 39.958 33.3545 40.4106 33.3545 40.9688C33.3545 41.5269 32.9019 41.9795 32.3438 41.9795Z" fill="#0055A3"/>
<path d="M38.8125 41.9795H36.6562C36.0981 41.9795 35.6455 41.5269 35.6455 40.9688C35.6455 40.4106 36.0981 39.958 36.6562 39.958H38.8125C39.3707 39.958 39.8232 40.4106 39.8232 40.9688C39.8232 41.5269 39.3707 41.9795 38.8125 41.9795Z" fill="#0055A3"/>
<path d="M36.0247 35.5115C35.766 35.5115 35.5073 35.4129 35.3099 35.2155C35.0936 34.9992 34.806 34.8799 34.4999 34.8799C34.1939 34.8799 33.9063 34.999 33.69 35.2155C33.2951 35.6102 32.6554 35.6102 32.2605 35.2155C31.8658 34.8207 31.8658 34.1807 32.2605 33.786C32.8586 33.1879 33.654 32.8584 34.4999 32.8584C35.3458 32.8584 36.1412 33.1879 36.7393 33.786C37.1341 34.1807 37.1339 34.8207 36.7393 35.2155C36.542 35.4129 36.2833 35.5115 36.0247 35.5115Z" fill="#0055A3"/>
<path d="M38.8125 32.7232C38.5539 32.7232 38.2951 32.6246 38.0978 32.4272C36.1139 30.4434 32.886 30.4434 30.9021 32.4272C30.5074 32.8219 29.8674 32.8219 29.4728 32.4272C29.0781 32.0324 29.0781 31.3924 29.4728 30.9978C32.2448 28.226 36.7551 28.226 39.5271 30.9978C39.9219 31.3926 39.9219 32.0324 39.5271 32.4272C39.3298 32.6246 39.0711 32.7232 38.8125 32.7232Z" fill="#0055A3"/>
</g>
<defs>
<clipPath id="clip0_1293_18392">
<rect width="69" height="69" fill="white"/>
</clipPath>
</defs>
</svg>
