<svg width="73" height="73" viewBox="0 0 73 73" fill="none" xmlns="http://www.w3.org/2000/svg">
<g clip-path="url(#clip0_1301_20294)">
<path d="M62.3542 51.7083C61.4417 51.7083 60.8333 52.3167 60.8333 53.2292C60.8333 54.1417 61.4417 54.75 62.3542 54.75C63.2667 54.75 63.875 54.1417 63.875 53.2292C63.875 52.3167 63.2667 51.7083 62.3542 51.7083ZM59.3125 54.75C58.4 54.75 57.7917 55.3583 57.7917 56.2708C57.7917 57.1833 58.4 57.7917 59.3125 57.7917C60.225 57.7917 60.8333 57.1833 60.8333 56.2708C60.8333 55.3583 60.225 54.75 59.3125 54.75ZM56.2708 42.5833H44.1042C31.3292 42.5833 27.375 57.1833 27.375 62.3542C27.375 69.35 29.5042 73 33.4583 73C39.8458 73 42.8875 67.2208 43.8 65.0917C44.7125 64.7875 47.45 63.875 50.1875 63.875C52.925 63.875 55.6625 64.7875 56.575 65.0917C57.4875 67.2208 60.5292 73 66.9167 73C70.8708 73 73 69.35 73 62.3542C73 57.1833 69.0458 42.5833 56.2708 42.5833ZM66.9167 69.9583C61.7458 69.9583 59.3125 63.5708 59.3125 63.2667C59.3125 62.9625 59.0083 62.6583 58.4 62.3542C58.4 62.3542 54.75 60.8333 50.1875 60.8333C45.625 60.8333 41.975 62.3542 41.975 62.3542C41.6708 62.6583 41.3667 62.9625 41.0625 63.2667C41.0625 63.2667 38.6292 69.9583 33.4583 69.9583C32.85 69.9583 30.4167 69.9583 30.4167 62.3542C30.4167 59.6167 32.85 45.625 44.1042 45.625H56.2708C67.525 45.625 69.9583 59.6167 69.9583 62.3542C69.9583 69.9583 67.525 69.9583 66.9167 69.9583ZM44.1042 51.7083H42.5833V50.1875C42.5833 49.275 41.975 48.6667 41.0625 48.6667C40.15 48.6667 39.5417 49.275 39.5417 50.1875V51.7083H38.0208C37.1083 51.7083 36.5 52.3167 36.5 53.2292C36.5 54.1417 37.1083 54.75 38.0208 54.75H39.5417V56.2708C39.5417 57.1833 40.15 57.7917 41.0625 57.7917C41.975 57.7917 42.5833 57.1833 42.5833 56.2708V54.75H44.1042C45.0167 54.75 45.625 54.1417 45.625 53.2292C45.625 52.3167 45.0167 51.7083 44.1042 51.7083ZM45.625 38.0208V31.9375C45.625 31.025 45.0167 30.4167 44.1042 30.4167C43.1917 30.4167 42.5833 31.025 42.5833 31.9375V38.0208C42.5833 38.9333 43.1917 39.5417 44.1042 39.5417C45.0167 39.5417 45.625 38.9333 45.625 38.0208ZM25.8542 48.6667C24.9417 48.6667 24.3333 49.275 24.3333 50.1875V50.4917C24.3333 51.1 24.6375 51.4042 24.9417 51.7083H24.6375H22.8125C21.9 51.7083 21.2917 52.3167 21.2917 53.2292V54.75H7.60417C6.69167 54.75 6.08333 55.3583 6.08333 56.2708C6.08333 57.1833 6.69167 57.7917 7.60417 57.7917H21.2917V59.3125C21.2917 60.225 22.2042 60.8333 23.1167 60.8333C24.0292 60.8333 24.3333 60.225 24.3333 59.3125C24.3333 59.0083 24.3333 59.0083 24.3333 58.7042V54.75H24.6375C25.55 54.75 26.1583 54.1417 26.1583 53.2292C26.1583 52.6208 25.8542 52.3167 25.55 52.0125H25.8542C26.7667 52.0125 27.375 51.4042 27.375 50.7958C27.375 50.4917 27.375 50.4917 27.375 50.1875C27.375 49.275 26.7667 48.6667 25.8542 48.6667ZM56.2708 51.7083C55.3583 51.7083 54.75 52.3167 54.75 53.2292C54.75 54.1417 55.3583 54.75 56.2708 54.75C57.1833 54.75 57.7917 54.1417 57.7917 53.2292C57.7917 52.3167 57.1833 51.7083 56.2708 51.7083ZM59.3125 51.7083C60.225 51.7083 60.8333 51.1 60.8333 50.1875C60.8333 49.275 60.225 48.6667 59.3125 48.6667C58.4 48.6667 57.7917 49.275 57.7917 50.1875C57.7917 51.1 58.4 51.7083 59.3125 51.7083ZM56.2708 6.08333C55.3583 6.08333 54.75 6.69167 54.75 7.60417V13.6875C54.75 14.6 55.3583 15.2083 56.2708 15.2083C57.1833 15.2083 57.7917 14.6 57.7917 13.6875V7.60417C57.7917 6.69167 57.1833 6.08333 56.2708 6.08333ZM65.3958 21.2917C69.6542 21.2917 73 17.9458 73 13.6875V7.60417C73 3.34583 69.6542 0 65.3958 0H7.60417C3.34583 0 0 3.34583 0 7.60417V13.6875C0 17.9458 3.34583 21.2917 7.60417 21.2917H27.375V24.3333H7.60417C3.34583 24.3333 0 27.6792 0 31.9375V38.0208C0 42.2792 3.34583 45.625 7.60417 45.625H30.1125C31.025 45.625 31.6333 45.0167 31.6333 44.1042C31.6333 43.1917 31.025 42.5833 30.1125 42.5833H7.60417C5.17083 42.5833 3.04167 40.4542 3.04167 38.0208V31.9375C3.04167 29.5042 5.17083 27.375 7.60417 27.375H65.3958C67.8292 27.375 69.9583 29.5042 69.9583 31.9375V38.0208C69.9583 39.5417 69.35 40.7583 68.1333 41.6708C67.525 42.2792 67.2208 43.1917 67.8292 43.8C68.4375 44.4083 69.35 44.7125 69.9583 44.1042C71.7833 42.5833 73 40.4542 73 38.0208V31.9375C73 27.6792 69.6542 24.3333 65.3958 24.3333H30.4167V21.2917H65.3958ZM7.60417 18.25C5.17083 18.25 3.04167 16.1208 3.04167 13.6875V7.60417C3.04167 5.17083 5.17083 3.04167 7.60417 3.04167H65.3958C67.8292 3.04167 69.9583 5.17083 69.9583 7.60417V13.6875C69.9583 16.1208 67.8292 18.25 65.3958 18.25H7.60417ZM51.7083 38.0208V31.9375C51.7083 31.025 51.1 30.4167 50.1875 30.4167C49.275 30.4167 48.6667 31.025 48.6667 31.9375V38.0208C48.6667 38.9333 49.275 39.5417 50.1875 39.5417C51.1 39.5417 51.7083 38.9333 51.7083 38.0208ZM50.1875 6.08333C49.275 6.08333 48.6667 6.69167 48.6667 7.60417V13.6875C48.6667 14.6 49.275 15.2083 50.1875 15.2083C51.1 15.2083 51.7083 14.6 51.7083 13.6875V7.60417C51.7083 6.69167 51.1 6.08333 50.1875 6.08333ZM6.08333 34.9792C6.08333 37.4125 8.2125 39.5417 10.6458 39.5417C13.0792 39.5417 15.2083 37.4125 15.2083 34.9792C15.2083 32.5458 13.0792 30.4167 10.6458 30.4167C8.2125 30.4167 6.08333 32.5458 6.08333 34.9792ZM12.1667 34.9792C12.1667 35.8917 11.5583 36.5 10.6458 36.5C9.73333 36.5 9.125 35.8917 9.125 34.9792C9.125 34.0667 9.73333 33.4583 10.6458 33.4583C11.5583 33.4583 12.1667 34.0667 12.1667 34.9792ZM62.3542 6.08333C61.4417 6.08333 60.8333 6.69167 60.8333 7.60417V13.6875C60.8333 14.6 61.4417 15.2083 62.3542 15.2083C63.2667 15.2083 63.875 14.6 63.875 13.6875V7.60417C63.875 6.69167 63.2667 6.08333 62.3542 6.08333ZM57.7917 38.0208V31.9375C57.7917 31.025 57.1833 30.4167 56.2708 30.4167C55.3583 30.4167 54.75 31.025 54.75 31.9375V38.0208C54.75 38.9333 55.3583 39.5417 56.2708 39.5417C57.1833 39.5417 57.7917 38.9333 57.7917 38.0208ZM63.875 38.0208V31.9375C63.875 31.025 63.2667 30.4167 62.3542 30.4167C61.4417 30.4167 60.8333 31.025 60.8333 31.9375V38.0208C60.8333 38.9333 61.4417 39.5417 62.3542 39.5417C63.2667 39.5417 63.875 38.9333 63.875 38.0208ZM10.6458 6.08333C8.2125 6.08333 6.08333 8.2125 6.08333 10.6458C6.08333 13.0792 8.2125 15.2083 10.6458 15.2083C13.0792 15.2083 15.2083 13.0792 15.2083 10.6458C15.2083 8.2125 13.0792 6.08333 10.6458 6.08333ZM10.6458 12.1667C9.73333 12.1667 9.125 11.5583 9.125 10.6458C9.125 9.73333 9.73333 9.125 10.6458 9.125C11.5583 9.125 12.1667 9.73333 12.1667 10.6458C12.1667 11.5583 11.5583 12.1667 10.6458 12.1667ZM44.1042 6.08333C43.1917 6.08333 42.5833 6.69167 42.5833 7.60417V13.6875C42.5833 14.6 43.1917 15.2083 44.1042 15.2083C45.0167 15.2083 45.625 14.6 45.625 13.6875V7.60417C45.625 6.69167 45.0167 6.08333 44.1042 6.08333Z" fill="white"/>
</g>
<defs>
<clipPath id="clip0_1301_20294">
<rect width="73" height="73" fill="white"/>
</clipPath>
</defs>
</svg>
