<svg width="44" height="50" viewBox="0 0 44 50" fill="none" xmlns="http://www.w3.org/2000/svg">
<path d="M35.2929 20.9899C35.2929 13.5758 29.2581 7.55176 21.8547 7.55176C14.4513 7.55176 8.4165 13.5758 8.4165 20.9899C8.4165 28.3933 14.4405 34.4281 21.8547 34.4281C29.2689 34.4281 35.2929 28.3933 35.2929 20.9899ZM21.8547 32.6931C15.3996 32.6931 10.1407 27.445 10.1407 20.9792C10.1407 14.5133 15.3996 9.27598 21.8547 9.27598C28.3098 9.27598 33.5686 14.5241 33.5686 20.9899C33.5686 27.4558 28.3098 32.6931 21.8547 32.6931Z" fill="white"/>
<path d="M38.3209 34.8915C38.8058 34.6436 39.2369 34.3203 39.571 33.8677C40.4439 32.6715 40.2391 31.109 40.0451 29.5895C39.9158 28.6088 39.7865 27.5851 40.0128 26.8954C40.2176 26.2488 40.9072 25.5268 41.5646 24.8371C42.5884 23.7594 43.7414 22.5417 43.7414 21.0007C43.7414 19.4597 42.5991 18.2204 41.5754 17.1427C40.918 16.4423 40.2283 15.731 40.0236 15.0844C39.7973 14.3948 39.9266 13.371 40.0559 12.3903C40.2499 10.8709 40.4439 9.30829 39.5817 8.11211C38.7089 6.90515 37.1463 6.61419 35.6376 6.32322C34.6677 6.14002 33.6655 5.95683 33.0943 5.53655C32.5232 5.12704 32.049 4.24338 31.5857 3.38126C30.8852 2.08809 30.077 0.622504 28.6437 0.148342C27.2643 -0.304267 25.8526 0.36387 24.484 1.01045C23.568 1.44151 22.6305 1.88334 21.8761 1.88334C21.1218 1.88334 20.1842 1.44151 19.2682 1.01045C17.8996 0.36387 16.4879 -0.304267 15.1085 0.148342C13.6645 0.611727 12.9101 2.02344 12.1666 3.38126C11.7032 4.2326 11.2182 5.12704 10.6579 5.53655C10.0759 5.95683 9.08451 6.1508 8.11464 6.32322C6.60594 6.60341 5.04336 6.90515 4.17047 8.11211C3.29758 9.30829 3.50233 10.8709 3.69631 12.3903C3.82562 13.371 3.95494 14.3948 3.72864 15.0844C3.52389 15.731 2.8342 16.453 2.17683 17.1427C1.15308 18.2204 0 19.4381 0 20.9791C0 22.5202 1.16385 23.7379 2.17683 24.8155C2.8342 25.516 3.52389 26.2272 3.72864 26.8738C3.95494 27.5635 3.82562 28.5873 3.69631 29.5679C3.50233 31.0874 3.30836 32.65 4.17047 33.8462C4.50454 34.2988 4.9356 34.6328 5.42053 34.8699L0.722019 43.0061C0.549597 43.3079 0.57115 43.685 0.786678 43.9652C1.00221 44.2454 1.35783 44.3639 1.6919 44.2777L8.6319 42.4134L10.4962 49.3534C10.5824 49.6875 10.8734 49.9353 11.2182 49.9892C11.2613 49.9892 11.2937 50 11.326 50C11.6277 50 11.9187 49.8384 12.0696 49.5689L16.4771 41.9285C17.4147 41.8207 18.363 41.3789 19.279 40.9478C20.195 40.5168 21.1325 40.0749 21.8869 40.0749C22.6412 40.0749 23.5788 40.5168 24.4948 40.9478C25.4108 41.3789 26.3591 41.8315 27.2966 41.9285L31.7042 49.5689C31.8551 49.8384 32.146 50 32.4478 50C32.4801 50 32.5232 50 32.5555 49.9892C32.9004 49.9461 33.1806 49.6983 33.2775 49.3534L35.1419 42.4134L42.0819 44.2777C42.4159 44.3639 42.7716 44.2454 42.9871 43.9652C43.2026 43.685 43.2242 43.3079 43.0518 43.0061L38.3209 34.8915ZM11.5846 46.9179L10.0436 41.1526C9.92507 40.6892 9.45091 40.4198 8.98753 40.5383L3.22215 42.0793L7.05855 35.4303C7.39262 35.5057 7.73746 35.5704 8.08231 35.6351C9.05218 35.8182 10.0544 36.0014 10.6255 36.4217C11.1967 36.8312 11.6709 37.7149 12.1342 38.577C12.7593 39.7301 13.4597 41.0125 14.6236 41.616L11.5846 46.9179ZM21.8546 38.3615C20.7123 38.3615 19.5915 38.8895 18.5139 39.396C17.447 39.9025 16.3478 40.4198 15.6258 40.1827C14.8391 39.9241 14.2464 38.8249 13.6645 37.7688C13.1041 36.745 12.533 35.6889 11.6493 35.0423C10.7549 34.3958 9.55867 34.1695 8.4056 33.9539C7.23097 33.7276 6.01324 33.5013 5.5283 32.8547C5.06491 32.2189 5.21578 30.9904 5.36665 29.8158C5.51752 28.6412 5.66839 27.4342 5.32355 26.3673C4.98948 25.3544 4.17047 24.4815 3.38379 23.6517C2.54323 22.768 1.67034 21.852 1.67034 21.0007C1.67034 20.1494 2.54323 19.2334 3.38379 18.3497C4.18125 17.5091 5.00025 16.647 5.32355 15.634C5.66839 14.5672 5.51752 13.3602 5.36665 12.1856C5.21578 11.0002 5.06491 9.78245 5.5283 9.14664C6.00246 8.48928 7.22019 8.26298 8.4056 8.04745C9.55867 7.83192 10.7549 7.60562 11.6493 6.95903C12.533 6.32322 13.1041 5.25636 13.6645 4.2326C14.2464 3.16574 14.8391 2.07732 15.6258 1.81868C16.3586 1.5816 17.4578 2.09887 18.5139 2.60536C19.5915 3.11185 20.7123 3.6399 21.8546 3.6399C22.9969 3.6399 24.1176 3.11185 25.1952 2.60536C26.2621 2.09887 27.3613 1.5816 28.0833 1.81868C28.87 2.07732 29.4627 3.17651 30.0446 4.2326C30.605 5.25636 31.1762 6.31245 32.0598 6.95903C32.9543 7.60562 34.1504 7.83192 35.3035 8.04745C36.4781 8.27375 37.6959 8.50006 38.1808 9.14664C38.6442 9.78245 38.4933 11.011 38.3425 12.1856C38.1916 13.3602 38.0407 14.5672 38.3856 15.634C38.7196 16.647 39.5386 17.5199 40.3253 18.3497C41.1659 19.2334 42.0388 20.1494 42.0388 21.0007C42.0388 21.852 41.1659 22.768 40.3253 23.6517C39.5279 24.4922 38.7089 25.3544 38.3856 26.3673C38.0407 27.4342 38.1916 28.6412 38.3425 29.8158C38.4933 31.0012 38.6442 32.2189 38.1808 32.8547C37.7067 33.5121 36.4889 33.7384 35.3035 33.9539C34.1504 34.1695 32.9543 34.3958 32.0598 35.0423C31.1762 35.6782 30.605 36.745 30.0446 37.7688C29.4627 38.8356 28.87 39.9241 28.0833 40.1827C27.3505 40.4198 26.2513 39.9025 25.1952 39.396C24.1176 38.8895 22.9969 38.3615 21.8546 38.3615ZM34.7216 40.5383C34.2582 40.4198 33.784 40.6892 33.6655 41.1526L32.1245 46.9179L29.0747 41.6375C30.2278 41.0448 30.9067 39.8055 31.5641 38.5986C32.0275 37.7472 32.5124 36.8528 33.0728 36.4433C33.6547 36.023 34.6462 35.829 35.616 35.6566C35.9609 35.5919 36.3057 35.5273 36.6398 35.4519L40.4762 42.1009L34.7216 40.5383Z" fill="white"/>
<path d="M29.9381 15.7095C29.604 15.3755 29.0544 15.3755 28.7203 15.7095L19.9915 24.4384L15.002 19.4489C14.6679 19.1149 14.1183 19.1149 13.7842 19.4489C13.4502 19.783 13.4502 20.3326 13.7842 20.6667L19.388 26.2704C19.5496 26.4321 19.7651 26.5183 20.0022 26.5183C20.2393 26.5183 20.4548 26.4321 20.6165 26.2704L29.9381 16.9273C30.2721 16.5932 30.2721 16.0436 29.9381 15.7095Z" fill="white"/>
</svg>
