<svg width="50" height="50" viewBox="0 0 50 50" fill="none" xmlns="http://www.w3.org/2000/svg">
<path d="M28.0318 25.2044C29.126 24.3187 29.8273 22.9658 29.8273 21.4516C29.8273 18.7898 27.6618 16.6243 25 16.6243C22.3382 16.6243 20.1727 18.7898 20.1727 21.4516C20.1727 22.9658 20.874 24.3186 21.9682 25.2044C18.9217 26.323 16.6552 29.0833 16.2913 32.4835C16.2669 32.711 16.3404 32.9382 16.4933 33.1084C16.6463 33.2785 16.8643 33.3757 17.0931 33.3757H32.9066C33.1354 33.3757 33.3534 33.2785 33.5064 33.1084C33.6593 32.9382 33.7328 32.711 33.7084 32.4835C33.3447 29.0833 31.0783 26.323 28.0318 25.2044ZM21.7857 21.4516C21.7857 19.6791 23.2276 18.2372 25.0001 18.2372C26.7726 18.2372 28.2145 19.6791 28.2145 21.4516C28.2145 23.2237 26.7731 24.6654 25.0011 24.6659C25.0008 24.6659 25.0004 24.6659 25.0001 24.6659C24.9998 24.6659 24.9994 24.6659 24.9991 24.6659C23.2271 24.6654 21.7857 23.2237 21.7857 21.4516ZM18.0475 31.7628C18.7991 28.5811 21.6435 26.2798 24.9979 26.2788H25C25 26.2788 25.0014 26.2788 25.0021 26.2788C28.3563 26.2798 31.2008 28.5811 31.9524 31.7628H18.0475ZM8.47218 19.3162C8.61139 19.3162 8.7506 19.2802 8.8754 19.2082L16.5411 14.7823C16.7906 14.6383 16.9444 14.3721 16.9444 14.084V5.23224C16.9444 4.94413 16.7906 4.6779 16.5411 4.53385L8.8754 0.108039C8.62581 -0.0360131 8.31855 -0.0360131 8.06895 0.108039L0.403226 4.53385C0.15373 4.6779 0 4.94413 0 5.23224V14.084C0 14.3721 0.15373 14.6383 0.403226 14.7823L8.06895 19.2082C8.19375 19.2801 8.33296 19.3162 8.47218 19.3162ZM5.14062 6.80341L11.1935 3.30875L11.8036 3.66096L5.75081 7.15572L5.14062 6.80341ZM4.33427 8.20028L4.94446 8.5526V10.1758L4.33427 9.82347V8.20028ZM13.4166 4.59222L14.5251 5.23213L8.47218 8.72689L7.36371 8.08698L13.4166 4.59222ZM9.27863 17.113V10.1238L15.3315 6.62911V13.6184L9.27863 17.113ZM8.47218 1.73758L9.58065 2.3776L3.52782 5.87216L2.41935 5.23224L8.47218 1.73758ZM1.6129 6.62901L2.72137 7.26893V10.2889C2.72137 10.577 2.8751 10.8432 3.1246 10.9873L5.34768 12.2707C5.47248 12.3427 5.61169 12.3788 5.75091 12.3788C5.89012 12.3788 6.02934 12.3428 6.15413 12.2707C6.40363 12.1267 6.55736 11.8605 6.55736 11.5724V9.48365L7.66583 10.1237V17.1129L1.6129 13.6183V6.62901ZM49.5968 4.53385L41.931 0.108039C41.6814 -0.0360131 41.3741 -0.0360131 41.1246 0.108039L33.4589 4.53385C33.2094 4.6779 33.0556 4.94413 33.0556 5.23224V14.084C33.0556 14.3721 33.2094 14.6383 33.4589 14.7823L41.1246 19.2082C41.2494 19.2801 41.3886 19.3162 41.5278 19.3162C41.667 19.3162 41.8063 19.2802 41.931 19.2082L49.5968 14.7823C49.8463 14.6383 50 14.3721 50 14.084V5.23224C50 4.94413 49.8463 4.6779 49.5968 4.53385ZM41.5278 8.72689L40.4194 8.08698L46.4722 4.59232L47.5806 5.23224L41.5278 8.72689ZM38.1963 6.80341L44.2491 3.30875L44.8592 3.66096L38.8064 7.15572L38.1963 6.80341ZM37.3899 8.20028L38.0001 8.5526V10.1758L37.3899 9.82347V8.20028ZM41.5278 1.73758L42.6363 2.3776L36.5835 5.87226L35.475 5.23224L41.5278 1.73758ZM34.6685 6.62901L35.777 7.26903V10.289C35.777 10.5771 35.9307 10.8433 36.1802 10.9874L38.4033 12.2708C38.5281 12.3428 38.6673 12.3789 38.8066 12.3789C38.9458 12.3789 39.085 12.3429 39.2098 12.2708C39.4593 12.1268 39.613 11.8606 39.613 11.5725V9.48375L40.7215 10.1237V17.1129L34.6686 13.6182V6.62901H34.6685ZM42.3343 17.113V10.1238L48.3871 6.62901V13.6183L42.3343 17.113ZM14.9915 34.8942C14.6056 34.6715 14.1125 34.8036 13.8899 35.1894L10.7266 40.6684C10.2044 40.474 9.64002 40.3672 9.05091 40.3672C6.39516 40.3672 4.23458 42.5279 4.23458 45.1836C4.23458 47.8392 6.39516 50 9.05101 50C11.7069 50 13.8673 47.8393 13.8673 45.1837C13.8673 43.6944 13.1877 42.361 12.1224 41.4768L15.2867 35.996C15.5095 35.6102 15.3772 35.1169 14.9915 34.8942ZM9.05101 48.3871C7.28468 48.3871 5.84758 46.95 5.84758 45.1837C5.84758 43.4173 7.28468 41.9802 9.05101 41.9802C10.8173 41.9802 12.2544 43.4173 12.2544 45.1837C12.2544 46.95 10.8173 48.3871 9.05101 48.3871ZM25.8065 40.4361V35.5926C25.8065 35.1473 25.4454 34.7862 25 34.7862C24.5546 34.7862 24.1935 35.1473 24.1935 35.5926V40.4361C21.9206 40.8211 20.1837 42.8028 20.1837 45.1836C20.1837 47.8393 22.3443 50 25 50C27.6557 50 29.8163 47.8393 29.8163 45.1837C29.8163 42.8028 28.0794 40.8211 25.8065 40.4361ZM25 48.3871C23.2337 48.3871 21.7966 46.95 21.7966 45.1837C21.7966 43.4173 23.2337 41.9802 25 41.9802C26.7663 41.9802 28.2034 43.4173 28.2034 45.1837C28.2034 46.95 26.7663 48.3871 25 48.3871ZM40.949 40.3672C40.36 40.3672 39.7955 40.474 39.2733 40.6684L36.11 35.1894C35.8873 34.8037 35.3942 34.6716 35.0084 34.8942C34.6227 35.1169 34.4905 35.6102 34.7132 35.9959L37.8776 41.4767C36.8123 42.3609 36.1327 43.6943 36.1327 45.1836C36.1327 47.8393 38.2932 49.9999 40.949 49.9999C43.6047 49.9999 45.7653 47.8392 45.7653 45.1836C45.7653 42.5279 43.6048 40.3672 40.949 40.3672ZM40.949 48.3871C39.1827 48.3871 37.7456 46.95 37.7456 45.1837C37.7456 43.4173 39.1827 41.9802 40.949 41.9802C42.7153 41.9802 44.1524 43.4173 44.1524 45.1837C44.1524 46.95 42.7154 48.3871 40.949 48.3871ZM17.3811 20.5086C17.8235 20.4539 18.2256 20.7684 18.28 21.2105L18.5945 23.7665C18.6248 24.013 18.5398 24.2597 18.3643 24.4352C18.2122 24.5873 18.0067 24.6714 17.7942 24.6714C17.7614 24.6714 17.7285 24.6693 17.6957 24.6653L15.1397 24.3509C14.6977 24.2966 14.3834 23.894 14.4378 23.452C14.4922 23.0099 14.8955 22.696 15.3367 22.7501L15.5673 22.7784L12.7144 19.9254C12.3995 19.6105 12.3995 19.0999 12.7144 18.785C13.0293 18.47 13.5399 18.47 13.8548 18.785L16.7079 21.638L16.6795 21.4072C16.6248 20.9653 16.9391 20.5629 17.3811 20.5086ZM31.6358 24.4352C31.4602 24.2596 31.3753 24.013 31.4056 23.7665L31.7201 21.2105C31.7744 20.7683 32.1775 20.454 32.6189 20.5086C33.061 20.5629 33.3753 20.9653 33.3209 21.4074L33.2925 21.6382L36.1456 18.7852C36.4606 18.4702 36.9712 18.4702 37.286 18.7852C37.601 19.1001 37.6009 19.6107 37.286 19.9256L34.433 22.7786L34.6636 22.7503C35.105 22.6958 35.5081 23.0102 35.5625 23.4522C35.6169 23.8942 35.3026 24.2967 34.8606 24.3511L32.3045 24.6655C32.2717 24.6695 32.2388 24.6716 32.2061 24.6716C31.9934 24.6715 31.7879 24.5874 31.6358 24.4352Z" fill="white"/>
</svg>
