<svg width="1920" height="608" viewBox="0 0 1920 608" fill="none" xmlns="http://www.w3.org/2000/svg">
<mask id="mask0_1332_22125" style="mask-type:alpha" maskUnits="userSpaceOnUse" x="0" y="0" width="1920" height="576">
<path d="M1920 0H0V575.801H1920V0Z" fill="url(#paint0_linear_1332_22125)"/>
</mask>
<g mask="url(#mask0_1332_22125)">
</g>
<g clip-path="url(#clip0_1332_22125)">
<path d="M1936 493.824H-6V498.926H1936V493.824Z" fill="url(#paint1_linear_1332_22125)"/>
<path d="M1936 371.162H-6V374.545H1936V371.162Z" fill="url(#paint2_linear_1332_22125)"/>
<path d="M1936 286.928H-6V289.312H1936V286.928Z" fill="url(#paint3_linear_1332_22125)"/>
<path d="M1936 225.598H-6V227.372H1936V225.598Z" fill="url(#paint4_linear_1332_22125)"/>
<path d="M1936 178.904H-6V180.291H1936V178.904Z" fill="url(#paint5_linear_1332_22125)"/>
<path d="M1936 142.195H-6V143.304H1936V142.195Z" fill="url(#paint6_linear_1332_22125)"/>
<path d="M1936 112.584H-6V113.471H1936V112.584Z" fill="url(#paint7_linear_1332_22125)"/>
<path d="M1936 88.127H-6V88.8478H1936V88.127Z" fill="url(#paint8_linear_1332_22125)"/>
<path d="M1936 67.666H-6V68.276H1936V67.666Z" fill="url(#paint9_linear_1332_22125)"/>
<path d="M1936 50.2539H-6V50.8084H1936V50.2539Z" fill="url(#paint10_linear_1332_22125)"/>
<path d="M1936 35.2266H-6V35.6702H1936V35.2266Z" fill="url(#paint11_linear_1332_22125)"/>
<path d="M1936 22.1934H-6V22.5815H1936V22.1934Z" fill="url(#paint12_linear_1332_22125)"/>
<path d="M1936 10.7715H-6V11.1042H1936V10.7715Z" fill="url(#paint13_linear_1332_22125)"/>
<path d="M1936 7.27804L1910.33 2.8418H1907.54L1936 7.77712V7.27804Z" fill="url(#paint14_linear_1332_22125)"/>
<path d="M1936 22.4167L1832.39 2.8418H1829.59L1936 22.9712V22.4167Z" fill="url(#paint15_linear_1332_22125)"/>
<path d="M1936 40.3835L1754.38 2.8418H1751.65L1936 41.1044V40.3835Z" fill="url(#paint16_linear_1332_22125)"/>
<path d="M1936 62.232L1676.43 2.8418H1673.64L1936 63.0638V62.232Z" fill="url(#paint17_linear_1332_22125)"/>
<path d="M1936 89.2376L1598.49 2.8418H1595.7L1936 90.2912V89.2376Z" fill="url(#paint18_linear_1332_22125)"/>
<path d="M1936 123.508L1520.48 2.8418H1517.69L1936 124.894V123.508Z" fill="url(#paint19_linear_1332_22125)"/>
<path d="M1936 168.48L1442.54 2.8418H1439.74L1936 170.365V168.48Z" fill="url(#paint20_linear_1332_22125)"/>
<path d="M1936 230.033L1364.59 2.8418H1361.8L1936 232.695V230.033Z" fill="url(#paint21_linear_1332_22125)"/>
<path d="M1936 319.479L1286.58 2.8418H1283.79L1936 323.416V319.479Z" fill="url(#paint22_linear_1332_22125)"/>
<path d="M1936 461.161L1208.64 2.8418H1205.85L1936 467.76V461.161Z" fill="url(#paint23_linear_1332_22125)"/>
<path d="M1127.9 2.8418L1797.47 608.001H1810.24L1130.63 2.8418H1127.9Z" fill="url(#paint24_linear_1332_22125)"/>
<path d="M1049.89 2.8418L1438.68 608.001H1451.51L1052.69 2.8418H1049.89Z" fill="url(#paint25_linear_1332_22125)"/>
<path d="M971.95 2.8418L1079.95 608.001H1092.72L974.743 2.8418H971.95Z" fill="url(#paint26_linear_1332_22125)"/>
<path d="M894.006 2.8418L721.228 608.001H733.996L896.733 2.8418H894.006Z" fill="url(#paint27_linear_1332_22125)"/>
<path d="M815.996 2.8418L362.435 608.001H375.271L818.79 2.8418H815.996Z" fill="url(#paint28_linear_1332_22125)"/>
<path d="M738.053 2.8418L3.70972 608.001H16.4786L740.846 2.8418H738.053Z" fill="url(#paint29_linear_1332_22125)"/>
<path d="M-6 405.542L662.837 2.8418H660.043L-6 399.941V405.542Z" fill="url(#paint30_linear_1332_22125)"/>
<path d="M-6 280.939L584.893 2.8418H582.1L-6 277.501V280.939Z" fill="url(#paint31_linear_1332_22125)"/>
<path d="M-6 200.975L506.95 2.8418H504.157L-6 198.646V200.975Z" fill="url(#paint32_linear_1332_22125)"/>
<path d="M-6 145.301L428.94 2.8418H426.147L-6 143.637V145.301Z" fill="url(#paint33_linear_1332_22125)"/>
<path d="M-6 104.376L350.997 2.8418H348.203L-6 103.101V104.376Z" fill="url(#paint34_linear_1332_22125)"/>
<path d="M-6 72.9344L272.987 2.8418H270.26L-6 71.9363V72.9344Z" fill="url(#paint35_linear_1332_22125)"/>
<path d="M-6 48.0915L195.043 2.8418H192.25L-6 47.2597V48.0915Z" fill="url(#paint36_linear_1332_22125)"/>
<path d="M-6 27.9066L117.1 2.8418H114.307L-6 27.2411V27.9066Z" fill="url(#paint37_linear_1332_22125)"/>
<path d="M-6 11.2152L39.0901 2.8418H36.3634L-6 10.7161V11.2152Z" fill="url(#paint38_linear_1332_22125)"/>
</g>
<defs>
<linearGradient id="paint0_linear_1332_22125" x1="768.5" y1="575.801" x2="768.5" y2="100.475" gradientUnits="userSpaceOnUse">
<stop stop-color="#0F1329"/>
<stop offset="1" stop-color="#0B0F21"/>
</linearGradient>
<linearGradient id="paint1_linear_1332_22125" x1="965" y1="493.824" x2="965" y2="498.926" gradientUnits="userSpaceOnUse">
<stop stop-color="#0F1428"/>
<stop offset="1" stop-color="#0B0F21"/>
</linearGradient>
<linearGradient id="paint2_linear_1332_22125" x1="965" y1="371.162" x2="965" y2="374.545" gradientUnits="userSpaceOnUse">
<stop stop-color="#0F1428"/>
<stop offset="1" stop-color="#0B0F21"/>
</linearGradient>
<linearGradient id="paint3_linear_1332_22125" x1="965" y1="286.928" x2="965" y2="289.312" gradientUnits="userSpaceOnUse">
<stop stop-color="#0F1428"/>
<stop offset="1" stop-color="#0B0F21"/>
</linearGradient>
<linearGradient id="paint4_linear_1332_22125" x1="965" y1="225.598" x2="965" y2="227.372" gradientUnits="userSpaceOnUse">
<stop stop-color="#0F1428"/>
<stop offset="1" stop-color="#0B0F21"/>
</linearGradient>
<linearGradient id="paint5_linear_1332_22125" x1="965" y1="178.904" x2="965" y2="180.291" gradientUnits="userSpaceOnUse">
<stop stop-color="#0F1428"/>
<stop offset="1" stop-color="#0B0F21"/>
</linearGradient>
<linearGradient id="paint6_linear_1332_22125" x1="965" y1="142.195" x2="965" y2="143.304" gradientUnits="userSpaceOnUse">
<stop stop-color="#0F1428"/>
<stop offset="1" stop-color="#0B0F21"/>
</linearGradient>
<linearGradient id="paint7_linear_1332_22125" x1="965" y1="112.584" x2="965" y2="113.471" gradientUnits="userSpaceOnUse">
<stop stop-color="#0F1428"/>
<stop offset="1" stop-color="#0B0F21"/>
</linearGradient>
<linearGradient id="paint8_linear_1332_22125" x1="965" y1="88.127" x2="965" y2="88.8478" gradientUnits="userSpaceOnUse">
<stop stop-color="#0F1428"/>
<stop offset="1" stop-color="#0B0F21"/>
</linearGradient>
<linearGradient id="paint9_linear_1332_22125" x1="965" y1="67.666" x2="965" y2="68.276" gradientUnits="userSpaceOnUse">
<stop stop-color="#0F1428"/>
<stop offset="1" stop-color="#0B0F21"/>
</linearGradient>
<linearGradient id="paint10_linear_1332_22125" x1="965" y1="50.2539" x2="965" y2="50.8084" gradientUnits="userSpaceOnUse">
<stop stop-color="#0F1428"/>
<stop offset="1" stop-color="#0B0F21"/>
</linearGradient>
<linearGradient id="paint11_linear_1332_22125" x1="965" y1="35.2266" x2="965" y2="35.6702" gradientUnits="userSpaceOnUse">
<stop stop-color="#0F1428"/>
<stop offset="1" stop-color="#0B0F21"/>
</linearGradient>
<linearGradient id="paint12_linear_1332_22125" x1="965" y1="22.1934" x2="965" y2="22.5815" gradientUnits="userSpaceOnUse">
<stop stop-color="#0F1428"/>
<stop offset="1" stop-color="#0B0F21"/>
</linearGradient>
<linearGradient id="paint13_linear_1332_22125" x1="965" y1="10.7715" x2="965" y2="11.1042" gradientUnits="userSpaceOnUse">
<stop stop-color="#0F1428"/>
<stop offset="1" stop-color="#0B0F21"/>
</linearGradient>
<linearGradient id="paint14_linear_1332_22125" x1="1921.77" y1="2.8418" x2="1921.77" y2="7.77712" gradientUnits="userSpaceOnUse">
<stop stop-color="#0F1428"/>
<stop offset="1" stop-color="#0B0F21"/>
</linearGradient>
<linearGradient id="paint15_linear_1332_22125" x1="1882.8" y1="2.8418" x2="1882.8" y2="22.9712" gradientUnits="userSpaceOnUse">
<stop stop-color="#0F1428"/>
<stop offset="1" stop-color="#0B0F21"/>
</linearGradient>
<linearGradient id="paint16_linear_1332_22125" x1="1843.82" y1="2.8418" x2="1843.82" y2="41.1044" gradientUnits="userSpaceOnUse">
<stop stop-color="#0F1428"/>
<stop offset="1" stop-color="#0B0F21"/>
</linearGradient>
<linearGradient id="paint17_linear_1332_22125" x1="1804.82" y1="2.8418" x2="1804.82" y2="63.0638" gradientUnits="userSpaceOnUse">
<stop stop-color="#0F1428"/>
<stop offset="1" stop-color="#0B0F21"/>
</linearGradient>
<linearGradient id="paint18_linear_1332_22125" x1="1765.85" y1="2.8418" x2="1765.85" y2="90.2912" gradientUnits="userSpaceOnUse">
<stop stop-color="#0F1428"/>
<stop offset="1" stop-color="#0B0F21"/>
</linearGradient>
<linearGradient id="paint19_linear_1332_22125" x1="1726.84" y1="2.8418" x2="1726.84" y2="124.894" gradientUnits="userSpaceOnUse">
<stop stop-color="#0F1428"/>
<stop offset="1" stop-color="#0B0F21"/>
</linearGradient>
<linearGradient id="paint20_linear_1332_22125" x1="1687.87" y1="2.8418" x2="1687.87" y2="170.365" gradientUnits="userSpaceOnUse">
<stop stop-color="#0F1428"/>
<stop offset="1" stop-color="#0B0F21"/>
</linearGradient>
<linearGradient id="paint21_linear_1332_22125" x1="1648.9" y1="2.8418" x2="1648.9" y2="232.695" gradientUnits="userSpaceOnUse">
<stop stop-color="#0F1428"/>
<stop offset="1" stop-color="#0B0F21"/>
</linearGradient>
<linearGradient id="paint22_linear_1332_22125" x1="1609.89" y1="2.8418" x2="1609.89" y2="323.416" gradientUnits="userSpaceOnUse">
<stop stop-color="#0F1428"/>
<stop offset="1" stop-color="#0B0F21"/>
</linearGradient>
<linearGradient id="paint23_linear_1332_22125" x1="1570.92" y1="2.8418" x2="1570.92" y2="467.76" gradientUnits="userSpaceOnUse">
<stop stop-color="#0F1428"/>
<stop offset="1" stop-color="#0B0F21"/>
</linearGradient>
<linearGradient id="paint24_linear_1332_22125" x1="1469.07" y1="2.8418" x2="1469.07" y2="608.001" gradientUnits="userSpaceOnUse">
<stop stop-color="#0F1428"/>
<stop offset="1" stop-color="#0B0F21"/>
</linearGradient>
<linearGradient id="paint25_linear_1332_22125" x1="1250.7" y1="2.8418" x2="1250.7" y2="608.001" gradientUnits="userSpaceOnUse">
<stop stop-color="#0F1428"/>
<stop offset="1" stop-color="#0B0F21"/>
</linearGradient>
<linearGradient id="paint26_linear_1332_22125" x1="1032.34" y1="2.8418" x2="1032.34" y2="608.001" gradientUnits="userSpaceOnUse">
<stop stop-color="#0F1428"/>
<stop offset="1" stop-color="#0B0F21"/>
</linearGradient>
<linearGradient id="paint27_linear_1332_22125" x1="808.98" y1="2.8418" x2="808.98" y2="608.001" gradientUnits="userSpaceOnUse">
<stop stop-color="#0F1428"/>
<stop offset="1" stop-color="#0B0F21"/>
</linearGradient>
<linearGradient id="paint28_linear_1332_22125" x1="590.612" y1="2.8418" x2="590.612" y2="608.001" gradientUnits="userSpaceOnUse">
<stop stop-color="#0F1428"/>
<stop offset="1" stop-color="#0B0F21"/>
</linearGradient>
<linearGradient id="paint29_linear_1332_22125" x1="372.278" y1="2.8418" x2="372.278" y2="608.001" gradientUnits="userSpaceOnUse">
<stop stop-color="#0F1428"/>
<stop offset="1" stop-color="#0B0F21"/>
</linearGradient>
<linearGradient id="paint30_linear_1332_22125" x1="328.418" y1="2.8418" x2="328.418" y2="405.542" gradientUnits="userSpaceOnUse">
<stop stop-color="#0F1428"/>
<stop offset="1" stop-color="#0B0F21"/>
</linearGradient>
<linearGradient id="paint31_linear_1332_22125" x1="289.447" y1="2.8418" x2="289.447" y2="280.939" gradientUnits="userSpaceOnUse">
<stop stop-color="#0F1428"/>
<stop offset="1" stop-color="#0B0F21"/>
</linearGradient>
<linearGradient id="paint32_linear_1332_22125" x1="250.475" y1="2.8418" x2="250.475" y2="200.975" gradientUnits="userSpaceOnUse">
<stop stop-color="#0F1428"/>
<stop offset="1" stop-color="#0B0F21"/>
</linearGradient>
<linearGradient id="paint33_linear_1332_22125" x1="211.47" y1="2.8418" x2="211.47" y2="145.301" gradientUnits="userSpaceOnUse">
<stop stop-color="#0F1428"/>
<stop offset="1" stop-color="#0B0F21"/>
</linearGradient>
<linearGradient id="paint34_linear_1332_22125" x1="172.498" y1="2.8418" x2="172.498" y2="104.376" gradientUnits="userSpaceOnUse">
<stop stop-color="#0F1428"/>
<stop offset="1" stop-color="#0B0F21"/>
</linearGradient>
<linearGradient id="paint35_linear_1332_22125" x1="133.493" y1="2.8418" x2="133.493" y2="72.9344" gradientUnits="userSpaceOnUse">
<stop stop-color="#0F1428"/>
<stop offset="1" stop-color="#0B0F21"/>
</linearGradient>
<linearGradient id="paint36_linear_1332_22125" x1="94.5217" y1="2.8418" x2="94.5217" y2="48.0915" gradientUnits="userSpaceOnUse">
<stop stop-color="#0F1428"/>
<stop offset="1" stop-color="#0B0F21"/>
</linearGradient>
<linearGradient id="paint37_linear_1332_22125" x1="55.55" y1="2.8418" x2="55.55" y2="27.9066" gradientUnits="userSpaceOnUse">
<stop stop-color="#0F1428"/>
<stop offset="1" stop-color="#0B0F21"/>
</linearGradient>
<linearGradient id="paint38_linear_1332_22125" x1="16.545" y1="2.8418" x2="16.545" y2="11.2152" gradientUnits="userSpaceOnUse">
<stop stop-color="#0F1428"/>
<stop offset="1" stop-color="#0B0F21"/>
</linearGradient>
<clipPath id="clip0_1332_22125">
<rect width="1942" height="605.159" fill="white" transform="translate(-6 2.8418)"/>
</clipPath>
</defs>
</svg>
