<svg width="1920" height="711" viewBox="0 0 1920 711" fill="none" xmlns="http://www.w3.org/2000/svg">
<mask id="mask0_1340_2409" style="mask-type:alpha" maskUnits="userSpaceOnUse" x="0" y="0" width="1920" height="711">
<rect width="1920" height="711" fill="#D9D9D9"/>
</mask>
<g mask="url(#mask0_1340_2409)">
<path d="M1931 589.022H-11V595.143H1931V589.022Z" fill="url(#paint0_linear_1340_2409)"/>
<path d="M1931 441.867H-11V445.925H1931V441.867Z" fill="url(#paint1_linear_1340_2409)"/>
<path d="M1931 340.813H-11V343.674H1931V340.813Z" fill="url(#paint2_linear_1340_2409)"/>
<path d="M1931 267.235H-11V269.364H1931V267.235Z" fill="url(#paint3_linear_1340_2409)"/>
<path d="M1931 211.221H-11V212.884H1931V211.221Z" fill="url(#paint4_linear_1340_2409)"/>
<path d="M1931 167.181H-11V168.511H1931V167.181Z" fill="url(#paint5_linear_1340_2409)"/>
<path d="M1931 131.655H-11V132.72H1931V131.655Z" fill="url(#paint6_linear_1340_2409)"/>
<path d="M1931 102.317H-11V103.182H1931V102.317Z" fill="url(#paint7_linear_1340_2409)"/>
<path d="M1931 77.7695H-11V78.5013H1931V77.7695Z" fill="url(#paint8_linear_1340_2409)"/>
<path d="M1931 56.8799H-11V57.5451H1931V56.8799Z" fill="url(#paint9_linear_1340_2409)"/>
<path d="M1931 38.8516H-11V39.3838H1931V38.8516Z" fill="url(#paint10_linear_1340_2409)"/>
<path d="M1931 23.2178H-11V23.6835H1931V23.2178Z" fill="url(#paint11_linear_1340_2409)"/>
<path d="M1931 9.51367H-11V9.91283H1931V9.51367Z" fill="url(#paint12_linear_1340_2409)"/>
<path d="M1931 5.32209L1905.33 0H1902.54L1931 5.92083V5.32209Z" fill="url(#paint13_linear_1340_2409)"/>
<path d="M1931 23.4837L1827.39 0H1824.59L1931 24.149V23.4837Z" fill="url(#paint14_linear_1340_2409)"/>
<path d="M1931 45.0382L1749.38 0H1746.65L1931 45.903V45.0382Z" fill="url(#paint15_linear_1340_2409)"/>
<path d="M1931 71.2495L1671.43 0H1668.64L1931 72.2474V71.2495Z" fill="url(#paint16_linear_1340_2409)"/>
<path d="M1931 103.648L1593.49 0H1590.7L1931 104.912V103.648Z" fill="url(#paint17_linear_1340_2409)"/>
<path d="M1931 144.761L1515.48 0H1512.69L1931 146.424V144.761Z" fill="url(#paint18_linear_1340_2409)"/>
<path d="M1931 198.714L1437.54 0H1434.74L1931 200.976V198.714Z" fill="url(#paint19_linear_1340_2409)"/>
<path d="M1931 272.558L1359.59 0H1356.8L1931 275.751V272.558Z" fill="url(#paint20_linear_1340_2409)"/>
<path d="M1931 379.864L1281.58 0H1278.79L1931 384.588V379.864Z" fill="url(#paint21_linear_1340_2409)"/>
<path d="M1931 549.839L1203.64 0H1200.85L1931 557.755V549.839Z" fill="url(#paint22_linear_1340_2409)"/>
<path d="M1122.9 0L1792.47 726H1805.24L1125.63 0H1122.9Z" fill="url(#paint23_linear_1340_2409)"/>
<path d="M1044.89 0L1433.68 726H1446.51L1047.69 0H1044.89Z" fill="url(#paint24_linear_1340_2409)"/>
<path d="M966.95 0L1074.95 726H1087.72L969.743 0H966.95Z" fill="url(#paint25_linear_1340_2409)"/>
<path d="M889.006 0L716.228 726H728.996L891.733 0H889.006Z" fill="url(#paint26_linear_1340_2409)"/>
<path d="M810.996 0L357.435 726H370.271L813.79 0H810.996Z" fill="url(#paint27_linear_1340_2409)"/>
<path d="M733.053 0L-1.29028 726H11.4786L735.846 0H733.053Z" fill="url(#paint28_linear_1340_2409)"/>
<path d="M-11 483.113L657.836 0H655.043L-11 476.394V483.113Z" fill="url(#paint29_linear_1340_2409)"/>
<path d="M-11 333.629L579.893 0H577.1L-11 329.504V333.629Z" fill="url(#paint30_linear_1340_2409)"/>
<path d="M-11 237.698L501.95 0H499.157L-11 234.904V237.698Z" fill="url(#paint31_linear_1340_2409)"/>
<path d="M-11 170.906L423.94 0H421.147L-11 168.91V170.906Z" fill="url(#paint32_linear_1340_2409)"/>
<path d="M-11 121.809L345.997 0H343.203L-11 120.279V121.809Z" fill="url(#paint33_linear_1340_2409)"/>
<path d="M-11 84.0891L267.987 0H265.26L-11 82.8916V84.0891Z" fill="url(#paint34_linear_1340_2409)"/>
<path d="M-11 54.2853L190.043 0H187.25L-11 53.2874V54.2853Z" fill="url(#paint35_linear_1340_2409)"/>
<path d="M-11 30.0698L112.1 0H109.307L-11 29.2715V30.0698Z" fill="url(#paint36_linear_1340_2409)"/>
<path d="M-11 10.0455L34.0901 0H31.3634L-11 9.44671V10.0455Z" fill="url(#paint37_linear_1340_2409)"/>
</g>
<defs>
<linearGradient id="paint0_linear_1340_2409" x1="960" y1="589.022" x2="960" y2="595.143" gradientUnits="userSpaceOnUse">
<stop stop-color="#0F1428"/>
<stop offset="1" stop-color="#0B0F21"/>
</linearGradient>
<linearGradient id="paint1_linear_1340_2409" x1="960" y1="441.867" x2="960" y2="445.925" gradientUnits="userSpaceOnUse">
<stop stop-color="#0F1428"/>
<stop offset="1" stop-color="#0B0F21"/>
</linearGradient>
<linearGradient id="paint2_linear_1340_2409" x1="960" y1="340.813" x2="960" y2="343.674" gradientUnits="userSpaceOnUse">
<stop stop-color="#0F1428"/>
<stop offset="1" stop-color="#0B0F21"/>
</linearGradient>
<linearGradient id="paint3_linear_1340_2409" x1="960" y1="267.235" x2="960" y2="269.364" gradientUnits="userSpaceOnUse">
<stop stop-color="#0F1428"/>
<stop offset="1" stop-color="#0B0F21"/>
</linearGradient>
<linearGradient id="paint4_linear_1340_2409" x1="960" y1="211.221" x2="960" y2="212.884" gradientUnits="userSpaceOnUse">
<stop stop-color="#0F1428"/>
<stop offset="1" stop-color="#0B0F21"/>
</linearGradient>
<linearGradient id="paint5_linear_1340_2409" x1="960" y1="167.181" x2="960" y2="168.511" gradientUnits="userSpaceOnUse">
<stop stop-color="#0F1428"/>
<stop offset="1" stop-color="#0B0F21"/>
</linearGradient>
<linearGradient id="paint6_linear_1340_2409" x1="960" y1="131.655" x2="960" y2="132.72" gradientUnits="userSpaceOnUse">
<stop stop-color="#0F1428"/>
<stop offset="1" stop-color="#0B0F21"/>
</linearGradient>
<linearGradient id="paint7_linear_1340_2409" x1="960" y1="102.317" x2="960" y2="103.182" gradientUnits="userSpaceOnUse">
<stop stop-color="#0F1428"/>
<stop offset="1" stop-color="#0B0F21"/>
</linearGradient>
<linearGradient id="paint8_linear_1340_2409" x1="960" y1="77.7695" x2="960" y2="78.5013" gradientUnits="userSpaceOnUse">
<stop stop-color="#0F1428"/>
<stop offset="1" stop-color="#0B0F21"/>
</linearGradient>
<linearGradient id="paint9_linear_1340_2409" x1="960" y1="56.8799" x2="960" y2="57.5451" gradientUnits="userSpaceOnUse">
<stop stop-color="#0F1428"/>
<stop offset="1" stop-color="#0B0F21"/>
</linearGradient>
<linearGradient id="paint10_linear_1340_2409" x1="960" y1="38.8516" x2="960" y2="39.3838" gradientUnits="userSpaceOnUse">
<stop stop-color="#0F1428"/>
<stop offset="1" stop-color="#0B0F21"/>
</linearGradient>
<linearGradient id="paint11_linear_1340_2409" x1="960" y1="23.2178" x2="960" y2="23.6835" gradientUnits="userSpaceOnUse">
<stop stop-color="#0F1428"/>
<stop offset="1" stop-color="#0B0F21"/>
</linearGradient>
<linearGradient id="paint12_linear_1340_2409" x1="960" y1="9.51367" x2="960" y2="9.91283" gradientUnits="userSpaceOnUse">
<stop stop-color="#0F1428"/>
<stop offset="1" stop-color="#0B0F21"/>
</linearGradient>
<linearGradient id="paint13_linear_1340_2409" x1="1916.77" y1="0" x2="1916.77" y2="5.92083" gradientUnits="userSpaceOnUse">
<stop stop-color="#0F1428"/>
<stop offset="1" stop-color="#0B0F21"/>
</linearGradient>
<linearGradient id="paint14_linear_1340_2409" x1="1877.8" y1="0" x2="1877.8" y2="24.149" gradientUnits="userSpaceOnUse">
<stop stop-color="#0F1428"/>
<stop offset="1" stop-color="#0B0F21"/>
</linearGradient>
<linearGradient id="paint15_linear_1340_2409" x1="1838.82" y1="0" x2="1838.82" y2="45.903" gradientUnits="userSpaceOnUse">
<stop stop-color="#0F1428"/>
<stop offset="1" stop-color="#0B0F21"/>
</linearGradient>
<linearGradient id="paint16_linear_1340_2409" x1="1799.82" y1="0" x2="1799.82" y2="72.2474" gradientUnits="userSpaceOnUse">
<stop stop-color="#0F1428"/>
<stop offset="1" stop-color="#0B0F21"/>
</linearGradient>
<linearGradient id="paint17_linear_1340_2409" x1="1760.85" y1="0" x2="1760.85" y2="104.912" gradientUnits="userSpaceOnUse">
<stop stop-color="#0F1428"/>
<stop offset="1" stop-color="#0B0F21"/>
</linearGradient>
<linearGradient id="paint18_linear_1340_2409" x1="1721.84" y1="0" x2="1721.84" y2="146.424" gradientUnits="userSpaceOnUse">
<stop stop-color="#0F1428"/>
<stop offset="1" stop-color="#0B0F21"/>
</linearGradient>
<linearGradient id="paint19_linear_1340_2409" x1="1682.87" y1="0" x2="1682.87" y2="200.976" gradientUnits="userSpaceOnUse">
<stop stop-color="#0F1428"/>
<stop offset="1" stop-color="#0B0F21"/>
</linearGradient>
<linearGradient id="paint20_linear_1340_2409" x1="1643.9" y1="0" x2="1643.9" y2="275.751" gradientUnits="userSpaceOnUse">
<stop stop-color="#0F1428"/>
<stop offset="1" stop-color="#0B0F21"/>
</linearGradient>
<linearGradient id="paint21_linear_1340_2409" x1="1604.89" y1="0" x2="1604.89" y2="384.588" gradientUnits="userSpaceOnUse">
<stop stop-color="#0F1428"/>
<stop offset="1" stop-color="#0B0F21"/>
</linearGradient>
<linearGradient id="paint22_linear_1340_2409" x1="1565.92" y1="0" x2="1565.92" y2="557.755" gradientUnits="userSpaceOnUse">
<stop stop-color="#0F1428"/>
<stop offset="1" stop-color="#0B0F21"/>
</linearGradient>
<linearGradient id="paint23_linear_1340_2409" x1="1464.07" y1="0" x2="1464.07" y2="726" gradientUnits="userSpaceOnUse">
<stop stop-color="#0F1428"/>
<stop offset="1" stop-color="#0B0F21"/>
</linearGradient>
<linearGradient id="paint24_linear_1340_2409" x1="1245.7" y1="0" x2="1245.7" y2="726" gradientUnits="userSpaceOnUse">
<stop stop-color="#0F1428"/>
<stop offset="1" stop-color="#0B0F21"/>
</linearGradient>
<linearGradient id="paint25_linear_1340_2409" x1="1027.34" y1="0" x2="1027.34" y2="726" gradientUnits="userSpaceOnUse">
<stop stop-color="#0F1428"/>
<stop offset="1" stop-color="#0B0F21"/>
</linearGradient>
<linearGradient id="paint26_linear_1340_2409" x1="803.98" y1="0" x2="803.98" y2="726" gradientUnits="userSpaceOnUse">
<stop stop-color="#0F1428"/>
<stop offset="1" stop-color="#0B0F21"/>
</linearGradient>
<linearGradient id="paint27_linear_1340_2409" x1="585.612" y1="0" x2="585.612" y2="726" gradientUnits="userSpaceOnUse">
<stop stop-color="#0F1428"/>
<stop offset="1" stop-color="#0B0F21"/>
</linearGradient>
<linearGradient id="paint28_linear_1340_2409" x1="367.278" y1="0" x2="367.278" y2="726" gradientUnits="userSpaceOnUse">
<stop stop-color="#0F1428"/>
<stop offset="1" stop-color="#0B0F21"/>
</linearGradient>
<linearGradient id="paint29_linear_1340_2409" x1="323.418" y1="0" x2="323.418" y2="483.113" gradientUnits="userSpaceOnUse">
<stop stop-color="#0F1428"/>
<stop offset="1" stop-color="#0B0F21"/>
</linearGradient>
<linearGradient id="paint30_linear_1340_2409" x1="284.447" y1="0" x2="284.447" y2="333.629" gradientUnits="userSpaceOnUse">
<stop stop-color="#0F1428"/>
<stop offset="1" stop-color="#0B0F21"/>
</linearGradient>
<linearGradient id="paint31_linear_1340_2409" x1="245.475" y1="0" x2="245.475" y2="237.698" gradientUnits="userSpaceOnUse">
<stop stop-color="#0F1428"/>
<stop offset="1" stop-color="#0B0F21"/>
</linearGradient>
<linearGradient id="paint32_linear_1340_2409" x1="206.47" y1="0" x2="206.47" y2="170.906" gradientUnits="userSpaceOnUse">
<stop stop-color="#0F1428"/>
<stop offset="1" stop-color="#0B0F21"/>
</linearGradient>
<linearGradient id="paint33_linear_1340_2409" x1="167.498" y1="0" x2="167.498" y2="121.809" gradientUnits="userSpaceOnUse">
<stop stop-color="#0F1428"/>
<stop offset="1" stop-color="#0B0F21"/>
</linearGradient>
<linearGradient id="paint34_linear_1340_2409" x1="128.493" y1="0" x2="128.493" y2="84.0891" gradientUnits="userSpaceOnUse">
<stop stop-color="#0F1428"/>
<stop offset="1" stop-color="#0B0F21"/>
</linearGradient>
<linearGradient id="paint35_linear_1340_2409" x1="89.5217" y1="0" x2="89.5217" y2="54.2853" gradientUnits="userSpaceOnUse">
<stop stop-color="#0F1428"/>
<stop offset="1" stop-color="#0B0F21"/>
</linearGradient>
<linearGradient id="paint36_linear_1340_2409" x1="50.55" y1="0" x2="50.55" y2="30.0698" gradientUnits="userSpaceOnUse">
<stop stop-color="#0F1428"/>
<stop offset="1" stop-color="#0B0F21"/>
</linearGradient>
<linearGradient id="paint37_linear_1340_2409" x1="11.545" y1="0" x2="11.545" y2="10.0455" gradientUnits="userSpaceOnUse">
<stop stop-color="#0F1428"/>
<stop offset="1" stop-color="#0B0F21"/>
</linearGradient>
</defs>
</svg>
