<svg width="924" height="961" viewBox="0 0 924 961" fill="none" xmlns="http://www.w3.org/2000/svg">
<path d="M53.9665 980L85.9499 924.45H153.283L185.267 980H186.95L154.967 924.45H84.2665L52.2832 980H53.9665Z" fill="#0066FF" fill-opacity="0.6"/>
<path d="M84.2667 924.45L52.2833 980H53.9667L85.95 924.45L50.6 863.85H-10V865.533H50.6L84.2667 924.45Z" fill="#0066FF" fill-opacity="0.6"/>
<path d="M186.95 980L154.967 924.45L188.633 865.533H255.967L291.317 924.45L259.333 980H261.017L291.317 924.45L257.65 863.85H188.633L153.283 924.45L185.267 980H186.95Z" fill="#0066FF" fill-opacity="0.6"/>
<path d="M154.967 924.45H84.2665L48.9165 863.85L84.2665 803.25H153.283L188.633 863.85L154.967 924.45ZM85.9498 924.45H153.283L186.95 865.533L153.283 806.617H85.9498L52.2832 865.533L85.9498 924.45Z" fill="#0066FF" fill-opacity="0.6"/>
<path d="M50.6 744.334H-10V746.017H50.6L84.2667 804.934L50.6 863.851H-10V865.534H50.6L85.95 804.934L50.6 744.334Z" fill="#0066FF" fill-opacity="0.6"/>
<path d="M257.65 865.534H188.633L153.283 804.934L188.633 744.334H257.65L293 804.934L257.65 865.534ZM188.633 863.851H255.967L289.633 804.934L255.967 746.017H188.633L154.967 804.934L188.633 863.851Z" fill="#0066FF" fill-opacity="0.6"/>
<path d="M464.7 865.534H395.684L360.333 804.934L395.684 744.334H464.7L500.05 804.934L464.7 865.534ZM395.684 863.851H463.017L496.684 804.934L463.017 746.017H395.684L362.017 804.934L395.684 863.851Z" fill="#0066FF" fill-opacity="0.6"/>
<path d="M154.967 806.616H84.2665L48.9165 746.016L84.2665 685.416H153.283L188.633 746.016L154.967 806.616ZM85.9498 804.933H153.283L186.95 746.016L153.283 687.099H85.9498L52.2832 746.016L85.9498 804.933Z" fill="#0066FF" fill-opacity="0.6"/>
<path d="M360.333 806.616H291.317L255.967 746.016L291.317 685.416H360.333L395.683 746.016L360.333 806.616ZM293 804.933H360.333L394 746.016L360.333 687.099H293L259.333 746.016L293 804.933Z" fill="#0066FF" fill-opacity="0.6"/>
<path d="M567.383 806.616H498.367L463.017 746.016L498.367 685.416H567.383L602.733 746.016L567.383 806.616ZM498.367 804.933H565.7L599.367 746.016L565.7 687.099H498.367L464.7 746.016L498.367 804.933Z" fill="#0066FF" fill-opacity="0.6"/>
<path d="M50.6 626.5H-10H50.6L84.2667 685.417L50.6 744.333H-10V746.017H50.6L85.95 685.417L50.6 626.5Z" fill="#0066FF" fill-opacity="0.6"/>
<path d="M257.65 746.016H188.633L153.283 685.416L188.633 624.816H257.65L293 685.416L257.65 746.016ZM188.633 744.333H255.967L289.633 685.416L255.967 626.5H188.633L154.967 685.416L188.633 744.333Z" fill="#0066FF" fill-opacity="0.6"/>
<path d="M464.7 746.016H395.684L360.333 685.416L395.684 624.816H464.7L500.05 685.416L464.7 746.016ZM395.684 744.333H463.017L496.684 685.416L463.017 626.5H395.684L362.017 685.416L395.684 744.333Z" fill="#0066FF" fill-opacity="0.6"/>
<path d="M154.967 687.1H84.2668L50.6001 626.5L85.9501 565.9H154.967L190.317 626.5L154.967 687.1ZM85.9501 685.417H153.283L186.95 626.5L153.283 567.584H85.9501L52.2834 626.5L85.9501 685.417Z" fill="#0066FF" fill-opacity="0.6"/>
<path d="M360.333 687.1H291.317L257.65 626.5L293 565.9H360.333L395.683 626.5L360.333 687.1ZM293 685.417H360.333L394 626.5L360.333 567.584H293L259.333 626.5L293 685.417Z" fill="#0066FF" fill-opacity="0.6"/>
<path d="M567.383 687.1H498.367L463.017 626.5L498.367 565.9H567.383L602.733 626.5L567.383 687.1ZM498.367 685.417H565.7L599.367 626.5L565.7 567.584H498.367L464.7 626.5L498.367 685.417Z" fill="#0066FF" fill-opacity="0.6"/>
<path d="M50.6 506.984H-10V508.668H50.6L84.2667 567.584L50.6 626.501H-10H50.6L85.95 567.584L50.6 506.984Z" fill="#0066FF" fill-opacity="0.6"/>
<path d="M257.65 626.5H188.633L153.283 565.9L188.633 505.3H257.65L293 565.9L257.65 626.5ZM188.633 626.5H255.967L289.633 567.583L255.967 508.666H188.633L154.967 567.583L188.633 626.5Z" fill="#0066FF" fill-opacity="0.6"/>
<path d="M464.7 626.501H395.684L360.333 567.584L395.684 506.984H464.7L500.05 567.584L464.7 626.501ZM395.684 626.501H463.017L496.684 567.584L463.017 508.668H395.684L362.017 567.584L395.684 626.501Z" fill="#0066FF" fill-opacity="0.6"/>
<path d="M154.967 567.584H84.2665L48.9165 506.984L84.2665 446.384H153.283L188.633 506.984L154.967 567.584ZM85.9498 565.9H153.283L186.95 506.984L153.283 448.067H85.9498L52.2832 506.984L85.9498 565.9Z" fill="#0066FF" fill-opacity="0.6"/>
<path d="M360.333 567.584H291.317L255.967 506.984L291.317 446.384H360.333L395.683 506.984L360.333 567.584ZM293 565.9H360.333L394 506.984L360.333 448.067H293L259.333 506.984L293 565.9Z" fill="#0066FF" fill-opacity="0.6"/>
<path d="M567.383 567.584H498.367L463.017 506.984L498.367 446.384H567.383L602.733 506.984L567.383 567.584ZM498.367 565.9H565.7L599.367 506.984L565.7 448.067H498.367L464.7 506.984L498.367 565.9Z" fill="#0066FF" fill-opacity="0.6"/>
<path d="M50.6 387.466H-10V389.149H50.6L84.2667 448.066L50.6 506.982H-10V508.666H50.6L85.95 448.066L50.6 387.466Z" fill="#0066FF" fill-opacity="0.6"/>
<path d="M257.65 508.666H188.633L153.283 448.066L188.633 387.466H257.65L293 448.066L257.65 508.666ZM188.633 506.982H255.967L289.633 448.066L255.967 389.149H188.633L154.967 448.066L188.633 506.982Z" fill="#0066FF" fill-opacity="0.6"/>
<path d="M464.7 508.666H395.684L360.333 448.066L395.684 387.466H464.7L500.05 448.066L464.7 508.666ZM395.684 506.982H463.017L496.684 448.066L463.017 389.149H395.684L362.017 448.066L395.684 506.982Z" fill="#0066FF" fill-opacity="0.6"/>
<path d="M154.967 448.066H84.2665L48.9165 387.466L84.2665 326.866H153.283L188.633 387.466L154.967 448.066ZM85.9498 446.383H153.283L186.95 387.466L153.283 328.55H85.9498L52.2832 387.466L85.9498 446.383Z" fill="#0066FF" fill-opacity="0.6"/>
<path d="M360.333 448.066H291.317L255.967 387.466L291.317 326.866H360.333L395.683 387.466L360.333 448.066ZM293 446.383H360.333L394 387.466L360.333 328.55H293L259.333 387.466L293 446.383Z" fill="#0066FF" fill-opacity="0.6"/>
<path d="M567.383 448.066H498.367L463.017 387.466L498.367 326.866H567.383L602.733 387.466L567.383 448.066ZM498.367 446.383H565.7L599.367 387.466L565.7 328.55H498.367L464.7 387.466L498.367 446.383Z" fill="#0066FF" fill-opacity="0.6"/>
<path d="M50.6 267.95H-10V269.634H50.6L84.2667 328.55L50.6 387.467H-10V389.15H50.6L85.95 328.55L50.6 267.95Z" fill="#0066FF" fill-opacity="0.6"/>
<path d="M257.65 389.15H188.633L153.283 328.55L188.633 267.95H257.65L293 328.55L257.65 389.15ZM188.633 387.467H255.967L289.633 328.55L255.967 269.634H188.633L154.967 328.55L188.633 387.467Z" fill="#0066FF" fill-opacity="0.6"/>
<path d="M464.7 389.15H395.684L360.333 328.55L395.684 267.95H464.7L500.05 328.55L464.7 389.15ZM395.684 387.467H463.017L496.684 328.55L463.017 269.634H395.684L362.017 328.55L395.684 387.467Z" fill="#0066FF" fill-opacity="0.6"/>
<path d="M154.967 328.55H84.2665L48.9165 267.95L84.2665 207.35H153.283L188.633 267.95L154.967 328.55ZM85.9498 328.55H153.283L186.95 269.633L153.283 210.716H85.9498L52.2832 269.633L85.9498 328.55Z" fill="#0066FF" fill-opacity="0.6"/>
<path d="M360.333 328.55H291.317L255.967 267.95L291.317 207.35H360.333L395.683 267.95L360.333 328.55ZM293 328.55H360.333L394 269.633L360.333 210.716H293L259.333 269.633L293 328.55Z" fill="#0066FF" fill-opacity="0.6"/>
<path d="M567.383 328.55H498.367L463.017 267.95L498.367 207.35H567.383L602.733 267.95L567.383 328.55ZM498.367 328.55H565.7L599.367 269.633L565.7 210.716H498.367L464.7 269.633L498.367 328.55Z" fill="#0066FF" fill-opacity="0.6"/>
<path d="M50.6 148.434H-10V150.117H50.6L84.2667 209.034L50.6 267.95H-10V269.634H50.6L85.95 209.034L50.6 148.434Z" fill="#0066FF" fill-opacity="0.6"/>
<path d="M257.65 269.634H188.633L153.283 209.034L188.633 148.434H257.65L293 209.034L257.65 269.634ZM188.633 267.95H255.967L289.633 209.034L255.967 150.117H188.633L154.967 209.034L188.633 267.95Z" fill="#0066FF" fill-opacity="0.6"/>
<path d="M464.7 269.634H395.684L360.333 209.034L395.684 148.434H464.7L500.05 209.034L464.7 269.634ZM395.684 267.95H463.017L496.684 209.034L463.017 150.117H395.684L362.017 209.034L395.684 267.95Z" fill="#0066FF" fill-opacity="0.6"/>
<path d="M567.383 209.034H498.367L463.017 148.434L498.367 87.834H567.383L602.733 148.434L567.383 209.034ZM498.367 209.034H565.7L599.367 150.117L565.7 91.2006H498.367L464.7 150.117L498.367 209.034Z" fill="#0066FF" fill-opacity="0.6"/>
<path d="M50.6 30.5996H-10H50.6L84.2667 89.5163L50.6 148.433H-10V150.116H50.6L85.95 89.5163L50.6 30.5996Z" fill="#0066FF" fill-opacity="0.6"/>
<path d="M567.383 91.2H498.367L463.017 30.6L498.367 -30H567.383L602.733 30.6L567.383 91.2ZM498.367 89.5167H565.7L599.367 30.6L565.7 -28.3167H498.367L464.7 30.6L498.367 89.5167Z" fill="#0066FF" fill-opacity="0.6"/>
<path d="M84.2667 -30L50.6 28.9167H-10V30.6H50.6L85.95 -30H84.2667Z" fill="#0066FF" fill-opacity="0.6"/>
<path opacity="0.5785" d="M47.2333 980H48.9167L16.9333 924.45H-10H16.9333L47.2333 980Z" fill="#0066FF" fill-opacity="0.6"/>
<path opacity="0.8046" d="M330.033 980L362.017 924.45H429.35L461.333 980H463.017L431.033 924.45H362.017L328.35 980H330.033Z" fill="#0066FF" fill-opacity="0.6"/>
<path opacity="0.9514" d="M537.083 980L569.067 924.45H636.4L668.383 980H670.067L636.4 924.45H567.383L535.4 980H537.083Z" fill="#0066FF" fill-opacity="0.6"/>
<path opacity="0.8641" d="M463.017 980L431.033 924.45L464.7 865.533H533.717L567.383 924.45L535.4 980H537.083L569.067 924.45L533.717 863.85H464.7L429.35 924.45L461.333 980H463.017Z" fill="#0066FF" fill-opacity="0.6"/>
<path opacity="0.4869" d="M670.067 980L638.083 924.45L671.75 865.533H739.083L772.75 924.45L740.767 980H742.45L774.433 924.45L740.767 863.85H671.75L636.4 924.45L668.383 980H670.067Z" fill="#0066FF" fill-opacity="0.6"/>
<path opacity="0.3332" d="M16.9333 804.934H-10H16.9333L50.6 863.85L16.9333 922.767H-10V924.45H16.9333L52.2833 863.85L16.9333 804.934Z" fill="#0066FF" fill-opacity="0.6"/>
<path opacity="0.7103" d="M431.033 924.45H362.017L326.667 863.85L362.017 803.25H431.033L466.383 863.85L431.033 924.45ZM362.017 922.767H429.35L463.017 863.85L429.35 804.933H362.017L328.35 863.85L362.017 922.767Z" fill="#0066FF" fill-opacity="0.6"/>
<path opacity="0.7257" d="M636.4 924.45H567.383L532.033 863.85L567.383 803.25H636.4L671.75 863.85L636.4 924.45ZM569.067 922.767H636.4L670.067 863.85L636.4 804.933H569.067L535.4 863.85L569.067 922.767Z" fill="#0066FF" fill-opacity="0.6"/>
<path opacity="0.6391" d="M533.717 865.534H464.7L429.35 804.934L464.7 744.334H533.717L569.067 804.934L533.717 865.534ZM464.7 863.851H532.033L565.7 804.934L532.033 746.017H464.7L431.033 804.934L464.7 863.851Z" fill="#0066FF" fill-opacity="0.6"/>
<path opacity="0.2198" d="M16.9333 685.416H-10V687.099H16.9333L50.6 746.016L16.9333 804.933H-10H16.9333L52.2833 746.016L16.9333 685.416Z" fill="#0066FF" fill-opacity="0.6"/>
<path opacity="0.8573" d="M223.983 804.934H154.967L119.617 744.334L154.967 683.734H223.983L259.333 744.334L223.983 804.934ZM154.967 804.934H222.3L255.967 746.018L222.3 687.101H154.967L121.3 746.018L154.967 804.934Z" fill="#0066FF" fill-opacity="0.6"/>
<path opacity="0.9633" d="M431.033 804.933H362.017L326.667 746.016L362.017 685.416H431.033L466.383 746.016L431.033 804.933ZM362.017 804.933H429.35L463.017 746.016L429.35 687.099H362.017L328.35 746.016L362.017 804.933Z" fill="#0066FF" fill-opacity="0.6"/>
<path opacity="0.3843" d="M121.3 746.017H50.6L15.25 685.417L50.6 626.5H119.617L154.967 687.1L121.3 746.017ZM52.2833 744.333H119.617L153.283 685.417L119.617 626.5H52.2833L18.6167 685.417L52.2833 744.333Z" fill="#0066FF" fill-opacity="0.6"/>
<path opacity="0.6999" d="M326.666 746.016H257.65L222.3 685.416L257.65 624.816H326.666L362.016 685.416L326.666 746.016ZM259.333 744.333H326.666L360.333 685.416L326.666 626.5H259.333L225.666 685.416L259.333 744.333Z" fill="#0066FF" fill-opacity="0.6"/>
<path opacity="0.9514" d="M533.717 746.016H464.7L429.35 685.416L464.7 624.816H533.717L569.067 685.416L533.717 746.016ZM464.7 744.333H532.033L565.7 685.416L532.033 626.5H464.7L431.033 685.416L464.7 744.333Z" fill="#0066FF" fill-opacity="0.6"/>
<path opacity="0.4537" d="M16.9333 565.9H-10V567.584H16.9333L50.6 626.5L16.9333 685.417H-10V687.1H16.9333L52.2833 626.5L16.9333 565.9Z" fill="#0066FF" fill-opacity="0.6"/>
<path opacity="0.7263" d="M223.983 687.1H154.967L119.617 626.5L154.967 565.9H223.983L259.333 626.5L223.983 687.1ZM154.967 685.417H222.3L255.967 626.5L222.3 567.584H154.967L121.3 626.5L154.967 685.417Z" fill="#0066FF" fill-opacity="0.6"/>
<path opacity="0.8093" d="M431.033 687.1H362.017L326.667 626.5L362.017 565.9H431.033L466.383 626.5L431.033 687.1ZM362.017 685.417H429.35L463.017 626.5L429.35 567.584H362.017L328.35 626.5L362.017 685.417Z" fill="#0066FF" fill-opacity="0.6"/>
<path opacity="0.2404" d="M636.4 687.1H567.383L533.717 626.5L569.067 565.9H638.083L673.433 626.5L636.4 687.1ZM569.067 685.417H636.4L670.067 626.5L636.4 567.584H569.067L535.4 626.5L569.067 685.417Z" fill="#0066FF" fill-opacity="0.6"/>
<path opacity="0.2518" d="M121.3 626.5H50.6L15.25 565.9L50.6 505.3H119.617L154.967 565.9L121.3 626.5ZM52.2833 624.816H119.617L153.283 565.9L119.617 506.983H52.2833L18.6167 565.9L52.2833 624.816Z" fill="#0066FF" fill-opacity="0.6"/>
<path opacity="0.9485" d="M326.666 626.5H257.65L222.3 565.9L257.65 505.3H326.666L362.016 565.9L326.666 626.5ZM259.333 624.816H326.666L360.333 565.9L326.666 506.983H259.333L225.666 565.9L259.333 624.816Z" fill="#0066FF" fill-opacity="0.6"/>
<path opacity="0.3667" d="M533.717 626.5H464.7L429.35 565.9L464.7 505.3H533.717L569.067 565.9L533.717 626.5ZM464.7 624.816H532.033L565.7 565.9L532.033 506.983H464.7L431.033 565.9L464.7 624.816Z" fill="#0066FF" fill-opacity="0.6"/>
<path opacity="0.953" d="M16.9333 446.384H-10V448.067H16.9333L50.6 506.984L16.9333 565.9H-10V567.584H16.9333L52.2833 506.984L16.9333 446.384Z" fill="#0066FF" fill-opacity="0.6"/>
<path opacity="0.9477" d="M223.983 567.584H154.967L119.617 506.984L154.967 446.384H223.983L259.333 506.984L223.983 567.584ZM154.967 565.9H222.3L255.967 506.984L222.3 448.067H154.967L121.3 506.984L154.967 565.9Z" fill="#0066FF" fill-opacity="0.6"/>
<path opacity="0.5285" d="M431.033 567.584H362.017L326.667 506.984L362.017 446.384H431.033L466.383 506.984L431.033 567.584ZM362.017 565.9H429.35L463.017 506.984L429.35 448.067H362.017L328.35 506.984L362.017 565.9Z" fill="#0066FF" fill-opacity="0.6"/>
<path opacity="0.943" d="M636.4 567.584H567.383L532.033 506.984L567.383 446.384H636.4L671.75 506.984L636.4 567.584ZM569.067 565.9H636.4L670.067 506.984L636.4 448.067H569.067L535.4 506.984L569.067 565.9Z" fill="#0066FF" fill-opacity="0.6"/>
<path opacity="0.4992" d="M121.3 506.984H50.6L15.25 446.384L50.6 385.784H119.617L154.967 446.384L121.3 506.984ZM52.2833 506.984H119.617L153.283 448.067L119.617 389.151H52.2833L18.6167 448.067L52.2833 506.984Z" fill="#0066FF" fill-opacity="0.6"/>
<path opacity="0.2845" d="M326.666 506.984H257.65L222.3 446.384L257.65 385.784H326.666L362.016 446.384L326.666 506.984ZM259.333 506.984H326.666L360.333 448.067L326.666 389.151H259.333L225.666 448.067L259.333 506.984Z" fill="#0066FF" fill-opacity="0.6"/>
<path opacity="0.4564" d="M533.717 506.984H464.7L429.35 446.384L464.7 385.784H533.717L569.067 446.384L533.717 506.984ZM464.7 506.984H532.033L565.7 448.067L532.033 389.151H464.7L431.033 448.067L464.7 506.984Z" fill="#0066FF" fill-opacity="0.6"/>
<path opacity="0.3971" d="M16.9333 326.866H-10V328.55H16.9333L50.6 387.466L16.9333 446.383H-10V448.066H16.9333L52.2833 387.466L16.9333 326.866Z" fill="#0066FF" fill-opacity="0.6"/>
<path opacity="0.2259" d="M223.983 448.066H154.967L119.617 387.466L154.967 326.866H223.983L259.333 387.466L223.983 448.066ZM154.967 446.383H222.3L255.967 387.466L222.3 328.55H154.967L121.3 387.466L154.967 446.383Z" fill="#0066FF" fill-opacity="0.6"/>
<path opacity="0.5597" d="M431.033 448.066H362.017L326.667 387.466L362.017 326.866H431.033L466.383 387.466L431.033 448.066ZM362.017 446.383H429.35L463.017 387.466L429.35 328.55H362.017L328.35 387.466L362.017 446.383Z" fill="#0066FF" fill-opacity="0.6"/>
<path opacity="0.2253" d="M121.3 389.15H50.6L15.25 328.55L50.6 267.95H119.617L154.967 328.55L121.3 389.15ZM52.2833 387.467H119.617L153.283 328.55L119.617 269.634H52.2833L18.6167 328.55L52.2833 387.467Z" fill="#0066FF" fill-opacity="0.6"/>
<path opacity="0.9205" d="M326.666 389.15H257.65L222.3 328.55L257.65 267.95H326.666L362.016 328.55L326.666 389.15ZM259.333 387.467H326.666L360.333 328.55L326.666 269.634H259.333L225.666 328.55L259.333 387.467Z" fill="#0066FF" fill-opacity="0.6"/>
<path opacity="0.4704" d="M533.717 389.15H464.7L429.35 328.55L464.7 267.95H533.717L569.067 328.55L533.717 389.15ZM464.7 387.467H532.033L565.7 328.55L532.033 269.634H464.7L431.033 328.55L464.7 387.467Z" fill="#0066FF" fill-opacity="0.6"/>
<path opacity="0.4577" d="M740.767 389.15H671.75L636.4 328.55L671.75 267.95H740.767L776.117 328.55L740.767 389.15ZM671.75 387.467H739.083L772.75 328.55L739.083 269.634H671.75L638.083 328.55L671.75 387.467Z" fill="#0066FF" fill-opacity="0.6"/>
<path opacity="0.656" d="M16.9333 209.034H-10H16.9333L50.6 267.951L16.9333 326.868H-10V328.551H16.9333L52.2833 267.951L16.9333 209.034Z" fill="#0066FF" fill-opacity="0.6"/>
<path opacity="0.8847" d="M223.983 328.55H154.967L119.617 267.95L154.967 207.35H223.983L259.333 267.95L223.983 328.55ZM154.967 326.866H222.3L255.967 267.95L222.3 209.033H154.967L121.3 267.95L154.967 326.866Z" fill="#0066FF" fill-opacity="0.6"/>
<path opacity="0.7353" d="M431.033 328.55H362.017L326.667 267.95L362.017 207.35H431.033L466.383 267.95L431.033 328.55ZM362.017 326.866H429.35L463.017 267.95L429.35 209.033H362.017L328.35 267.95L362.017 326.866Z" fill="#0066FF" fill-opacity="0.6"/>
<path opacity="0.3495" d="M636.4 328.55H567.383L532.033 267.95L567.383 207.35H636.4L671.75 267.95L636.4 328.55ZM569.067 326.866H636.4L670.067 267.95L636.4 209.033H569.067L535.4 267.95L569.067 326.866Z" fill="#0066FF" fill-opacity="0.6"/>
<path opacity="0.8177" d="M121.3 269.634H50.6L15.25 209.034L50.6 148.434H119.617L154.967 209.034L121.3 269.634ZM52.2833 267.95H119.617L153.283 209.034L119.617 150.117H52.2833L18.6167 209.034L52.2833 267.95Z" fill="#0066FF" fill-opacity="0.6"/>
<path opacity="0.8244" d="M326.666 269.634H257.65L222.3 209.034L257.65 148.434H326.666L362.016 209.034L326.666 269.634ZM259.333 267.95H326.666L360.333 209.034L326.666 150.117H259.333L225.666 209.034L259.333 267.95Z" fill="#0066FF" fill-opacity="0.6"/>
<path opacity="0.7487" d="M533.717 269.634H464.7L429.35 209.034L464.7 148.434H533.717L569.067 209.034L533.717 269.634ZM464.7 267.95H532.033L565.7 209.034L532.033 150.117H464.7L431.033 209.034L464.7 267.95Z" fill="#0066FF" fill-opacity="0.6"/>
<path opacity="0.6149" d="M16.9333 89.5156H-10V91.199H16.9333L50.6 150.116L16.9333 209.032H-10H16.9333L52.2833 150.116L16.9333 89.5156Z" fill="#0066FF" fill-opacity="0.6"/>
<path opacity="0.9768" d="M223.983 209.034H154.967L119.617 148.434L154.967 87.834H223.983L259.333 148.434L223.983 209.034ZM154.967 209.034H222.3L255.967 150.117L222.3 91.2006H154.967L121.3 150.117L154.967 209.034Z" fill="#0066FF" fill-opacity="0.6"/>
<path opacity="0.6368" d="M431.033 209.032H362.017L326.667 150.116L362.017 89.5156H431.033L466.383 150.116L431.033 209.032ZM362.017 209.032H429.35L463.017 150.116L429.35 91.199H362.017L328.35 150.116L362.017 209.032Z" fill="#0066FF" fill-opacity="0.6"/>
<path opacity="0.3999" d="M636.4 209.034H567.383L532.033 148.434L567.383 87.834H636.4L671.75 148.434L636.4 209.034ZM569.067 209.034H636.4L670.067 150.117L636.4 91.2006H569.067L535.4 150.117L569.067 209.034Z" fill="#0066FF" fill-opacity="0.6"/>
<path opacity="0.5587" d="M121.3 150.116H50.5998L16.9331 89.516L52.2831 28.916H121.3L156.65 89.516L121.3 150.116ZM52.2831 148.433H119.616L153.283 89.516L119.616 30.5993H52.2831L18.6164 89.516L52.2831 148.433Z" fill="#0066FF" fill-opacity="0.6"/>
<path opacity="0.5126" d="M326.666 150.116H257.65L222.3 89.516L257.65 28.916H326.666L362.016 89.516L326.666 150.116ZM259.333 148.433H326.666L360.333 89.516L326.666 30.5993H259.333L225.666 89.516L259.333 148.433Z" fill="#0066FF" fill-opacity="0.6"/>
<path opacity="0.8894" d="M533.717 150.116H464.7L429.35 89.516L464.7 28.916H533.717L569.067 89.516L533.717 150.116ZM464.7 148.433H532.033L565.7 89.516L532.033 30.5993H464.7L431.033 89.516L464.7 148.433Z" fill="#0066FF" fill-opacity="0.6"/>
<path opacity="0.2916" d="M740.767 150.116H671.75L636.4 89.516L671.75 28.916H740.767L776.117 89.516L740.767 150.116ZM671.75 148.433H739.083L772.75 89.516L739.083 30.5993H671.75L638.083 89.516L671.75 148.433Z" fill="#0066FF" fill-opacity="0.6"/>
<path opacity="0.4668" d="M16.9333 -30H-10V-28.3167H16.9333L50.6 30.6L16.9333 89.5167H-10V91.2H16.9333L52.2833 30.6L16.9333 -30Z" fill="#0066FF" fill-opacity="0.6"/>
<path opacity="0.6003" d="M223.983 91.2H154.967L119.617 30.6L154.967 -30H223.983L259.333 30.6L223.983 91.2ZM154.967 89.5167H222.3L255.967 30.6L222.3 -28.3167H154.967L121.3 30.6L154.967 89.5167Z" fill="#0066FF" fill-opacity="0.6"/>
<path opacity="0.4875" d="M431.033 91.2H362.017L326.667 30.6L362.017 -30H431.033L466.383 30.6L431.033 91.2ZM362.017 89.5167H429.35L463.017 30.6L429.35 -28.3167H362.017L328.35 30.6L362.017 89.5167Z" fill="#0066FF" fill-opacity="0.6"/>
<path opacity="0.5828" d="M636.4 91.2H567.383L532.033 30.6L567.383 -30H636.4L671.75 30.6L636.4 91.2ZM569.067 89.5167H636.4L670.067 30.6L636.4 -28.3167H569.067L535.4 30.6L569.067 89.5167Z" fill="#0066FF" fill-opacity="0.6"/>
<path opacity="0.6186" d="M153.283 -30L119.616 28.9167H52.2831L18.6164 -30H16.9331L50.5998 30.6H121.3L154.966 -30H153.283Z" fill="#0066FF" fill-opacity="0.6"/>
<path opacity="0.5996" d="M360.333 -30L326.667 28.9167H259.333L225.667 -30H223.983L257.65 30.6H326.667L362.017 -30H360.333Z" fill="#0066FF" fill-opacity="0.6"/>
<path opacity="0.5391" d="M565.7 -30H567.383L533.717 28.9167H464.7L431.033 -30H432.717H431.033H429.35L464.7 30.6H533.717L569.067 -30H567.383H565.7Z" fill="#0066FF" fill-opacity="0.6"/>
<path opacity="0.5655" d="M772.75 -30L739.083 28.9167H671.75L638.083 -30H636.4L671.75 30.6H740.767L774.433 -30H772.75Z" fill="#0066FF" fill-opacity="0.6"/>
<path opacity="0.7799" d="M436.083 924.45C436.083 927.817 432.717 931.183 429.35 931.183C425.983 931.183 422.617 927.817 422.617 924.45C422.617 921.083 425.983 917.717 429.35 917.717C432.717 917.717 436.083 921.083 436.083 924.45Z" fill="#0066FF" fill-opacity="0.6"/>
<path opacity="0.2197" d="M574.117 924.45C574.117 927.817 570.75 931.183 567.383 931.183C564.017 931.183 560.65 927.817 560.65 924.45C560.65 921.083 564.017 917.717 567.383 917.717C572.433 917.717 574.117 921.083 574.117 924.45Z" fill="#0066FF" fill-opacity="0.6"/>
<path opacity="0.9497" d="M230.717 685.416C230.717 688.783 227.35 692.149 223.983 692.149C220.617 692.149 217.25 688.783 217.25 685.416C217.25 682.049 220.617 678.683 223.983 678.683C227.35 678.683 230.717 682.049 230.717 685.416Z" fill="#0066FF" fill-opacity="0.6"/>
<path opacity="0.3223" d="M437.767 685.417C437.767 690.467 434.4 693.833 429.35 693.833C424.3 693.833 420.934 690.467 420.934 685.417C420.934 680.367 424.3 677 429.35 677C434.4 678.683 437.767 682.05 437.767 685.417Z" fill="#0066FF" fill-opacity="0.6"/>
<path opacity="0.9602" d="M126.35 746.016C126.35 749.383 122.983 752.75 119.617 752.75C116.25 752.75 112.883 749.383 112.883 746.016C112.883 742.65 116.25 739.283 119.617 739.283C122.983 739.283 126.35 742.65 126.35 746.016Z" fill="#0066FF" fill-opacity="0.6"/>
<path opacity="0.4443" d="M331.717 746.016C331.717 749.383 328.35 751.066 326.667 751.066C323.3 751.066 321.617 747.7 321.617 746.016C321.617 742.65 324.983 740.966 326.667 740.966C330.033 739.283 331.717 742.65 331.717 746.016Z" fill="#0066FF" fill-opacity="0.6"/>
<path opacity="0.6009" d="M264.383 746.016C264.383 749.383 261.017 751.066 259.333 751.066C255.967 751.066 254.283 747.7 254.283 746.016C254.283 742.65 257.65 740.966 259.333 740.966C261.017 739.283 264.383 742.65 264.383 746.016Z" fill="#0066FF" fill-opacity="0.6"/>
<path opacity="0.5779" d="M676.8 626.5C676.8 629.867 675.117 631.55 671.75 631.55C668.384 631.55 666.7 629.867 666.7 626.5C666.7 623.134 668.384 621.45 671.75 621.45C675.117 621.45 676.8 623.134 676.8 626.5Z" fill="#0066FF" fill-opacity="0.6"/>
<path opacity="0.6417" d="M229.033 565.9C229.033 569.266 227.35 570.95 223.983 570.95C220.616 570.95 218.933 569.266 218.933 565.9C218.933 562.533 220.616 560.85 223.983 560.85C225.666 560.85 229.033 564.216 229.033 565.9Z" fill="#0066FF" fill-opacity="0.6"/>
<path opacity="0.989" d="M437.766 685.417C437.766 688.783 434.4 693.833 431.033 693.833C427.666 693.833 424.3 690.467 424.3 685.417C424.3 682.05 427.666 677 431.033 677C434.4 678.683 437.766 682.05 437.766 685.417Z" fill="#0066FF" fill-opacity="0.6"/>
<path opacity="0.2208" d="M471.433 626.5C471.433 629.867 468.067 633.233 464.7 633.233C461.333 633.233 457.967 629.867 457.967 626.5C457.967 623.133 461.333 619.767 464.7 619.767C468.067 619.767 471.433 623.133 471.433 626.5Z" fill="#0066FF" fill-opacity="0.6"/>
<path opacity="0.4919" d="M436.083 565.9C436.083 569.267 432.717 572.634 429.35 572.634C425.983 572.634 422.617 569.267 422.617 565.9C422.617 562.534 425.983 559.167 429.35 559.167C434.4 560.85 436.083 562.534 436.083 565.9Z" fill="#0066FF" fill-opacity="0.6"/>
<path opacity="0.9866" d="M368.75 685.416C368.75 688.783 365.383 692.149 362.017 692.149C358.65 692.149 355.283 688.783 355.283 685.416C355.283 682.049 358.65 678.683 362.017 678.683C365.383 678.683 368.75 682.049 368.75 685.416Z" fill="#0066FF" fill-opacity="0.6"/>
<path opacity="0.4543" d="M367.067 565.9C367.067 569.266 365.383 570.95 362.017 570.95C358.65 570.95 356.967 569.266 356.967 565.9C356.967 562.533 358.65 560.85 362.017 560.85C363.7 560.85 367.067 564.216 367.067 565.9Z" fill="#0066FF" fill-opacity="0.6"/>
<path opacity="0.2215" d="M471.433 506.983C471.433 510.35 468.067 513.717 464.7 513.717C461.333 513.717 457.967 510.35 457.967 506.983C457.967 503.617 461.333 500.25 464.7 500.25C468.067 500.25 471.433 503.617 471.433 506.983Z" fill="#0066FF" fill-opacity="0.6"/>
<path opacity="0.3041" d="M230.717 448.067C230.717 451.433 227.35 454.8 223.983 454.8C220.617 454.8 217.25 451.433 217.25 448.067C217.25 444.7 220.617 441.333 223.983 441.333C227.35 439.65 230.717 443.017 230.717 448.067Z" fill="#0066FF" fill-opacity="0.6"/>
<path opacity="0.6539" d="M436.083 565.9C436.083 569.267 432.717 572.634 429.35 572.634C425.983 572.634 422.617 569.267 422.617 565.9C422.617 562.534 425.983 559.167 429.35 559.167C432.717 559.167 436.083 562.534 436.083 565.9Z" fill="#0066FF" fill-opacity="0.6"/>
<path opacity="0.3644" d="M333.4 506.983C333.4 510.35 330.034 513.717 326.667 513.717C323.3 513.717 319.934 510.35 319.934 506.983C319.934 503.617 323.3 500.25 326.667 500.25C331.717 500.25 333.4 503.617 333.4 506.983Z" fill="#0066FF" fill-opacity="0.6"/>
<path opacity="0.6769" d="M333.4 387.467C333.4 390.833 330.034 394.2 326.667 394.2C323.3 394.2 319.934 390.833 319.934 387.467C319.934 384.1 323.3 380.733 326.667 380.733C330.034 382.417 333.4 384.1 333.4 387.467Z" fill="#0066FF" fill-opacity="0.6"/>
<path opacity="0.7362" d="M574.117 448.066C574.117 451.433 570.75 454.8 567.383 454.8C564.017 454.8 560.65 451.433 560.65 448.066C560.65 444.7 564.017 441.333 567.383 441.333C570.75 441.333 574.117 443.016 574.117 448.066Z" fill="#0066FF" fill-opacity="0.6"/>
<path opacity="0.4001" d="M680.166 506.984C680.166 512.034 676.8 515.401 671.75 515.401C666.7 515.401 663.333 512.034 663.333 506.984C663.333 501.934 666.7 498.567 671.75 498.567C675.116 498.567 680.166 501.934 680.166 506.984Z" fill="#0066FF" fill-opacity="0.6"/>
<path opacity="0.4891" d="M230.717 448.066C230.717 451.433 227.35 454.8 223.983 454.8C220.617 454.8 217.25 451.433 217.25 448.066C217.25 444.7 220.617 441.333 223.983 441.333C227.35 441.333 230.717 443.016 230.717 448.066Z" fill="#0066FF" fill-opacity="0.6"/>
<path opacity="0.9359" d="M574.117 448.067C574.117 451.434 570.75 453.117 569.067 453.117C565.7 453.117 564.017 449.75 564.017 448.067C564.017 444.7 567.383 443.017 569.067 443.017C570.75 441.334 574.117 444.7 574.117 448.067Z" fill="#0066FF" fill-opacity="0.6"/>
<path opacity="0.4272" d="M747.5 387.467C747.5 390.833 744.133 394.2 740.766 394.2C737.4 394.2 734.033 390.833 734.033 387.467C734.033 384.1 737.4 380.733 740.766 380.733C744.133 380.733 747.5 384.1 747.5 387.467Z" fill="#0066FF" fill-opacity="0.6"/>
<path opacity="0.5117" d="M59.0165 267.95C59.0165 271.317 55.6498 274.683 52.2831 274.683C48.9165 274.683 45.5498 271.317 45.5498 267.95C45.5498 264.583 48.9165 261.217 52.2831 261.217C55.6498 261.217 59.0165 264.583 59.0165 267.95Z" fill="#0066FF" fill-opacity="0.6"/>
<path opacity="0.6702" d="M333.4 267.95C333.4 271.317 330.034 274.683 326.667 274.683C323.3 274.683 319.934 271.317 319.934 267.95C319.934 264.583 323.3 261.217 326.667 261.217C330.034 261.217 333.4 264.583 333.4 267.95Z" fill="#0066FF" fill-opacity="0.6"/>
<path opacity="0.5677" d="M538.766 387.467C538.766 390.834 537.083 392.517 533.716 392.517C530.35 392.517 528.667 390.834 528.667 387.467C528.667 384.1 530.35 382.417 533.716 382.417C535.4 382.417 538.766 385.784 538.766 387.467Z" fill="#0066FF" fill-opacity="0.6"/>
<path opacity="0.5514" d="M333.4 267.95C333.4 271.317 331.716 273 328.35 273C324.983 273 323.3 271.317 323.3 267.95C323.3 264.584 324.983 262.9 328.35 262.9C330.033 262.9 333.4 266.267 333.4 267.95Z" fill="#0066FF" fill-opacity="0.6"/>
<path opacity="0.3996" d="M368.75 328.551C368.75 331.917 365.383 335.284 362.017 335.284C358.65 335.284 355.283 331.917 355.283 328.551C355.283 325.184 358.65 321.817 362.017 321.817C365.383 321.817 368.75 325.184 368.75 328.551Z" fill="#0066FF" fill-opacity="0.6"/>
<path opacity="0.478" d="M126.35 267.95C126.35 271.317 122.983 274.683 119.617 274.683C116.25 274.683 112.883 271.317 112.883 267.95C112.883 264.583 116.25 261.217 119.617 261.217C124.667 261.217 126.35 264.583 126.35 267.95Z" fill="#0066FF" fill-opacity="0.6"/>
<path opacity="0.7551" d="M160.017 209.033C160.017 212.4 158.333 214.083 154.967 214.083C151.6 214.083 149.917 212.4 149.917 209.033C149.917 205.667 151.6 203.983 154.967 203.983C156.65 203.983 160.017 205.667 160.017 209.033Z" fill="#0066FF" fill-opacity="0.6"/>
<path opacity="0.3837" d="M57.3334 267.95C57.3334 271.317 53.9667 274.683 50.6 274.683C47.2334 274.683 43.8667 271.317 43.8667 267.95C43.8667 264.583 47.2334 261.217 50.6 261.217C55.65 262.9 57.3334 264.583 57.3334 267.95Z" fill="#0066FF" fill-opacity="0.6"/>
<path opacity="0.8544" d="M333.4 150.117C333.4 153.483 330.034 156.85 326.667 156.85C323.3 156.85 319.934 153.483 319.934 150.117C319.934 146.75 323.3 143.383 326.667 143.383C330.034 141.7 333.4 145.067 333.4 150.117Z" fill="#0066FF" fill-opacity="0.6"/>
<path opacity="0.7823" d="M540.45 150.116C540.45 153.483 537.083 156.849 533.717 156.849C530.35 156.849 526.983 153.483 526.983 150.116C526.983 146.749 530.35 143.383 533.717 143.383C537.083 143.383 540.45 145.066 540.45 150.116Z" fill="#0066FF" fill-opacity="0.6"/>
<path opacity="0.3555" d="M678.483 267.95C678.483 271.317 675.117 274.683 671.75 274.683C668.383 274.683 665.017 271.317 665.017 267.95C665.017 264.583 668.383 261.217 671.75 261.217C675.117 261.217 678.483 264.583 678.483 267.95Z" fill="#0066FF" fill-opacity="0.6"/>
<path opacity="0.6866" d="M21.9833 209.033C21.9833 212.4 18.6166 214.083 16.9333 214.083C15.25 214.083 11.8833 210.717 11.8833 209.033C11.8833 205.667 15.25 203.983 16.9333 203.983C18.6166 203.983 21.9833 205.667 21.9833 209.033Z" fill="#0066FF" fill-opacity="0.6"/>
<path opacity="0.5532" d="M57.3334 150.117C57.3334 153.484 53.9667 155.167 50.6 155.167C47.2334 155.167 43.8667 151.8 43.8667 148.434C43.8667 145.067 47.2334 141.7 50.6 141.7C53.9667 143.384 57.3334 145.067 57.3334 150.117Z" fill="#0066FF" fill-opacity="0.6"/>
<path opacity="0.7286" d="M57.3334 30.5998C57.3334 33.9665 55.6501 35.6498 52.2834 35.6498C48.9167 35.6498 47.2334 33.9665 47.2334 30.5998C47.2334 27.2331 48.9167 25.5498 52.2834 25.5498C53.9667 25.5498 57.3334 27.2331 57.3334 30.5998Z" fill="#0066FF" fill-opacity="0.6"/>
<path opacity="0.2998" d="M230.717 89.5165C230.717 92.8832 227.35 96.2499 223.983 96.2499C220.617 96.2499 217.25 92.8832 217.25 89.5165C217.25 86.1499 220.617 82.7832 223.983 82.7832C227.35 82.7832 230.717 86.1499 230.717 89.5165Z" fill="#0066FF" fill-opacity="0.6"/>
<path opacity="0.5742" d="M471.433 30.6005C471.433 33.9672 468.067 37.3339 464.7 37.3339C461.333 37.3339 457.967 33.9672 457.967 30.6005C457.967 27.2339 461.333 23.8672 464.7 23.8672C468.067 23.8672 471.433 27.2339 471.433 30.6005Z" fill="#0066FF" fill-opacity="0.6"/>
<path opacity="0.5823" d="M745.817 30.6005C745.817 33.9672 742.45 37.3339 739.083 37.3339C735.717 37.3339 732.35 33.9672 732.35 30.6005C732.35 27.2339 735.717 23.8672 739.083 23.8672C744.133 23.8672 745.817 27.2339 745.817 30.6005Z" fill="#0066FF" fill-opacity="0.6"/>
<path opacity="0.5135" d="M678.483 150.116C678.483 153.483 675.117 156.849 671.75 156.849C668.383 156.849 665.017 153.483 665.017 150.116C665.017 146.749 668.383 143.383 671.75 143.383C675.117 143.383 678.483 145.066 678.483 150.116Z" fill="#0066FF" fill-opacity="0.6"/>
<path opacity="0.7134" d="M57.3334 30.6005C57.3334 33.9672 55.65 37.3339 50.6 37.3339C47.2334 37.3339 43.8667 33.9672 43.8667 30.6005C43.8667 27.2339 47.2334 23.8672 50.6 23.8672C55.65 23.8672 57.3334 25.5505 57.3334 30.6005Z" fill="#0066FF" fill-opacity="0.6"/>
<path opacity="0.2874" d="M126.35 30.6005C126.35 33.9672 124.667 37.3339 121.3 37.3339C117.934 37.3339 114.567 33.9672 114.567 30.6005C114.567 27.2339 117.934 23.8672 121.3 23.8672C124.667 23.8672 126.35 27.2339 126.35 30.6005Z" fill="#0066FF" fill-opacity="0.6"/>
</svg>
