<svg width="26" height="26" viewBox="0 0 26 26" fill="none" xmlns="http://www.w3.org/2000/svg">
<path opacity="0.9" fill-rule="evenodd" clip-rule="evenodd" d="M24.0763 22.5349C24.0557 22.4868 24.0349 22.4382 24.0139 22.3891L20.9444 14.6252C23.4722 14.2641 24.7361 13.0002 24.7361 10.4724V5.05577C24.7361 2.34744 23.1111 0.361328 19.8611 0.361328H0C0.0570566 0.703668 0.132143 1.00995 0.208167 1.32005C0.372721 1.99126 0.541667 2.68039 0.541667 3.79188V22.3891C0.541667 24.0141 0.361111 24.7363 0 25.6391H8.30555C8.25592 25.3909 8.19263 25.1564 8.12696 24.913C7.95374 24.271 7.76389 23.5674 7.76389 22.3891V14.6252H13.1806L17.5139 25.6391H26C24.9588 24.5979 24.5847 23.7234 24.0763 22.5349ZM16.25 11.3752C17.3333 11.3752 17.6944 11.0141 17.6944 9.75022V5.41688C17.6944 4.33355 17.3333 3.79188 16.25 3.79188H7.76389V11.3752H16.25Z" fill="black"/>
</svg>
