<svg width="54" height="55" viewBox="0 0 54 55" fill="none" xmlns="http://www.w3.org/2000/svg">
<path d="M11.25 25.25H42.75V11.75H11.25V25.25ZM47.25 9.5V45.5C47.25 46.7427 46.2427 47.75 45 47.75H9C7.75737 47.75 6.75 46.7427 6.75 45.5V9.5C6.75 8.25737 7.75737 7.25 9 7.25H45C46.2427 7.25 47.25 8.25737 47.25 9.5ZM42.75 29.75H11.25V43.25H42.75V29.75ZM15.75 34.25H22.5V38.75H15.75V34.25ZM15.75 16.25H22.5V20.75H15.75V16.25Z" fill="url(#paint0_linear_307_1553)"/>
<defs>
<linearGradient id="paint0_linear_307_1553" x1="42.0081" y1="53.6382" x2="18.9054" y2="2.03654" gradientUnits="userSpaceOnUse">
<stop stop-color="#1F60FD"/>
<stop offset="1" stop-color="#1CE7CE"/>
</linearGradient>
</defs>
</svg>
