<svg width="50" height="37" viewBox="0 0 50 37" fill="none" xmlns="http://www.w3.org/2000/svg">
<path d="M25.0699 0.871094C38.7388 0.871094 49.8199 6.91525 49.8199 14.371V23.371C49.8199 30.827 38.7388 36.871 25.0699 36.871C11.6449 36.871 0.716409 31.0408 0.330377 23.7692L0.319824 23.371V14.371C0.319824 6.91525 11.4008 0.871094 25.0699 0.871094ZM25.0699 27.871C16.6988 27.871 9.29843 25.6043 4.81933 22.1346L4.81982 23.371C4.81982 27.6059 13.5557 32.371 25.0699 32.371C36.3439 32.371 44.9547 27.8026 45.3086 23.6365L45.3199 23.371L45.3226 22.1328C40.8437 25.6034 33.4423 27.871 25.0699 27.871ZM25.0699 5.37109C13.5557 5.37109 4.81982 10.1361 4.81982 14.371C4.81982 18.6059 13.5557 23.371 25.0699 23.371C36.584 23.371 45.3199 18.6059 45.3199 14.371C45.3199 10.1361 36.584 5.37109 25.0699 5.37109Z" fill="url(#paint0_linear_312_1562)"/>
<defs>
<linearGradient id="paint0_linear_312_1562" x1="43.4131" y1="42.1049" x2="27.2031" y2="-7.67904" gradientUnits="userSpaceOnUse">
<stop stop-color="#1F60FD"/>
<stop offset="1" stop-color="#1CE7CE"/>
</linearGradient>
</defs>
</svg>
