<svg width="50" height="51" viewBox="0 0 50 51" fill="none" xmlns="http://www.w3.org/2000/svg">
<path d="M42.8607 16.5H45.25C47.7353 16.5 49.75 18.5147 49.75 21V30C49.75 32.4853 47.7353 34.5 45.25 34.5H42.8607C41.7535 43.3792 34.1791 50.25 25 50.25V45.75C32.4558 45.75 38.5 39.7058 38.5 32.25V18.75C38.5 11.2942 32.4558 5.25 25 5.25C17.5442 5.25 11.5 11.2942 11.5 18.75V34.5H4.75C2.26472 34.5 0.25 32.4853 0.25 30V21C0.25 18.5147 2.26472 16.5 4.75 16.5H7.13925C8.24648 7.6208 15.8209 0.75 25 0.75C34.1791 0.75 41.7535 7.6208 42.8607 16.5ZM4.75 21V30H7V21H4.75ZM43 21V30H45.25V21H43ZM15.4587 34.016L17.8441 30.1996C19.9186 31.499 22.3715 32.25 25 32.25C27.6285 32.25 30.0814 31.499 32.1559 30.1996L34.5414 34.016C31.7752 35.7485 28.5046 36.75 25 36.75C21.4954 36.75 18.2248 35.7485 15.4587 34.016Z" fill="url(#paint0_linear_307_1539)"/>
<defs>
<linearGradient id="paint0_linear_307_1539" x1="43.3432" y1="57.4467" x2="15.1066" y2="-5.622" gradientUnits="userSpaceOnUse">
<stop stop-color="#1F60FD"/>
<stop offset="1" stop-color="#1CE7CE"/>
</linearGradient>
</defs>
</svg>
