<svg width="131" height="131" viewBox="0 0 131 131" fill="none" xmlns="http://www.w3.org/2000/svg">
<path d="M108.829 43.6663H114.626C120.655 43.6663 125.542 48.5539 125.542 54.583V76.4163C125.542 82.4456 120.655 87.333 114.626 87.333H108.829C106.143 108.873 87.7685 125.541 65.5007 125.541V114.625C83.5879 114.625 98.2507 99.962 98.2507 81.8747V49.1247C98.2507 31.0373 83.5879 16.3747 65.5007 16.3747C47.4133 16.3747 32.7507 31.0373 32.7507 49.1247V87.333H16.3757C10.3465 87.333 5.45898 82.4456 5.45898 76.4163V54.583C5.45898 48.5539 10.3465 43.6663 16.3757 43.6663H22.1718C24.8578 22.1261 43.2327 5.45801 65.5007 5.45801C87.7685 5.45801 106.143 22.1261 108.829 43.6663ZM16.3757 54.583V76.4163H21.834V54.583H16.3757ZM109.167 54.583V76.4163H114.626V54.583H109.167ZM42.3543 86.1589L48.1409 76.9005C53.1736 80.0527 59.1242 81.8747 65.5007 81.8747C71.8771 81.8747 77.8278 80.0527 82.8603 76.9005L88.6473 86.1589C81.9368 90.3618 74.0026 92.7913 65.5007 92.7913C56.9988 92.7913 49.0646 90.3618 42.3543 86.1589Z" fill="url(#paint0_linear_307_1542)"/>
<defs>
<linearGradient id="paint0_linear_307_1542" x1="110" y1="143" x2="41.5" y2="-10" gradientUnits="userSpaceOnUse">
<stop stop-color="#1F60FD"/>
<stop offset="1" stop-color="#1CE7CE"/>
</linearGradient>
</defs>
</svg>
