<svg width="54" height="54" viewBox="0 0 54 54" fill="none" xmlns="http://www.w3.org/2000/svg">
<path d="M24.75 2.25V4.5H15.75C12.0221 4.5 9 7.52209 9 11.25V18C9 24.2131 14.0368 29.25 20.25 29.25H33.75C39.9631 29.25 45 24.2131 45 18V11.25C45 7.52209 41.978 4.5 38.25 4.5H29.25V2.25H24.75ZM13.5 11.25C13.5 10.0074 14.5074 9 15.75 9H38.25C39.4927 9 40.5 10.0074 40.5 11.25V18C40.5 21.7279 37.478 24.75 33.75 24.75H20.25C16.5221 24.75 13.5 21.7279 13.5 18V11.25ZM21.375 20.25C23.2389 20.25 24.75 18.739 24.75 16.875C24.75 15.011 23.2389 13.5 21.375 13.5C19.511 13.5 18 15.011 18 16.875C18 18.739 19.511 20.25 21.375 20.25ZM32.625 20.25C34.4889 20.25 36 18.739 36 16.875C36 15.011 34.4889 13.5 32.625 13.5C30.7611 13.5 29.25 15.011 29.25 16.875C29.25 18.739 30.7611 20.25 32.625 20.25ZM13.5 49.5C13.5 42.0442 19.5442 36 27 36C34.4558 36 40.5 42.0442 40.5 49.5H45C45 39.5588 36.9412 31.5 27 31.5C17.0589 31.5 9 39.5588 9 49.5H13.5Z" fill="url(#paint0_linear_307_1545)"/>
<defs>
<linearGradient id="paint0_linear_307_1545" x1="40.3405" y1="56.3696" x2="8.7736" y2="2.64982" gradientUnits="userSpaceOnUse">
<stop stop-color="#1F60FD"/>
<stop offset="1" stop-color="#1CE7CE"/>
</linearGradient>
</defs>
</svg>
