<svg width="54" height="54" viewBox="0 0 54 54" fill="none" xmlns="http://www.w3.org/2000/svg">
<path d="M48.9375 18.2524V11.8125C48.9375 10.9174 48.5819 10.0589 47.949 9.42601C47.316 8.79308 46.4576 8.4375 45.5625 8.4375H8.4375C7.54239 8.4375 6.68395 8.79308 6.05101 9.42601C5.41808 10.0589 5.0625 10.9174 5.0625 11.8125V38.8125C5.0625 39.7076 5.41808 40.566 6.05101 41.199C6.68395 41.8319 7.54239 42.1875 8.4375 42.1875H33.75V47.25C33.7473 47.5475 33.8233 47.8404 33.9704 48.0991C34.1174 48.3577 34.3302 48.5729 34.5871 48.7228C34.8441 48.8727 35.1362 48.952 35.4337 48.9527C35.7312 48.9533 36.0236 48.8753 36.2812 48.7266L41.3437 45.8283L46.4062 48.7266C46.6639 48.8753 46.9563 48.9533 47.2538 48.9527C47.5513 48.952 47.8434 48.8727 48.1003 48.7228C48.3573 48.5729 48.5701 48.3577 48.7171 48.0991C48.8642 47.8404 48.9402 47.5475 48.9375 47.25V34.0601C50.0042 33.0385 50.8532 31.8116 51.4331 30.4533C52.013 29.0949 52.312 27.6332 52.312 26.1562C52.312 24.6793 52.013 23.2176 51.4331 21.8592C50.8532 20.5009 50.0042 19.274 48.9375 18.2524ZM27 30.375H15.1875C14.7399 30.375 14.3107 30.1972 13.9943 29.8807C13.6778 29.5643 13.5 29.1351 13.5 28.6875C13.5 28.2399 13.6778 27.8107 13.9943 27.4943C14.3107 27.1778 14.7399 27 15.1875 27H27C27.4476 27 27.8768 27.1778 28.1932 27.4943C28.5097 27.8107 28.6875 28.2399 28.6875 28.6875C28.6875 29.1351 28.5097 29.5643 28.1932 29.8807C27.8768 30.1972 27.4476 30.375 27 30.375ZM27 23.625H15.1875C14.7399 23.625 14.3107 23.4472 13.9943 23.1307C13.6778 22.8143 13.5 22.3851 13.5 21.9375C13.5 21.4899 13.6778 21.0607 13.9943 20.7443C14.3107 20.4278 14.7399 20.25 15.1875 20.25H27C27.4476 20.25 27.8768 20.4278 28.1932 20.7443C28.5097 21.0607 28.6875 21.4899 28.6875 21.9375C28.6875 22.3851 28.5097 22.8143 28.1932 23.1307C27.8768 23.4472 27.4476 23.625 27 23.625ZM45.5625 44.3412L42.1875 42.409C41.9325 42.2632 41.6438 42.1865 41.3501 42.1865C41.0563 42.1865 40.7677 42.2632 40.5127 42.409L37.1377 44.3412V36.2812C38.4741 36.8396 39.908 37.1271 41.3564 37.1271C42.8048 37.1271 44.2387 36.8396 45.5752 36.2812L45.5625 44.3412ZM41.3437 33.75C39.8418 33.75 38.3737 33.3046 37.1249 32.4702C35.8761 31.6358 34.9028 30.4498 34.328 29.0623C33.7533 27.6747 33.6029 26.1478 33.8959 24.6748C34.1889 23.2017 34.9122 21.8487 35.9742 20.7867C37.0362 19.7247 38.3892 19.0014 39.8623 18.7084C41.3353 18.4154 42.8622 18.5658 44.2497 19.1405C45.6373 19.7153 46.8233 20.6886 47.6577 21.9374C48.4921 23.1862 48.9375 24.6543 48.9375 26.1562C48.9375 27.1535 48.7411 28.1409 48.3595 29.0623C47.9778 29.9836 47.4185 30.8207 46.7133 31.5258C46.0082 32.231 45.1711 32.7903 44.2497 33.172C43.3284 33.5536 42.341 33.75 41.3437 33.75Z" fill="url(#paint0_linear_549_1423)"/>
<defs>
<linearGradient id="paint0_linear_549_1423" x1="5" y1="6.5" x2="38.5" y2="49" gradientUnits="userSpaceOnUse">
<stop stop-color="#1DD6D4"/>
<stop offset="1" stop-color="#1E78F4"/>
</linearGradient>
</defs>
</svg>
