<svg width="54" height="54" viewBox="0 0 54 54" fill="none" xmlns="http://www.w3.org/2000/svg">
<path d="M39.3858 47.2557C35.0365 47.2557 31.5108 43.73 31.5108 39.3807C31.5108 35.0315 35.0365 31.5057 39.3858 31.5057C43.735 31.5057 47.2608 35.0315 47.2608 39.3807C47.2608 43.73 43.735 47.2557 39.3858 47.2557ZM39.3858 42.7557C41.2497 42.7557 42.7608 41.2449 42.7608 39.3807C42.7608 37.5168 41.2497 36.0057 39.3858 36.0057C37.5219 36.0057 36.0108 37.5168 36.0108 39.3807C36.0108 41.2449 37.5219 42.7557 39.3858 42.7557ZM14.6357 22.5057C10.2865 22.5057 6.76074 18.9801 6.76074 14.6309C6.76074 10.2816 10.2865 6.75586 14.6357 6.75586C18.985 6.75586 22.5108 10.2816 22.5108 14.6309C22.5108 18.9801 18.985 22.5057 14.6357 22.5057ZM14.6357 18.0059C16.4997 18.0059 18.0107 16.4948 18.0107 14.6309C18.0107 12.7669 16.4997 11.2559 14.6357 11.2559C12.7718 11.2559 11.2607 12.7669 11.2607 14.6309C11.2607 16.4948 12.7718 18.0059 14.6357 18.0059ZM42.9208 7.91398L46.1027 11.096L11.1009 46.0977L7.91886 42.9157L42.9208 7.91398Z" fill="url(#paint0_linear_312_1563)"/>
<defs>
<linearGradient id="paint0_linear_312_1563" x1="42.0189" y1="53.1439" x2="18.9163" y2="1.54235" gradientUnits="userSpaceOnUse">
<stop stop-color="#1F60FD"/>
<stop offset="1" stop-color="#1CE7CE"/>
</linearGradient>
</defs>
</svg>
