<svg width="54" height="54" viewBox="0 0 54 54" fill="none" xmlns="http://www.w3.org/2000/svg">
<path d="M45.5625 20.2493C45.5644 17.1211 44.7756 14.0432 43.2696 11.3014C41.7635 8.5596 39.5889 6.2429 36.9479 4.56646C34.3068 2.89002 31.2849 1.90822 28.1629 1.71225C25.0408 1.51628 21.9199 2.11249 19.0899 3.44552C16.26 4.77855 13.8128 6.80515 11.9757 9.33709C10.1386 11.869 8.97116 14.8242 8.58183 17.928C8.1925 21.0319 8.59391 24.1839 9.74876 27.0911C10.9036 29.9983 12.7744 32.5665 15.1875 34.5572V50.6243C15.1873 50.9121 15.2607 51.1952 15.4007 51.4466C15.5408 51.698 15.7428 51.9095 15.9875 52.0608C16.2323 52.2122 16.5118 52.2984 16.7993 52.3113C17.0868 52.3242 17.3728 52.2634 17.6302 52.1346L27 47.4602L36.372 52.1452C36.6069 52.2576 36.8645 52.3146 37.125 52.3118C37.5726 52.3118 38.0018 52.134 38.3182 51.8175C38.6347 51.5011 38.8125 51.0719 38.8125 50.6243V34.5572C40.9238 32.8183 42.624 30.6335 43.7911 28.1598C44.9581 25.686 45.5631 22.9845 45.5625 20.2493ZM11.8125 20.2493C11.8125 17.2455 12.7032 14.3092 14.3721 11.8116C16.0409 9.31401 18.4128 7.36739 21.188 6.21788C23.9632 5.06838 27.0169 4.76761 29.9629 5.35363C32.909 5.93964 35.6152 7.38611 37.7392 9.51012C39.8632 11.6341 41.3097 14.3403 41.8957 17.2864C42.4817 20.2325 42.1809 23.2862 41.0314 26.0613C39.8819 28.8365 37.9353 31.2084 35.4377 32.8773C32.9402 34.5461 30.0038 35.4368 27 35.4368C22.9734 35.4323 19.113 33.8308 16.2658 30.9836C13.4185 28.1363 11.817 24.2759 11.8125 20.2493ZM15.1875 20.2493C15.1875 17.913 15.8803 15.6292 17.1783 13.6866C18.4762 11.7441 20.3211 10.23 22.4796 9.33598C24.638 8.44192 27.0131 8.20799 29.3045 8.66378C31.5959 9.11957 33.7007 10.2446 35.3527 11.8966C37.0047 13.5486 38.1297 15.6534 38.5855 17.9448C39.0413 20.2362 38.8074 22.6113 37.9133 24.7698C37.0193 26.9282 35.5052 28.7731 33.5627 30.071C31.6201 31.369 29.3363 32.0618 27 32.0618C23.8682 32.0585 20.8656 30.8129 18.651 28.5983C16.4365 26.3838 15.1909 23.3811 15.1875 20.2493Z" fill="url(#paint0_linear_549_1427)"/>
<defs>
<linearGradient id="paint0_linear_549_1427" x1="8" y1="4" x2="37.5" y2="55" gradientUnits="userSpaceOnUse">
<stop stop-color="#1DD6D4"/>
<stop offset="1" stop-color="#1E78F4"/>
</linearGradient>
</defs>
</svg>
