<svg width="47" height="47" viewBox="0 0 47 47" fill="none" xmlns="http://www.w3.org/2000/svg">
<path d="M36.5698 33.3878L46.2058 43.0239L43.0239 46.2058L33.3878 36.5698C29.923 39.3418 25.529 41 20.75 41C9.572 41 0.5 31.928 0.5 20.75C0.5 9.572 9.572 0.5 20.75 0.5C31.928 0.5 41 9.572 41 20.75C41 25.529 39.3418 29.923 36.5698 33.3878ZM32.0556 31.7183C34.8069 28.8828 36.5 25.0151 36.5 20.75C36.5 12.0481 29.4519 5 20.75 5C12.0481 5 5 12.0481 5 20.75C5 29.4519 12.0481 36.5 20.75 36.5C25.0151 36.5 28.8828 34.8069 31.7183 32.0556L32.0556 31.7183ZM23.4003 12.1465C21.8377 12.8521 20.75 14.424 20.75 16.25C20.75 18.7353 22.7647 20.75 25.25 20.75C27.0759 20.75 28.648 19.6623 29.3536 18.0998C29.6112 18.9376 29.75 19.8275 29.75 20.75C29.75 25.7205 25.7205 29.75 20.75 29.75C15.7794 29.75 11.75 25.7205 11.75 20.75C11.75 15.7794 15.7794 11.75 20.75 11.75C21.6725 11.75 22.5624 11.8888 23.4003 12.1465Z" fill="url(#paint0_linear_307_1550)"/>
<defs>
<linearGradient id="paint0_linear_307_1550" x1="40.2901" y1="52.8509" x2="14.2178" y2="-5.38359" gradientUnits="userSpaceOnUse">
<stop stop-color="#1F60FD"/>
<stop offset="1" stop-color="#1CE7CE"/>
</linearGradient>
</defs>
</svg>
