<svg width="42" height="42" viewBox="0 0 42 42" fill="none" xmlns="http://www.w3.org/2000/svg">
<path d="M3 0.75C1.75737 0.75 0.75 1.75737 0.75 3V12H5.25V5.25H12V0.75H3ZM39 0.75H30V5.25H36.75V12H41.25V3C41.25 1.75737 40.2427 0.75 39 0.75ZM5.25 30V36.75H12V41.25H3C1.75737 41.25 0.75 40.2427 0.75 39V30H5.25ZM36.75 30V36.75H30V41.25H39C40.2427 41.25 41.25 40.2427 41.25 39V30H36.75ZM16.5 14.25C15.2574 14.25 14.25 15.2574 14.25 16.5V25.5C14.25 26.7427 15.2574 27.75 16.5 27.75H25.5C26.7427 27.75 27.75 26.7427 27.75 25.5V16.5C27.75 15.2574 26.7427 14.25 25.5 14.25H16.5Z" fill="url(#paint0_linear_307_1548)"/>
<defs>
<linearGradient id="paint0_linear_307_1548" x1="36.0081" y1="47.1382" x2="12.9054" y2="-4.46346" gradientUnits="userSpaceOnUse">
<stop stop-color="#1F60FD"/>
<stop offset="1" stop-color="#1CE7CE"/>
</linearGradient>
</defs>
</svg>
