<svg width="42" height="42" viewBox="0 0 42 42" fill="none" xmlns="http://www.w3.org/2000/svg">
<circle cx="21" cy="21" r="21" fill="#1A95EF"/>
<path d="M29.9375 12.875H26.2812V12.0625C26.2812 11.3083 25.9816 10.585 25.4483 10.0517C24.915 9.51836 24.1917 9.21875 23.4375 9.21875H18.5625C17.8083 9.21875 17.085 9.51836 16.5517 10.0517C16.0184 10.585 15.7188 11.3083 15.7188 12.0625V12.875H12.0625C11.5238 12.875 11.0071 13.089 10.6262 13.4699C10.2453 13.8509 10.0312 14.3675 10.0312 14.9062V27.9062C10.0312 28.445 10.2453 28.9616 10.6262 29.3426C11.0071 29.7235 11.5238 29.9375 12.0625 29.9375H29.9375C30.4762 29.9375 30.9929 29.7235 31.3738 29.3426C31.7547 28.9616 31.9688 28.445 31.9688 27.9062V14.9062C31.9688 14.3675 31.7547 13.8509 31.3738 13.4699C30.9929 13.089 30.4762 12.875 29.9375 12.875ZM18.1562 12.0625C18.1562 11.9548 18.1991 11.8514 18.2752 11.7752C18.3514 11.6991 18.4548 11.6562 18.5625 11.6562H23.4375C23.5452 11.6562 23.6486 11.6991 23.7248 11.7752C23.8009 11.8514 23.8438 11.9548 23.8438 12.0625V12.875H18.1562V12.0625ZM29.5312 15.3125V21.8125H12.4688V15.3125H29.5312ZM12.4688 27.5V24.25H29.5312V27.5H12.4688Z" fill="white"/>
</svg>
